# MagicaVoxel @ Ephtracy

# material
mtllib MalePolitician.mtl
usemtl palette

# normals
vn -1 0 0
vn 1 0 0
vn 0 0 1
vn 0 0 -1
vn 0 -1 0
vn 0 1 0

# texcoords
vt 0.236328 0.5
vt 0.763672 0.5
vt 0.767578 0.5
vt 0.916016 0.5
vt 0.958984 0.5
vt 0.994141 0.5

# verts
v -4.5 11 0.5
v -4.5 11 -0.5
v -4.5 12 0.5
v -4.5 12 -0.5
v -4.5 20 0.5
v -4.5 20 -0.5
v -3.5 20 0.5
v -3.5 20 -0.5
v -3.5 21 0.5
v -3.5 21 -0.5
v -2.5 0 0.5
v -2.5 0 -0.5
v -2.5 1 0.5
v -2.5 1 -0.5
v -2.5 12 1.5
v -2.5 12 0.5
v -2.5 12 -0.5
v -2.5 12 -1.5
v -2.5 20 0.5
v -2.5 20 -0.5
v -2.5 21 1.5
v -2.5 21 0.5
v -2.5 21 -0.5
v -2.5 21 -1.5
v -2.5 22 1.5
v -2.5 22 -1.5
v -2.5 23 0.5
v -2.5 23 -1.5
v -2.5 25 1.5
v -2.5 25 0.5
v -2.5 27 1.5
v -2.5 27 -1.5
v -1.5 23 1.5
v -1.5 23 0.5
v -1.5 23 -1.5
v -1.5 23 -2.5
v -1.5 25 2.5
v -1.5 25 1.5
v -1.5 25 0.5
v -1.5 27 1.5
v -1.5 27 -1.5
v -1.5 27 -2.5
v -1.5 28 2.5
v -1.5 28 -1.5
v -0.5 22 0.5
v -0.5 22 -0.5
v -0.5 23 0.5
v -0.5 23 -0.5
v 0.5 13 1.5
v 0.5 13 0.5
v 0.5 14 1.5
v 0.5 14 0.5
v 0.5 21 1.5
v 0.5 21 0.5
v 0.5 22 1.5
v 0.5 22 0.5
v 1.5 0 0.5
v 1.5 0 -0.5
v 1.5 1 0.5
v 1.5 1 -0.5
v 1.5 11 0.5
v 1.5 11 -0.5
v 1.5 12 1.5
v 1.5 12 0.5
v 1.5 13 1.5
v 1.5 13 0.5
v 3.5 11 0.5
v 3.5 11 -0.5
v 3.5 12 0.5
v 3.5 12 -0.5
v 3.5 20 0.5
v 3.5 20 -0.5
v -3.5 11 0.5
v -3.5 11 -0.5
v -3.5 12 0.5
v -3.5 12 -0.5
v -3.5 20 0.5
v -3.5 20 -0.5
v -1.5 0 0.5
v -1.5 0 -0.5
v -1.5 1 0.5
v -1.5 1 -0.5
v -1.5 11 0.5
v -1.5 11 -0.5
v -1.5 12 1.5
v -1.5 12 0.5
v -1.5 13 1.5
v -1.5 13 0.5
v -0.5 13 1.5
v -0.5 13 0.5
v -0.5 14 1.5
v -0.5 14 0.5
v -0.5 21 1.5
v -0.5 21 0.5
v -0.5 22 1.5
v -0.5 22 0.5
v -0.5 25 2.5
v -0.5 25 1.5
v -0.5 26 2.5
v -0.5 26 1.5
v 0.5 22 0.5
v 0.5 22 -0.5
v 0.5 23 0.5
v 0.5 23 -0.5
v 0.5 26 2.5
v 0.5 26 1.5
v 0.5 27 2.5
v 0.5 27 1.5
v 1.5 23 1.5
v 1.5 23 -0.5
v 1.5 23 -1.5
v 1.5 23 -2.5
v 1.5 24 0.5
v 1.5 24 -0.5
v 1.5 25 1.5
v 1.5 25 0.5
v 1.5 27 2.5
v 1.5 27 1.5
v 1.5 27 -1.5
v 1.5 27 -2.5
v 1.5 28 2.5
v 1.5 28 -1.5
v 2.5 0 0.5
v 2.5 0 -0.5
v 2.5 1 0.5
v 2.5 1 -0.5
v 2.5 12 1.5
v 2.5 12 0.5
v 2.5 12 -0.5
v 2.5 12 -1.5
v 2.5 20 0.5
v 2.5 20 -0.5
v 2.5 21 1.5
v 2.5 21 0.5
v 2.5 21 -0.5
v 2.5 21 -1.5
v 2.5 22 1.5
v 2.5 22 -1.5
v 2.5 23 -0.5
v 2.5 23 -1.5
v 2.5 24 0.5
v 2.5 24 -0.5
v 2.5 25 1.5
v 2.5 25 0.5
v 2.5 27 1.5
v 2.5 27 -1.5
v 3.5 20 0.5
v 3.5 20 -0.5
v 3.5 21 0.5
v 3.5 21 -0.5
v 4.5 11 0.5
v 4.5 11 -0.5
v 4.5 12 0.5
v 4.5 12 -0.5
v 4.5 20 0.5
v 4.5 20 -0.5
v -1.5 25 2.5
v -1.5 28 2.5
v -0.5 25 2.5
v -0.5 26 2.5
v 0.5 26 2.5
v 0.5 27 2.5
v 1.5 27 2.5
v 1.5 28 2.5
v -2.5 12 1.5
v -2.5 21 1.5
v -2.5 22 1.5
v -2.5 25 1.5
v -2.5 27 1.5
v -1.5 12 1.5
v -1.5 13 1.5
v -1.5 19 1.5
v -1.5 21 1.5
v -1.5 22 1.5
v -1.5 23 1.5
v -1.5 25 1.5
v -1.5 27 1.5
v -0.5 13 1.5
v -0.5 14 1.5
v -0.5 19 1.5
v -0.5 21 1.5
v -0.5 22 1.5
v -0.5 25 1.5
v -0.5 26 1.5
v 0.5 13 1.5
v 0.5 14 1.5
v 0.5 19 1.5
v 0.5 21 1.5
v 0.5 22 1.5
v 0.5 26 1.5
v 0.5 27 1.5
v 1.5 12 1.5
v 1.5 13 1.5
v 1.5 19 1.5
v 1.5 21 1.5
v 1.5 22 1.5
v 1.5 23 1.5
v 1.5 25 1.5
v 1.5 27 1.5
v 2.5 12 1.5
v 2.5 21 1.5
v 2.5 22 1.5
v 2.5 25 1.5
v 2.5 27 1.5
v -4.5 11 0.5
v -4.5 12 0.5
v -4.5 20 0.5
v -3.5 11 0.5
v -3.5 12 0.5
v -3.5 20 0.5
v -3.5 21 0.5
v -2.5 0 0.5
v -2.5 1 0.5
v -2.5 12 0.5
v -2.5 20 0.5
v -2.5 21 0.5
v -2.5 23 0.5
v -2.5 25 0.5
v -1.5 0 0.5
v -1.5 1 0.5
v -1.5 11 0.5
v -1.5 12 0.5
v -1.5 13 0.5
v -1.5 23 0.5
v -1.5 25 0.5
v -0.5 13 0.5
v -0.5 14 0.5
v -0.5 21 0.5
v -0.5 22 0.5
v -0.5 23 0.5
v 0.5 13 0.5
v 0.5 14 0.5
v 0.5 21 0.5
v 0.5 22 0.5
v 0.5 23 0.5
v 1.5 0 0.5
v 1.5 1 0.5
v 1.5 11 0.5
v 1.5 12 0.5
v 1.5 13 0.5
v 1.5 24 0.5
v 1.5 25 0.5
v 2.5 0 0.5
v 2.5 1 0.5
v 2.5 12 0.5
v 2.5 20 0.5
v 2.5 21 0.5
v 2.5 24 0.5
v 2.5 25 0.5
v 3.5 11 0.5
v 3.5 12 0.5
v 3.5 20 0.5
v 3.5 21 0.5
v 4.5 11 0.5
v 4.5 12 0.5
v 4.5 20 0.5
v 1.5 23 -0.5
v 1.5 24 -0.5
v 2.5 23 -0.5
v 2.5 24 -0.5
v -4.5 11 -0.5
v -4.5 12 -0.5
v -4.5 20 -0.5
v -3.5 11 -0.5
v -3.5 12 -0.5
v -3.5 20 -0.5
v -3.5 21 -0.5
v -2.5 0 -0.5
v -2.5 1 -0.5
v -2.5 12 -0.5
v -2.5 20 -0.5
v -2.5 21 -0.5
v -1.5 0 -0.5
v -1.5 1 -0.5
v -1.5 11 -0.5
v -0.5 22 -0.5
v -0.5 23 -0.5
v 0.5 22 -0.5
v 0.5 23 -0.5
v 1.5 0 -0.5
v 1.5 1 -0.5
v 1.5 11 -0.5
v 2.5 0 -0.5
v 2.5 1 -0.5
v 2.5 12 -0.5
v 2.5 20 -0.5
v 2.5 21 -0.5
v 3.5 11 -0.5
v 3.5 12 -0.5
v 3.5 20 -0.5
v 3.5 21 -0.5
v 4.5 11 -0.5
v 4.5 12 -0.5
v 4.5 20 -0.5
v -2.5 12 -1.5
v -2.5 21 -1.5
v -2.5 22 -1.5
v -2.5 23 -1.5
v -2.5 27 -1.5
v -1.5 23 -1.5
v -1.5 27 -1.5
v -1.5 28 -1.5
v 1.5 23 -1.5
v 1.5 27 -1.5
v 1.5 28 -1.5
v 2.5 12 -1.5
v 2.5 21 -1.5
v 2.5 22 -1.5
v 2.5 23 -1.5
v 2.5 27 -1.5
v -1.5 23 -2.5
v -1.5 27 -2.5
v 1.5 23 -2.5
v 1.5 27 -2.5
v -2.5 0 0.5
v -1.5 0 0.5
v 1.5 0 0.5
v 2.5 0 0.5
v -2.5 0 -0.5
v -1.5 0 -0.5
v 1.5 0 -0.5
v 2.5 0 -0.5
v -4.5 11 0.5
v -3.5 11 0.5
v -1.5 11 0.5
v 1.5 11 0.5
v 3.5 11 0.5
v 4.5 11 0.5
v -4.5 11 -0.5
v -3.5 11 -0.5
v -1.5 11 -0.5
v 1.5 11 -0.5
v 3.5 11 -0.5
v 4.5 11 -0.5
v -2.5 12 1.5
v -1.5 12 1.5
v 1.5 12 1.5
v 2.5 12 1.5
v -2.5 12 0.5
v -1.5 12 0.5
v 1.5 12 0.5
v 2.5 12 0.5
v -2.5 12 -0.5
v 2.5 12 -0.5
v -2.5 12 -1.5
v 2.5 12 -1.5
v -1.5 13 1.5
v -0.5 13 1.5
v 0.5 13 1.5
v 1.5 13 1.5
v -1.5 13 0.5
v -0.5 13 0.5
v 0.5 13 0.5
v 1.5 13 0.5
v -0.5 14 1.5
v 0.5 14 1.5
v -0.5 14 0.5
v 0.5 14 0.5
v -3.5 20 0.5
v -2.5 20 0.5
v 2.5 20 0.5
v 3.5 20 0.5
v -3.5 20 -0.5
v -2.5 20 -0.5
v 2.5 20 -0.5
v 3.5 20 -0.5
v -1.5 23 1.5
v 1.5 23 1.5
v -2.5 23 0.5
v -1.5 23 0.5
v -0.5 23 0.5
v 0.5 23 0.5
v -0.5 23 -0.5
v 0.5 23 -0.5
v 1.5 23 -0.5
v 2.5 23 -0.5
v -2.5 23 -1.5
v -1.5 23 -1.5
v 1.5 23 -1.5
v 2.5 23 -1.5
v -1.5 23 -2.5
v 1.5 23 -2.5
v 1.5 24 0.5
v 2.5 24 0.5
v 1.5 24 -0.5
v 2.5 24 -0.5
v -1.5 25 2.5
v -0.5 25 2.5
v -2.5 25 1.5
v -1.5 25 1.5
v -0.5 25 1.5
v 1.5 25 1.5
v 2.5 25 1.5
v -2.5 25 0.5
v -1.5 25 0.5
v 1.5 25 0.5
v 2.5 25 0.5
v -0.5 26 2.5
v 0.5 26 2.5
v -0.5 26 1.5
v 0.5 26 1.5
v 0.5 27 2.5
v 1.5 27 2.5
v 0.5 27 1.5
v 1.5 27 1.5
v -4.5 20 0.5
v -3.5 20 0.5
v 3.5 20 0.5
v 4.5 20 0.5
v -4.5 20 -0.5
v -3.5 20 -0.5
v 3.5 20 -0.5
v 4.5 20 -0.5
v -0.5 21 1.5
v 0.5 21 1.5
v -3.5 21 0.5
v -2.5 21 0.5
v -0.5 21 0.5
v 0.5 21 0.5
v 2.5 21 0.5
v 3.5 21 0.5
v -3.5 21 -0.5
v -2.5 21 -0.5
v 2.5 21 -0.5
v 3.5 21 -0.5
v -2.5 22 1.5
v -1.5 22 1.5
v -0.5 22 1.5
v 0.5 22 1.5
v 1.5 22 1.5
v 2.5 22 1.5
v -0.5 22 0.5
v 0.5 22 0.5
v -1.5 22 -0.5
v -0.5 22 -0.5
v 0.5 22 -0.5
v 1.5 22 -0.5
v -2.5 22 -1.5
v 2.5 22 -1.5
v -2.5 27 1.5
v -1.5 27 1.5
v 1.5 27 1.5
v 2.5 27 1.5
v -2.5 27 -1.5
v -1.5 27 -1.5
v 1.5 27 -1.5
v 2.5 27 -1.5
v -1.5 27 -2.5
v 1.5 27 -2.5
v -1.5 28 2.5
v 1.5 28 2.5
v -1.5 28 -1.5
v 1.5 28 -1.5

# faces
f 3/1/1 2/1/1 1/1/1
f 4/1/1 2/1/1 3/1/1
f 5/2/1 4/2/1 3/2/1
f 6/2/1 4/2/1 5/2/1
f 9/2/1 8/2/1 7/2/1
f 10/2/1 8/2/1 9/2/1
f 13/6/1 12/6/1 11/6/1
f 14/6/1 12/6/1 13/6/1
f 16/3/1 14/3/1 13/3/1
f 17/3/1 14/3/1 16/3/1
f 19/2/1 17/2/1 16/2/1
f 19/2/1 18/2/1 17/2/1
f 19/2/1 16/2/1 15/2/1
f 20/2/1 18/2/1 19/2/1
f 21/2/1 19/2/1 15/2/1
f 22/2/1 19/2/1 21/2/1
f 23/2/1 18/2/1 20/2/1
f 24/2/1 18/2/1 23/2/1
f 25/3/1 22/3/1 21/3/1
f 25/3/1 23/3/1 22/3/1
f 25/3/1 24/3/1 23/3/1
f 26/3/1 24/3/1 25/3/1
f 30/6/1 28/6/1 27/6/1
f 31/6/1 30/6/1 29/6/1
f 32/6/1 28/6/1 30/6/1
f 32/6/1 30/6/1 31/6/1
f 38/1/1 34/1/1 33/1/1
f 39/1/1 34/1/1 38/1/1
f 40/6/1 38/6/1 37/6/1
f 41/6/1 36/6/1 35/6/1
f 42/6/1 36/6/1 41/6/1
f 43/6/1 40/6/1 37/6/1
f 43/6/1 41/6/1 40/6/1
f 44/6/1 41/6/1 43/6/1
f 47/1/1 46/1/1 45/1/1
f 48/1/1 46/1/1 47/1/1
f 51/2/1 50/2/1 49/2/1
f 52/2/1 50/2/1 51/2/1
f 55/4/1 54/4/1 53/4/1
f 56/4/1 54/4/1 55/4/1
f 59/6/1 58/6/1 57/6/1
f 60/6/1 58/6/1 59/6/1
f 61/3/1 60/3/1 59/3/1
f 62/3/1 60/3/1 61/3/1
f 65/2/1 64/2/1 63/2/1
f 66/2/1 64/2/1 65/2/1
f 69/1/1 68/1/1 67/1/1
f 70/1/1 68/1/1 69/1/1
f 71/2/1 70/2/1 69/2/1
f 72/2/1 70/2/1 71/2/1
f 73/1/2 74/1/2 75/1/2
f 75/1/2 74/1/2 76/1/2
f 75/2/2 76/2/2 77/2/2
f 77/2/2 76/2/2 78/2/2
f 79/6/2 80/6/2 81/6/2
f 81/6/2 80/6/2 82/6/2
f 81/3/2 82/3/2 83/3/2
f 83/3/2 82/3/2 84/3/2
f 85/2/2 86/2/2 87/2/2
f 87/2/2 86/2/2 88/2/2
f 89/2/2 90/2/2 91/2/2
f 91/2/2 90/2/2 92/2/2
f 93/4/2 94/4/2 95/4/2
f 95/4/2 94/4/2 96/4/2
f 97/6/2 98/6/2 99/6/2
f 99/6/2 98/6/2 100/6/2
f 101/1/2 102/1/2 103/1/2
f 103/1/2 102/1/2 104/1/2
f 105/6/2 106/6/2 107/6/2
f 107/6/2 106/6/2 108/6/2
f 109/1/2 110/1/2 113/1/2
f 113/1/2 110/1/2 114/1/2
f 109/1/2 113/1/2 115/1/2
f 115/1/2 113/1/2 116/1/2
f 111/6/2 112/6/2 119/6/2
f 119/6/2 112/6/2 120/6/2
f 117/6/2 118/6/2 121/6/2
f 118/6/2 119/6/2 121/6/2
f 121/6/2 119/6/2 122/6/2
f 123/6/2 124/6/2 125/6/2
f 125/6/2 124/6/2 126/6/2
f 125/3/2 126/3/2 128/3/2
f 128/3/2 126/3/2 129/3/2
f 128/2/2 129/2/2 131/2/2
f 129/2/2 130/2/2 131/2/2
f 127/2/2 128/2/2 131/2/2
f 131/2/2 130/2/2 132/2/2
f 127/2/2 131/2/2 133/2/2
f 133/2/2 131/2/2 134/2/2
f 132/2/2 130/2/2 135/2/2
f 135/2/2 130/2/2 136/2/2
f 133/3/2 134/3/2 137/3/2
f 134/3/2 135/3/2 137/3/2
f 135/3/2 136/3/2 137/3/2
f 137/3/2 136/3/2 138/3/2
f 139/6/2 140/6/2 142/6/2
f 141/6/2 142/6/2 144/6/2
f 143/6/2 144/6/2 145/6/2
f 142/6/2 140/6/2 146/6/2
f 145/6/2 144/6/2 146/6/2
f 144/6/2 142/6/2 146/6/2
f 147/2/2 148/2/2 149/2/2
f 149/2/2 148/2/2 150/2/2
f 151/1/2 152/1/2 153/1/2
f 153/1/2 152/1/2 154/1/2
f 153/2/2 154/2/2 155/2/2
f 155/2/2 154/2/2 156/2/2
f 159/6/3 158/6/3 157/6/3
f 160/6/3 158/6/3 159/6/3
f 161/6/3 158/6/3 160/6/3
f 162/6/3 158/6/3 161/6/3
f 163/6/3 158/6/3 162/6/3
f 164/6/3 158/6/3 163/6/3
f 170/2/3 166/2/3 165/2/3
f 171/2/3 166/2/3 170/2/3
f 172/2/3 166/2/3 171/2/3
f 173/3/3 167/3/3 166/3/3
f 173/2/3 166/2/3 172/2/3
f 174/3/3 167/3/3 173/3/3
f 176/6/3 169/6/3 168/6/3
f 177/6/3 169/6/3 176/6/3
f 178/2/3 172/2/3 171/2/3
f 179/2/3 172/2/3 178/2/3
f 180/3/3 173/3/3 172/3/3
f 180/2/3 172/2/3 179/2/3
f 181/4/3 174/4/3 173/4/3
f 181/3/3 173/3/3 180/3/3
f 182/4/3 174/4/3 181/4/3
f 183/1/3 176/1/3 175/1/3
f 186/4/3 180/4/3 179/4/3
f 186/4/3 181/4/3 180/4/3
f 187/4/3 181/4/3 186/4/3
f 188/4/3 181/4/3 187/4/3
f 190/1/3 184/1/3 183/1/3
f 193/2/3 186/2/3 185/2/3
f 193/2/3 187/2/3 186/2/3
f 194/3/3 188/3/3 187/3/3
f 194/2/3 187/2/3 193/2/3
f 195/4/3 189/4/3 188/4/3
f 195/3/3 188/3/3 194/3/3
f 196/4/3 189/4/3 195/4/3
f 197/1/3 183/1/3 175/1/3
f 197/1/3 191/1/3 190/1/3
f 197/1/3 190/1/3 183/1/3
f 198/1/3 191/1/3 197/1/3
f 199/1/3 191/1/3 198/1/3
f 200/2/3 194/2/3 193/2/3
f 200/2/3 195/2/3 194/2/3
f 200/2/3 193/2/3 192/2/3
f 201/3/3 196/3/3 195/3/3
f 201/2/3 195/2/3 200/2/3
f 202/3/3 196/3/3 201/3/3
f 203/6/3 199/6/3 198/6/3
f 204/6/3 199/6/3 203/6/3
f 208/1/3 206/1/3 205/1/3
f 209/2/3 207/2/3 206/2/3
f 209/1/3 206/1/3 208/1/3
f 210/2/3 207/2/3 209/2/3
f 215/2/3 211/2/3 210/2/3
f 216/2/3 211/2/3 215/2/3
f 219/6/3 213/6/3 212/6/3
f 220/3/3 214/3/3 213/3/3
f 220/6/3 213/6/3 219/6/3
f 221/3/3 214/3/3 220/3/3
f 222/3/3 214/3/3 221/3/3
f 224/6/3 218/6/3 217/6/3
f 225/6/3 218/6/3 224/6/3
f 226/3/3 223/3/3 222/3/3
f 226/3/3 222/3/3 221/3/3
f 231/3/3 226/3/3 221/3/3
f 231/6/3 227/6/3 226/6/3
f 232/6/3 227/6/3 231/6/3
f 233/1/3 230/1/3 229/1/3
f 233/1/3 229/1/3 228/1/3
f 234/1/3 230/1/3 233/1/3
f 235/1/3 230/1/3 234/1/3
f 238/3/3 231/3/3 221/3/3
f 239/3/3 231/3/3 238/3/3
f 240/3/3 231/3/3 239/3/3
f 243/6/3 237/6/3 236/6/3
f 244/3/3 239/3/3 238/3/3
f 244/6/3 237/6/3 243/6/3
f 244/3/3 238/3/3 237/3/3
f 245/3/3 239/3/3 244/3/3
f 248/6/3 242/6/3 241/6/3
f 249/6/3 242/6/3 248/6/3
f 252/2/3 247/2/3 246/2/3
f 253/2/3 247/2/3 252/2/3
f 254/1/3 251/1/3 250/1/3
f 255/2/3 252/2/3 251/2/3
f 255/1/3 251/1/3 254/1/3
f 256/2/3 252/2/3 255/2/3
f 259/6/3 258/6/3 257/6/3
f 260/6/3 258/6/3 259/6/3
f 261/1/4 262/1/4 264/1/4
f 262/2/4 263/2/4 265/2/4
f 264/1/4 262/1/4 265/1/4
f 265/2/4 263/2/4 266/2/4
f 266/2/4 267/2/4 271/2/4
f 271/2/4 267/2/4 272/2/4
f 268/6/4 269/6/4 273/6/4
f 269/3/4 270/3/4 274/3/4
f 273/6/4 269/6/4 274/6/4
f 274/3/4 270/3/4 275/3/4
f 276/1/4 277/1/4 278/1/4
f 278/1/4 277/1/4 279/1/4
f 275/3/4 270/3/4 282/3/4
f 280/6/4 281/6/4 283/6/4
f 281/3/4 282/3/4 284/3/4
f 283/6/4 281/6/4 284/6/4
f 282/3/4 270/3/4 285/3/4
f 284/3/4 282/3/4 285/3/4
f 286/2/4 287/2/4 290/2/4
f 290/2/4 287/2/4 291/2/4
f 288/1/4 289/1/4 292/1/4
f 289/2/4 290/2/4 293/2/4
f 292/1/4 289/1/4 293/1/4
f 293/2/4 290/2/4 294/2/4
f 298/6/4 299/6/4 300/6/4
f 300/6/4 299/6/4 301/6/4
f 301/6/4 302/6/4 304/6/4
f 304/6/4 302/6/4 305/6/4
f 295/2/4 296/2/4 306/2/4
f 296/3/4 297/3/4 307/3/4
f 306/2/4 296/2/4 307/2/4
f 307/3/4 297/3/4 308/3/4
f 303/6/4 304/6/4 309/6/4
f 309/6/4 304/6/4 310/6/4
f 311/6/4 312/6/4 313/6/4
f 313/6/4 312/6/4 314/6/4
f 319/6/5 316/6/5 315/6/5
f 320/6/5 316/6/5 319/6/5
f 321/6/5 318/6/5 317/6/5
f 322/6/5 318/6/5 321/6/5
f 329/1/5 324/1/5 323/1/5
f 330/1/5 324/1/5 329/1/5
f 331/3/5 326/3/5 325/3/5
f 332/3/5 326/3/5 331/3/5
f 333/1/5 328/1/5 327/1/5
f 334/1/5 328/1/5 333/1/5
f 339/2/5 336/2/5 335/2/5
f 340/2/5 336/2/5 339/2/5
f 341/2/5 338/2/5 337/2/5
f 342/2/5 338/2/5 341/2/5
f 345/2/5 344/2/5 343/2/5
f 346/2/5 344/2/5 345/2/5
f 351/2/5 348/2/5 347/2/5
f 352/2/5 348/2/5 351/2/5
f 353/2/5 350/2/5 349/2/5
f 354/2/5 350/2/5 353/2/5
f 357/4/5 356/4/5 355/4/5
f 358/4/5 356/4/5 357/4/5
f 363/2/5 360/2/5 359/2/5
f 364/2/5 360/2/5 363/2/5
f 365/2/5 362/2/5 361/2/5
f 366/2/5 362/2/5 365/2/5
f 370/1/5 368/1/5 367/1/5
f 371/1/5 368/1/5 370/1/5
f 372/1/5 368/1/5 371/1/5
f 373/1/5 371/1/5 370/1/5
f 374/1/5 368/1/5 372/1/5
f 375/1/5 368/1/5 374/1/5
f 377/6/5 370/6/5 369/6/5
f 378/1/5 373/1/5 370/1/5
f 378/6/5 370/6/5 377/6/5
f 378/1/5 374/1/5 373/1/5
f 378/1/5 375/1/5 374/1/5
f 379/6/5 376/6/5 375/6/5
f 379/1/5 375/1/5 378/1/5
f 380/6/5 376/6/5 379/6/5
f 381/6/5 379/6/5 378/6/5
f 382/6/5 379/6/5 381/6/5
f 385/6/5 384/6/5 383/6/5
f 386/6/5 384/6/5 385/6/5
f 390/6/5 388/6/5 387/6/5
f 391/6/5 388/6/5 390/6/5
f 394/6/5 390/6/5 389/6/5
f 395/6/5 390/6/5 394/6/5
f 396/6/5 393/6/5 392/6/5
f 397/6/5 393/6/5 396/6/5
f 400/6/5 399/6/5 398/6/5
f 401/6/5 399/6/5 400/6/5
f 404/6/5 403/6/5 402/6/5
f 405/6/5 403/6/5 404/6/5
f 406/2/6 407/2/6 410/2/6
f 410/2/6 407/2/6 411/2/6
f 408/2/6 409/2/6 412/2/6
f 412/2/6 409/2/6 413/2/6
f 414/4/6 415/4/6 418/4/6
f 418/4/6 415/4/6 419/4/6
f 416/2/6 417/2/6 422/2/6
f 422/2/6 417/2/6 423/2/6
f 420/2/6 421/2/6 424/2/6
f 424/2/6 421/2/6 425/2/6
f 427/4/6 428/4/6 432/4/6
f 429/4/6 430/4/6 433/4/6
f 426/3/6 427/3/6 434/3/6
f 427/4/6 432/4/6 434/4/6
f 434/4/6 432/4/6 435/4/6
f 433/4/6 430/4/6 436/4/6
f 430/3/6 431/3/6 437/3/6
f 436/4/6 430/4/6 437/4/6
f 434/3/6 435/3/6 438/3/6
f 435/3/6 436/3/6 438/3/6
f 436/3/6 437/3/6 438/3/6
f 426/3/6 434/3/6 438/3/6
f 437/3/6 431/3/6 439/3/6
f 438/3/6 437/3/6 439/3/6
f 440/6/6 441/6/6 444/6/6
f 444/6/6 441/6/6 445/6/6
f 442/6/6 443/6/6 446/6/6
f 446/6/6 443/6/6 447/6/6
f 445/6/6 446/6/6 448/6/6
f 448/6/6 446/6/6 449/6/6
f 450/6/6 451/6/6 452/6/6
f 452/6/6 451/6/6 453/6/6
