# MagicaVoxel @ Ephtracy

# material
mtllib House2.mtl
usemtl palette

# normals
vn -1 0 0
vn 1 0 0
vn 0 0 1
vn 0 0 -1
vn 0 -1 0
vn 0 1 0

# texcoords
vt 0.166016 0.5
vt 0.935547 0.5
vt 0.994141 0.5

# verts
v -15 0 14
v -15 0 -14
v -15 13 15
v -15 13 14
v -15 13 -14
v -15 13 -15
v -15 14 15
v -15 14 14
v -15 14 13
v -15 14 -13
v -15 14 -14
v -15 14 -15
v -15 15 14
v -15 15 13
v -15 15 12
v -15 15 -12
v -15 15 -13
v -15 15 -14
v -15 16 13
v -15 16 12
v -15 16 11
v -15 16 -11
v -15 16 -12
v -15 16 -13
v -15 17 12
v -15 17 11
v -15 17 10
v -15 17 -10
v -15 17 -11
v -15 17 -12
v -15 18 11
v -15 18 10
v -15 18 9
v -15 18 -9
v -15 18 -10
v -15 18 -11
v -15 19 10
v -15 19 9
v -15 19 8
v -15 19 -8
v -15 19 -9
v -15 19 -10
v -15 20 9
v -15 20 8
v -15 20 7
v -15 20 -7
v -15 20 -8
v -15 20 -9
v -15 21 8
v -15 21 7
v -15 21 6
v -15 21 -6
v -15 21 -7
v -15 21 -8
v -15 22 7
v -15 22 6
v -15 22 5
v -15 22 -5
v -15 22 -6
v -15 22 -7
v -15 23 6
v -15 23 5
v -15 23 4
v -15 23 -4
v -15 23 -5
v -15 23 -6
v -15 24 5
v -15 24 4
v -15 24 -4
v -15 24 -5
v -15 25 4
v -15 25 -4
v -9 1 14
v -9 1 13
v -9 1 -13
v -9 1 -14
v -9 8 14
v -9 8 13
v -9 8 -13
v -9 8 -14
v -2 3 14
v -2 3 13
v -2 3 -13
v -2 3 -14
v -2 8 14
v -2 8 13
v -2 8 -13
v -2 8 -14
v 5 3 14
v 5 3 13
v 5 3 -13
v 5 3 -14
v 5 8 14
v 5 8 13
v 5 8 -13
v 5 8 -14
v 12 3 14
v 12 3 13
v 12 3 -13
v 12 3 -14
v 12 8 14
v 12 8 13
v 12 8 -13
v 12 8 -14
v -13 1 14
v -13 1 13
v -13 1 -13
v -13 1 -14
v -13 8 14
v -13 8 13
v -13 8 -13
v -13 8 -14
v -5 3 14
v -5 3 13
v -5 3 -13
v -5 3 -14
v -5 8 14
v -5 8 13
v -5 8 -13
v -5 8 -14
v 2 3 14
v 2 3 13
v 2 3 -13
v 2 3 -14
v 2 8 14
v 2 8 13
v 2 8 -13
v 2 8 -14
v 9 3 14
v 9 3 13
v 9 3 -13
v 9 3 -14
v 9 8 14
v 9 8 13
v 9 8 -13
v 9 8 -14
v 15 0 14
v 15 0 -14
v 15 13 15
v 15 13 14
v 15 13 -14
v 15 13 -15
v 15 14 15
v 15 14 14
v 15 14 13
v 15 14 -13
v 15 14 -14
v 15 14 -15
v 15 15 14
v 15 15 13
v 15 15 12
v 15 15 -12
v 15 15 -13
v 15 15 -14
v 15 16 13
v 15 16 12
v 15 16 11
v 15 16 -11
v 15 16 -12
v 15 16 -13
v 15 17 12
v 15 17 11
v 15 17 10
v 15 17 -10
v 15 17 -11
v 15 17 -12
v 15 18 11
v 15 18 10
v 15 18 9
v 15 18 -9
v 15 18 -10
v 15 18 -11
v 15 19 10
v 15 19 9
v 15 19 8
v 15 19 -8
v 15 19 -9
v 15 19 -10
v 15 20 9
v 15 20 8
v 15 20 7
v 15 20 -7
v 15 20 -8
v 15 20 -9
v 15 21 8
v 15 21 7
v 15 21 6
v 15 21 -6
v 15 21 -7
v 15 21 -8
v 15 22 7
v 15 22 6
v 15 22 5
v 15 22 -5
v 15 22 -6
v 15 22 -7
v 15 23 6
v 15 23 5
v 15 23 4
v 15 23 -4
v 15 23 -5
v 15 23 -6
v 15 24 5
v 15 24 4
v 15 24 -4
v 15 24 -5
v 15 25 4
v 15 25 -4
v -15 13 15
v -15 14 15
v 15 13 15
v 15 14 15
v -15 0 14
v -15 13 14
v -15 14 14
v -15 15 14
v -13 1 14
v -13 8 14
v -9 1 14
v -9 8 14
v -5 3 14
v -5 8 14
v -2 3 14
v -2 8 14
v 2 3 14
v 2 8 14
v 5 3 14
v 5 8 14
v 9 3 14
v 9 8 14
v 12 3 14
v 12 8 14
v 15 0 14
v 15 13 14
v 15 14 14
v 15 15 14
v -15 15 13
v -15 16 13
v -13 1 13
v -13 8 13
v -9 1 13
v -9 8 13
v -5 3 13
v -5 8 13
v -2 3 13
v -2 8 13
v 2 3 13
v 2 8 13
v 5 3 13
v 5 8 13
v 9 3 13
v 9 8 13
v 12 3 13
v 12 8 13
v 15 15 13
v 15 16 13
v -15 16 12
v -15 17 12
v 15 16 12
v 15 17 12
v -15 17 11
v -15 18 11
v 15 17 11
v 15 18 11
v -15 18 10
v -15 19 10
v 15 18 10
v 15 19 10
v -15 19 9
v -15 20 9
v 15 19 9
v 15 20 9
v -15 20 8
v -15 21 8
v 15 20 8
v 15 21 8
v -15 21 7
v -15 22 7
v 15 21 7
v 15 22 7
v -15 22 6
v -15 23 6
v 15 22 6
v 15 23 6
v -15 23 5
v -15 24 5
v 15 23 5
v 15 24 5
v -15 24 4
v -15 25 4
v 15 24 4
v 15 25 4
v -15 24 -4
v -15 25 -4
v 15 24 -4
v 15 25 -4
v -15 23 -5
v -15 24 -5
v 15 23 -5
v 15 24 -5
v -15 22 -6
v -15 23 -6
v 15 22 -6
v 15 23 -6
v -15 21 -7
v -15 22 -7
v 15 21 -7
v 15 22 -7
v -15 20 -8
v -15 21 -8
v 15 20 -8
v 15 21 -8
v -15 19 -9
v -15 20 -9
v 15 19 -9
v 15 20 -9
v -15 18 -10
v -15 19 -10
v 15 18 -10
v 15 19 -10
v -15 17 -11
v -15 18 -11
v 15 17 -11
v 15 18 -11
v -15 16 -12
v -15 17 -12
v 15 16 -12
v 15 17 -12
v -15 15 -13
v -15 16 -13
v -13 1 -13
v -13 8 -13
v -9 1 -13
v -9 8 -13
v -5 3 -13
v -5 8 -13
v -2 3 -13
v -2 8 -13
v 2 3 -13
v 2 8 -13
v 5 3 -13
v 5 8 -13
v 9 3 -13
v 9 8 -13
v 12 3 -13
v 12 8 -13
v 15 15 -13
v 15 16 -13
v -15 0 -14
v -15 13 -14
v -15 14 -14
v -15 15 -14
v -13 1 -14
v -13 8 -14
v -9 1 -14
v -9 8 -14
v -5 3 -14
v -5 8 -14
v -2 3 -14
v -2 8 -14
v 2 3 -14
v 2 8 -14
v 5 3 -14
v 5 8 -14
v 9 3 -14
v 9 8 -14
v 12 3 -14
v 12 8 -14
v 15 0 -14
v 15 13 -14
v 15 14 -14
v 15 15 -14
v -15 13 -15
v -15 14 -15
v 15 13 -15
v 15 14 -15
v -15 0 14
v 15 0 14
v -15 0 -14
v 15 0 -14
v -13 8 14
v -9 8 14
v -5 8 14
v -2 8 14
v 2 8 14
v 5 8 14
v 9 8 14
v 12 8 14
v -13 8 13
v -9 8 13
v -5 8 13
v -2 8 13
v 2 8 13
v 5 8 13
v 9 8 13
v 12 8 13
v -13 8 -13
v -9 8 -13
v -5 8 -13
v -2 8 -13
v 2 8 -13
v 5 8 -13
v 9 8 -13
v 12 8 -13
v -13 8 -14
v -9 8 -14
v -5 8 -14
v -2 8 -14
v 2 8 -14
v 5 8 -14
v 9 8 -14
v 12 8 -14
v -15 13 15
v 15 13 15
v -15 13 14
v 15 13 14
v -15 13 -14
v 15 13 -14
v -15 13 -15
v 15 13 -15
v -13 1 14
v -9 1 14
v -13 1 13
v -9 1 13
v -13 1 -13
v -9 1 -13
v -13 1 -14
v -9 1 -14
v -5 3 14
v -2 3 14
v 2 3 14
v 5 3 14
v 9 3 14
v 12 3 14
v -5 3 13
v -2 3 13
v 2 3 13
v 5 3 13
v 9 3 13
v 12 3 13
v -5 3 -13
v -2 3 -13
v 2 3 -13
v 5 3 -13
v 9 3 -13
v 12 3 -13
v -5 3 -14
v -2 3 -14
v 2 3 -14
v 5 3 -14
v 9 3 -14
v 12 3 -14
v -15 14 15
v 15 14 15
v -15 14 14
v 15 14 14
v -15 14 -14
v 15 14 -14
v -15 14 -15
v 15 14 -15
v -15 15 14
v 15 15 14
v -15 15 13
v 15 15 13
v -15 15 -13
v 15 15 -13
v -15 15 -14
v 15 15 -14
v -15 16 13
v 15 16 13
v -15 16 12
v 15 16 12
v -15 16 -12
v 15 16 -12
v -15 16 -13
v 15 16 -13
v -15 17 12
v 15 17 12
v -15 17 11
v 15 17 11
v -15 17 -11
v 15 17 -11
v -15 17 -12
v 15 17 -12
v -15 18 11
v 15 18 11
v -15 18 10
v 15 18 10
v -15 18 -10
v 15 18 -10
v -15 18 -11
v 15 18 -11
v -15 19 10
v 15 19 10
v -15 19 9
v 15 19 9
v -15 19 -9
v 15 19 -9
v -15 19 -10
v 15 19 -10
v -15 20 9
v 15 20 9
v -15 20 8
v 15 20 8
v -15 20 -8
v 15 20 -8
v -15 20 -9
v 15 20 -9
v -15 21 8
v 15 21 8
v -15 21 7
v 15 21 7
v -15 21 -7
v 15 21 -7
v -15 21 -8
v 15 21 -8
v -15 22 7
v 15 22 7
v -15 22 6
v 15 22 6
v -15 22 -6
v 15 22 -6
v -15 22 -7
v 15 22 -7
v -15 23 6
v 15 23 6
v -15 23 5
v 15 23 5
v -15 23 -5
v 15 23 -5
v -15 23 -6
v 15 23 -6
v -15 24 5
v 15 24 5
v -15 24 4
v 15 24 4
v -15 24 -4
v 15 24 -4
v -15 24 -5
v 15 24 -5
v -15 25 4
v 15 25 4
v -15 25 -4
v 15 25 -4

# faces
f 4/1/1 2/1/1 1/1/1
f 5/1/1 2/1/1 4/1/1
f 7/2/1 4/2/1 3/2/1
f 8/1/1 5/1/1 4/1/1
f 8/2/1 4/2/1 7/2/1
f 9/1/1 5/1/1 8/1/1
f 10/1/1 5/1/1 9/1/1
f 11/2/1 6/2/1 5/2/1
f 11/1/1 5/1/1 10/1/1
f 12/2/1 6/2/1 11/2/1
f 13/2/1 9/2/1 8/2/1
f 14/1/1 10/1/1 9/1/1
f 14/2/1 9/2/1 13/2/1
f 15/1/1 10/1/1 14/1/1
f 16/1/1 10/1/1 15/1/1
f 17/2/1 11/2/1 10/2/1
f 17/1/1 10/1/1 16/1/1
f 18/2/1 11/2/1 17/2/1
f 19/2/1 15/2/1 14/2/1
f 20/1/1 16/1/1 15/1/1
f 20/2/1 15/2/1 19/2/1
f 21/1/1 16/1/1 20/1/1
f 22/1/1 16/1/1 21/1/1
f 23/2/1 17/2/1 16/2/1
f 23/1/1 16/1/1 22/1/1
f 24/2/1 17/2/1 23/2/1
f 25/2/1 21/2/1 20/2/1
f 26/1/1 22/1/1 21/1/1
f 26/2/1 21/2/1 25/2/1
f 27/1/1 22/1/1 26/1/1
f 28/1/1 22/1/1 27/1/1
f 29/2/1 23/2/1 22/2/1
f 29/1/1 22/1/1 28/1/1
f 30/2/1 23/2/1 29/2/1
f 31/2/1 27/2/1 26/2/1
f 32/1/1 28/1/1 27/1/1
f 32/2/1 27/2/1 31/2/1
f 33/1/1 28/1/1 32/1/1
f 34/1/1 28/1/1 33/1/1
f 35/2/1 29/2/1 28/2/1
f 35/1/1 28/1/1 34/1/1
f 36/2/1 29/2/1 35/2/1
f 37/2/1 33/2/1 32/2/1
f 38/1/1 34/1/1 33/1/1
f 38/2/1 33/2/1 37/2/1
f 39/1/1 34/1/1 38/1/1
f 40/1/1 34/1/1 39/1/1
f 41/2/1 35/2/1 34/2/1
f 41/1/1 34/1/1 40/1/1
f 42/2/1 35/2/1 41/2/1
f 43/2/1 39/2/1 38/2/1
f 44/1/1 40/1/1 39/1/1
f 44/2/1 39/2/1 43/2/1
f 45/1/1 40/1/1 44/1/1
f 46/1/1 40/1/1 45/1/1
f 47/2/1 41/2/1 40/2/1
f 47/1/1 40/1/1 46/1/1
f 48/2/1 41/2/1 47/2/1
f 49/2/1 45/2/1 44/2/1
f 50/1/1 46/1/1 45/1/1
f 50/2/1 45/2/1 49/2/1
f 51/1/1 46/1/1 50/1/1
f 52/1/1 46/1/1 51/1/1
f 53/2/1 47/2/1 46/2/1
f 53/1/1 46/1/1 52/1/1
f 54/2/1 47/2/1 53/2/1
f 55/2/1 51/2/1 50/2/1
f 56/1/1 52/1/1 51/1/1
f 56/2/1 51/2/1 55/2/1
f 57/1/1 52/1/1 56/1/1
f 58/1/1 52/1/1 57/1/1
f 59/2/1 53/2/1 52/2/1
f 59/1/1 52/1/1 58/1/1
f 60/2/1 53/2/1 59/2/1
f 61/2/1 57/2/1 56/2/1
f 62/1/1 58/1/1 57/1/1
f 62/2/1 57/2/1 61/2/1
f 63/1/1 58/1/1 62/1/1
f 64/1/1 58/1/1 63/1/1
f 65/2/1 59/2/1 58/2/1
f 65/1/1 58/1/1 64/1/1
f 66/2/1 59/2/1 65/2/1
f 67/2/1 63/2/1 62/2/1
f 68/1/1 64/1/1 63/1/1
f 68/2/1 63/2/1 67/2/1
f 69/2/1 65/2/1 64/2/1
f 69/1/1 64/1/1 68/1/1
f 70/2/1 65/2/1 69/2/1
f 71/2/1 69/2/1 68/2/1
f 72/2/1 69/2/1 71/2/1
f 77/1/1 74/1/1 73/1/1
f 78/1/1 74/1/1 77/1/1
f 79/1/1 76/1/1 75/1/1
f 80/1/1 76/1/1 79/1/1
f 85/1/1 82/1/1 81/1/1
f 86/1/1 82/1/1 85/1/1
f 87/1/1 84/1/1 83/1/1
f 88/1/1 84/1/1 87/1/1
f 93/1/1 90/1/1 89/1/1
f 94/1/1 90/1/1 93/1/1
f 95/1/1 92/1/1 91/1/1
f 96/1/1 92/1/1 95/1/1
f 101/1/1 98/1/1 97/1/1
f 102/1/1 98/1/1 101/1/1
f 103/1/1 100/1/1 99/1/1
f 104/1/1 100/1/1 103/1/1
f 105/1/2 106/1/2 109/1/2
f 109/1/2 106/1/2 110/1/2
f 107/1/2 108/1/2 111/1/2
f 111/1/2 108/1/2 112/1/2
f 113/1/2 114/1/2 117/1/2
f 117/1/2 114/1/2 118/1/2
f 115/1/2 116/1/2 119/1/2
f 119/1/2 116/1/2 120/1/2
f 121/1/2 122/1/2 125/1/2
f 125/1/2 122/1/2 126/1/2
f 123/1/2 124/1/2 127/1/2
f 127/1/2 124/1/2 128/1/2
f 129/1/2 130/1/2 133/1/2
f 133/1/2 130/1/2 134/1/2
f 131/1/2 132/1/2 135/1/2
f 135/1/2 132/1/2 136/1/2
f 137/1/2 138/1/2 140/1/2
f 140/1/2 138/1/2 141/1/2
f 139/2/2 140/2/2 143/2/2
f 140/1/2 141/1/2 144/1/2
f 143/2/2 140/2/2 144/2/2
f 144/1/2 141/1/2 145/1/2
f 145/1/2 141/1/2 146/1/2
f 141/2/2 142/2/2 147/2/2
f 146/1/2 141/1/2 147/1/2
f 147/2/2 142/2/2 148/2/2
f 144/2/2 145/2/2 149/2/2
f 145/1/2 146/1/2 150/1/2
f 149/2/2 145/2/2 150/2/2
f 150/1/2 146/1/2 151/1/2
f 151/1/2 146/1/2 152/1/2
f 146/2/2 147/2/2 153/2/2
f 152/1/2 146/1/2 153/1/2
f 153/2/2 147/2/2 154/2/2
f 150/2/2 151/2/2 155/2/2
f 151/1/2 152/1/2 156/1/2
f 155/2/2 151/2/2 156/2/2
f 156/1/2 152/1/2 157/1/2
f 157/1/2 152/1/2 158/1/2
f 152/2/2 153/2/2 159/2/2
f 158/1/2 152/1/2 159/1/2
f 159/2/2 153/2/2 160/2/2
f 156/2/2 157/2/2 161/2/2
f 157/1/2 158/1/2 162/1/2
f 161/2/2 157/2/2 162/2/2
f 162/1/2 158/1/2 163/1/2
f 163/1/2 158/1/2 164/1/2
f 158/2/2 159/2/2 165/2/2
f 164/1/2 158/1/2 165/1/2
f 165/2/2 159/2/2 166/2/2
f 162/2/2 163/2/2 167/2/2
f 163/1/2 164/1/2 168/1/2
f 167/2/2 163/2/2 168/2/2
f 168/1/2 164/1/2 169/1/2
f 169/1/2 164/1/2 170/1/2
f 164/2/2 165/2/2 171/2/2
f 170/1/2 164/1/2 171/1/2
f 171/2/2 165/2/2 172/2/2
f 168/2/2 169/2/2 173/2/2
f 169/1/2 170/1/2 174/1/2
f 173/2/2 169/2/2 174/2/2
f 174/1/2 170/1/2 175/1/2
f 175/1/2 170/1/2 176/1/2
f 170/2/2 171/2/2 177/2/2
f 176/1/2 170/1/2 177/1/2
f 177/2/2 171/2/2 178/2/2
f 174/2/2 175/2/2 179/2/2
f 175/1/2 176/1/2 180/1/2
f 179/2/2 175/2/2 180/2/2
f 180/1/2 176/1/2 181/1/2
f 181/1/2 176/1/2 182/1/2
f 176/2/2 177/2/2 183/2/2
f 182/1/2 176/1/2 183/1/2
f 183/2/2 177/2/2 184/2/2
f 180/2/2 181/2/2 185/2/2
f 181/1/2 182/1/2 186/1/2
f 185/2/2 181/2/2 186/2/2
f 186/1/2 182/1/2 187/1/2
f 187/1/2 182/1/2 188/1/2
f 182/2/2 183/2/2 189/2/2
f 188/1/2 182/1/2 189/1/2
f 189/2/2 183/2/2 190/2/2
f 186/2/2 187/2/2 191/2/2
f 187/1/2 188/1/2 192/1/2
f 191/2/2 187/2/2 192/2/2
f 192/1/2 188/1/2 193/1/2
f 193/1/2 188/1/2 194/1/2
f 188/2/2 189/2/2 195/2/2
f 194/1/2 188/1/2 195/1/2
f 195/2/2 189/2/2 196/2/2
f 192/2/2 193/2/2 197/2/2
f 193/1/2 194/1/2 198/1/2
f 197/2/2 193/2/2 198/2/2
f 198/1/2 194/1/2 199/1/2
f 199/1/2 194/1/2 200/1/2
f 194/2/2 195/2/2 201/2/2
f 200/1/2 194/1/2 201/1/2
f 201/2/2 195/2/2 202/2/2
f 198/2/2 199/2/2 203/2/2
f 199/1/2 200/1/2 204/1/2
f 203/2/2 199/2/2 204/2/2
f 200/2/2 201/2/2 205/2/2
f 204/1/2 200/1/2 205/1/2
f 205/2/2 201/2/2 206/2/2
f 204/2/2 205/2/2 207/2/2
f 207/2/2 205/2/2 208/2/2
f 211/2/3 210/2/3 209/2/3
f 212/2/3 210/2/3 211/2/3
f 217/1/3 214/1/3 213/1/3
f 218/1/3 214/1/3 217/1/3
f 219/1/3 217/1/3 213/1/3
f 220/1/3 214/1/3 218/1/3
f 221/1/3 220/1/3 219/1/3
f 222/1/3 214/1/3 220/1/3
f 222/1/3 220/1/3 221/1/3
f 223/1/3 221/1/3 219/1/3
f 224/1/3 214/1/3 222/1/3
f 225/1/3 223/1/3 219/1/3
f 225/1/3 224/1/3 223/1/3
f 226/1/3 214/1/3 224/1/3
f 226/1/3 224/1/3 225/1/3
f 227/1/3 225/1/3 219/1/3
f 228/1/3 214/1/3 226/1/3
f 229/1/3 227/1/3 219/1/3
f 229/1/3 228/1/3 227/1/3
f 230/1/3 214/1/3 228/1/3
f 230/1/3 228/1/3 229/1/3
f 231/1/3 229/1/3 219/1/3
f 232/1/3 214/1/3 230/1/3
f 233/1/3 219/1/3 213/1/3
f 233/1/3 232/1/3 231/1/3
f 233/1/3 231/1/3 219/1/3
f 234/1/3 214/1/3 232/1/3
f 234/1/3 232/1/3 233/1/3
f 235/2/3 216/2/3 215/2/3
f 236/2/3 216/2/3 235/2/3
f 241/3/3 240/3/3 239/3/3
f 242/3/3 240/3/3 241/3/3
f 245/3/3 244/3/3 243/3/3
f 246/3/3 244/3/3 245/3/3
f 249/3/3 248/3/3 247/3/3
f 250/3/3 248/3/3 249/3/3
f 253/3/3 252/3/3 251/3/3
f 254/3/3 252/3/3 253/3/3
f 255/2/3 238/2/3 237/2/3
f 256/2/3 238/2/3 255/2/3
f 259/2/3 258/2/3 257/2/3
f 260/2/3 258/2/3 259/2/3
f 263/2/3 262/2/3 261/2/3
f 264/2/3 262/2/3 263/2/3
f 267/2/3 266/2/3 265/2/3
f 268/2/3 266/2/3 267/2/3
f 271/2/3 270/2/3 269/2/3
f 272/2/3 270/2/3 271/2/3
f 275/2/3 274/2/3 273/2/3
f 276/2/3 274/2/3 275/2/3
f 279/2/3 278/2/3 277/2/3
f 280/2/3 278/2/3 279/2/3
f 283/2/3 282/2/3 281/2/3
f 284/2/3 282/2/3 283/2/3
f 287/2/3 286/2/3 285/2/3
f 288/2/3 286/2/3 287/2/3
f 291/2/3 290/2/3 289/2/3
f 292/2/3 290/2/3 291/2/3
f 293/2/4 294/2/4 295/2/4
f 295/2/4 294/2/4 296/2/4
f 297/2/4 298/2/4 299/2/4
f 299/2/4 298/2/4 300/2/4
f 301/2/4 302/2/4 303/2/4
f 303/2/4 302/2/4 304/2/4
f 305/2/4 306/2/4 307/2/4
f 307/2/4 306/2/4 308/2/4
f 309/2/4 310/2/4 311/2/4
f 311/2/4 310/2/4 312/2/4
f 313/2/4 314/2/4 315/2/4
f 315/2/4 314/2/4 316/2/4
f 317/2/4 318/2/4 319/2/4
f 319/2/4 318/2/4 320/2/4
f 321/2/4 322/2/4 323/2/4
f 323/2/4 322/2/4 324/2/4
f 325/2/4 326/2/4 327/2/4
f 327/2/4 326/2/4 328/2/4
f 331/3/4 332/3/4 333/3/4
f 333/3/4 332/3/4 334/3/4
f 335/3/4 336/3/4 337/3/4
f 337/3/4 336/3/4 338/3/4
f 339/3/4 340/3/4 341/3/4
f 341/3/4 340/3/4 342/3/4
f 343/3/4 344/3/4 345/3/4
f 345/3/4 344/3/4 346/3/4
f 329/2/4 330/2/4 347/2/4
f 347/2/4 330/2/4 348/2/4
f 349/1/4 350/1/4 353/1/4
f 353/1/4 350/1/4 354/1/4
f 349/1/4 353/1/4 355/1/4
f 354/1/4 350/1/4 356/1/4
f 355/1/4 356/1/4 357/1/4
f 356/1/4 350/1/4 358/1/4
f 357/1/4 356/1/4 358/1/4
f 355/1/4 357/1/4 359/1/4
f 358/1/4 350/1/4 360/1/4
f 355/1/4 359/1/4 361/1/4
f 359/1/4 360/1/4 361/1/4
f 360/1/4 350/1/4 362/1/4
f 361/1/4 360/1/4 362/1/4
f 355/1/4 361/1/4 363/1/4
f 362/1/4 350/1/4 364/1/4
f 355/1/4 363/1/4 365/1/4
f 363/1/4 364/1/4 365/1/4
f 364/1/4 350/1/4 366/1/4
f 365/1/4 364/1/4 366/1/4
f 355/1/4 365/1/4 367/1/4
f 366/1/4 350/1/4 368/1/4
f 349/1/4 355/1/4 369/1/4
f 367/1/4 368/1/4 369/1/4
f 355/1/4 367/1/4 369/1/4
f 368/1/4 350/1/4 370/1/4
f 369/1/4 368/1/4 370/1/4
f 351/2/4 352/2/4 371/2/4
f 371/2/4 352/2/4 372/2/4
f 373/2/4 374/2/4 375/2/4
f 375/2/4 374/2/4 376/2/4
f 379/1/5 378/1/5 377/1/5
f 380/1/5 378/1/5 379/1/5
f 389/1/5 382/1/5 381/1/5
f 390/1/5 382/1/5 389/1/5
f 391/1/5 384/1/5 383/1/5
f 392/1/5 384/1/5 391/1/5
f 393/1/5 386/1/5 385/1/5
f 394/1/5 386/1/5 393/1/5
f 395/1/5 388/1/5 387/1/5
f 396/1/5 388/1/5 395/1/5
f 405/1/5 398/1/5 397/1/5
f 406/1/5 398/1/5 405/1/5
f 407/1/5 400/1/5 399/1/5
f 408/1/5 400/1/5 407/1/5
f 409/1/5 402/1/5 401/1/5
f 410/1/5 402/1/5 409/1/5
f 411/1/5 404/1/5 403/1/5
f 412/1/5 404/1/5 411/1/5
f 415/2/5 414/2/5 413/2/5
f 416/2/5 414/2/5 415/2/5
f 419/2/5 418/2/5 417/2/5
f 420/2/5 418/2/5 419/2/5
f 421/1/6 422/1/6 423/1/6
f 423/1/6 422/1/6 424/1/6
f 425/1/6 426/1/6 427/1/6
f 427/1/6 426/1/6 428/1/6
f 429/1/6 430/1/6 435/1/6
f 435/1/6 430/1/6 436/1/6
f 431/1/6 432/1/6 437/1/6
f 437/1/6 432/1/6 438/1/6
f 433/1/6 434/1/6 439/1/6
f 439/1/6 434/1/6 440/1/6
f 441/1/6 442/1/6 447/1/6
f 447/1/6 442/1/6 448/1/6
f 443/1/6 444/1/6 449/1/6
f 449/1/6 444/1/6 450/1/6
f 445/1/6 446/1/6 451/1/6
f 451/1/6 446/1/6 452/1/6
f 453/2/6 454/2/6 455/2/6
f 455/2/6 454/2/6 456/2/6
f 457/2/6 458/2/6 459/2/6
f 459/2/6 458/2/6 460/2/6
f 461/2/6 462/2/6 463/2/6
f 463/2/6 462/2/6 464/2/6
f 465/2/6 466/2/6 467/2/6
f 467/2/6 466/2/6 468/2/6
f 469/2/6 470/2/6 471/2/6
f 471/2/6 470/2/6 472/2/6
f 473/2/6 474/2/6 475/2/6
f 475/2/6 474/2/6 476/2/6
f 477/2/6 478/2/6 479/2/6
f 479/2/6 478/2/6 480/2/6
f 481/2/6 482/2/6 483/2/6
f 483/2/6 482/2/6 484/2/6
f 485/2/6 486/2/6 487/2/6
f 487/2/6 486/2/6 488/2/6
f 489/2/6 490/2/6 491/2/6
f 491/2/6 490/2/6 492/2/6
f 493/2/6 494/2/6 495/2/6
f 495/2/6 494/2/6 496/2/6
f 497/2/6 498/2/6 499/2/6
f 499/2/6 498/2/6 500/2/6
f 501/2/6 502/2/6 503/2/6
f 503/2/6 502/2/6 504/2/6
f 505/2/6 506/2/6 507/2/6
f 507/2/6 506/2/6 508/2/6
f 509/2/6 510/2/6 511/2/6
f 511/2/6 510/2/6 512/2/6
f 513/2/6 514/2/6 515/2/6
f 515/2/6 514/2/6 516/2/6
f 517/2/6 518/2/6 519/2/6
f 519/2/6 518/2/6 520/2/6
f 521/2/6 522/2/6 523/2/6
f 523/2/6 522/2/6 524/2/6
f 525/2/6 526/2/6 527/2/6
f 527/2/6 526/2/6 528/2/6
f 529/2/6 530/2/6 531/2/6
f 531/2/6 530/2/6 532/2/6
f 533/2/6 534/2/6 535/2/6
f 535/2/6 534/2/6 536/2/6
f 537/2/6 538/2/6 539/2/6
f 539/2/6 538/2/6 540/2/6
f 541/2/6 542/2/6 543/2/6
f 543/2/6 542/2/6 544/2/6
