# MagicaVoxel @ Ephtracy

# material
mtllib House4.mtl
usemtl palette

# normals
vn -1 0 0
vn 1 0 0
vn 0 0 1
vn 0 0 -1
vn 0 -1 0
vn 0 1 0

# texcoords
vt 0.115234 0.5
vt 0.341797 0.5
vt 0.361328 0.5
vt 0.435547 0.5
vt 0.912109 0.5

# verts
v -15 0 14
v -15 0 -14
v -15 19 15
v -15 19 14
v -15 19 -14
v -15 19 -15
v -15 20 15
v -15 20 14
v -15 20 13
v -15 20 -13
v -15 20 -14
v -15 20 -15
v -15 21 14
v -15 21 13
v -15 21 12
v -15 21 -12
v -15 21 -13
v -15 21 -14
v -15 22 13
v -15 22 12
v -15 22 11
v -15 22 -11
v -15 22 -12
v -15 22 -13
v -15 23 12
v -15 23 11
v -15 23 10
v -15 23 -10
v -15 23 -11
v -15 23 -12
v -15 24 11
v -15 24 10
v -15 24 9
v -15 24 -9
v -15 24 -10
v -15 24 -11
v -15 25 10
v -15 25 9
v -15 25 8
v -15 25 -8
v -15 25 -9
v -15 25 -10
v -15 26 9
v -15 26 8
v -15 26 7
v -15 26 -7
v -15 26 -8
v -15 26 -9
v -15 27 8
v -15 27 7
v -15 27 6
v -15 27 -6
v -15 27 -7
v -15 27 -8
v -15 28 7
v -15 28 6
v -15 28 5
v -15 28 -5
v -15 28 -6
v -15 28 -7
v -15 29 6
v -15 29 5
v -15 29 -5
v -15 29 -6
v -15 30 5
v -15 30 -5
v -10 3 14
v -10 3 13
v -10 3 -13
v -10 3 -14
v -10 8 14
v -10 8 13
v -10 8 -13
v -10 8 -14
v -10 11 14
v -10 11 13
v -10 11 -13
v -10 11 -14
v -10 16 14
v -10 16 13
v -10 16 -13
v -10 16 -14
v -2 0 14
v -2 0 13
v -2 0 -13
v -2 0 -14
v -2 8 14
v -2 8 13
v -2 8 -13
v -2 8 -14
v -2 11 14
v -2 11 13
v -2 11 -13
v -2 11 -14
v -2 16 14
v -2 16 13
v -2 16 -13
v -2 16 -14
v 6 3 14
v 6 3 13
v 6 3 -13
v 6 3 -14
v 6 8 14
v 6 8 13
v 6 8 -13
v 6 8 -14
v 6 11 14
v 6 11 13
v 6 11 -13
v 6 11 -14
v 6 16 14
v 6 16 13
v 6 16 -13
v 6 16 -14
v 14 3 14
v 14 3 13
v 14 3 -13
v 14 3 -14
v 14 8 14
v 14 8 13
v 14 8 -13
v 14 8 -14
v 14 11 14
v 14 11 13
v 14 11 -13
v 14 11 -14
v 14 16 14
v 14 16 13
v 14 16 -13
v 14 16 -14
v -14 3 14
v -14 3 13
v -14 3 -13
v -14 3 -14
v -14 8 14
v -14 8 13
v -14 8 -13
v -14 8 -14
v -14 11 14
v -14 11 13
v -14 11 -13
v -14 11 -14
v -14 16 14
v -14 16 13
v -14 16 -13
v -14 16 -14
v -6 0 14
v -6 0 13
v -6 0 -13
v -6 0 -14
v -6 8 14
v -6 8 13
v -6 8 -13
v -6 8 -14
v -6 11 14
v -6 11 13
v -6 11 -13
v -6 11 -14
v -6 16 14
v -6 16 13
v -6 16 -13
v -6 16 -14
v 2 3 14
v 2 3 13
v 2 3 -13
v 2 3 -14
v 2 8 14
v 2 8 13
v 2 8 -13
v 2 8 -14
v 2 11 14
v 2 11 13
v 2 11 -13
v 2 11 -14
v 2 16 14
v 2 16 13
v 2 16 -13
v 2 16 -14
v 10 3 14
v 10 3 13
v 10 3 -13
v 10 3 -14
v 10 8 14
v 10 8 13
v 10 8 -13
v 10 8 -14
v 10 11 14
v 10 11 13
v 10 11 -13
v 10 11 -14
v 10 16 14
v 10 16 13
v 10 16 -13
v 10 16 -14
v 15 0 14
v 15 0 -14
v 15 19 15
v 15 19 14
v 15 19 -14
v 15 19 -15
v 15 20 15
v 15 20 14
v 15 20 13
v 15 20 -13
v 15 20 -14
v 15 20 -15
v 15 21 14
v 15 21 13
v 15 21 12
v 15 21 -12
v 15 21 -13
v 15 21 -14
v 15 22 13
v 15 22 12
v 15 22 11
v 15 22 -11
v 15 22 -12
v 15 22 -13
v 15 23 12
v 15 23 11
v 15 23 10
v 15 23 -10
v 15 23 -11
v 15 23 -12
v 15 24 11
v 15 24 10
v 15 24 9
v 15 24 -9
v 15 24 -10
v 15 24 -11
v 15 25 10
v 15 25 9
v 15 25 8
v 15 25 -8
v 15 25 -9
v 15 25 -10
v 15 26 9
v 15 26 8
v 15 26 7
v 15 26 -7
v 15 26 -8
v 15 26 -9
v 15 27 8
v 15 27 7
v 15 27 6
v 15 27 -6
v 15 27 -7
v 15 27 -8
v 15 28 7
v 15 28 6
v 15 28 5
v 15 28 -5
v 15 28 -6
v 15 28 -7
v 15 29 6
v 15 29 5
v 15 29 -5
v 15 29 -6
v 15 30 5
v 15 30 -5
v -15 19 15
v -15 20 15
v 15 19 15
v 15 20 15
v -15 0 14
v -15 19 14
v -15 20 14
v -15 21 14
v -14 3 14
v -14 8 14
v -14 11 14
v -14 16 14
v -10 3 14
v -10 8 14
v -10 11 14
v -10 16 14
v -6 0 14
v -6 8 14
v -6 11 14
v -6 16 14
v -2 0 14
v -2 8 14
v -2 11 14
v -2 16 14
v 2 3 14
v 2 8 14
v 2 11 14
v 2 16 14
v 6 3 14
v 6 8 14
v 6 11 14
v 6 16 14
v 10 3 14
v 10 8 14
v 10 11 14
v 10 16 14
v 14 3 14
v 14 8 14
v 14 11 14
v 14 16 14
v 15 0 14
v 15 19 14
v 15 20 14
v 15 21 14
v -15 21 13
v -15 22 13
v -14 3 13
v -14 8 13
v -14 11 13
v -14 16 13
v -10 3 13
v -10 8 13
v -10 11 13
v -10 16 13
v -6 0 13
v -6 8 13
v -6 11 13
v -6 16 13
v -2 0 13
v -2 8 13
v -2 11 13
v -2 16 13
v 2 3 13
v 2 8 13
v 2 11 13
v 2 16 13
v 6 3 13
v 6 8 13
v 6 11 13
v 6 16 13
v 10 3 13
v 10 8 13
v 10 11 13
v 10 16 13
v 14 3 13
v 14 8 13
v 14 11 13
v 14 16 13
v 15 21 13
v 15 22 13
v -15 22 12
v -15 23 12
v 15 22 12
v 15 23 12
v -15 23 11
v -15 24 11
v 15 23 11
v 15 24 11
v -15 24 10
v -15 25 10
v 15 24 10
v 15 25 10
v -15 25 9
v -15 26 9
v 15 25 9
v 15 26 9
v -15 26 8
v -15 27 8
v 15 26 8
v 15 27 8
v -15 27 7
v -15 28 7
v 15 27 7
v 15 28 7
v -15 28 6
v -15 29 6
v 15 28 6
v 15 29 6
v -15 29 5
v -15 30 5
v 15 29 5
v 15 30 5
v -15 29 -5
v -15 30 -5
v 15 29 -5
v 15 30 -5
v -15 28 -6
v -15 29 -6
v 15 28 -6
v 15 29 -6
v -15 27 -7
v -15 28 -7
v 15 27 -7
v 15 28 -7
v -15 26 -8
v -15 27 -8
v 15 26 -8
v 15 27 -8
v -15 25 -9
v -15 26 -9
v 15 25 -9
v 15 26 -9
v -15 24 -10
v -15 25 -10
v 15 24 -10
v 15 25 -10
v -15 23 -11
v -15 24 -11
v 15 23 -11
v 15 24 -11
v -15 22 -12
v -15 23 -12
v 15 22 -12
v 15 23 -12
v -15 21 -13
v -15 22 -13
v -14 3 -13
v -14 8 -13
v -14 11 -13
v -14 16 -13
v -10 3 -13
v -10 8 -13
v -10 11 -13
v -10 16 -13
v -6 0 -13
v -6 8 -13
v -6 11 -13
v -6 16 -13
v -2 0 -13
v -2 8 -13
v -2 11 -13
v -2 16 -13
v 2 3 -13
v 2 8 -13
v 2 11 -13
v 2 16 -13
v 6 3 -13
v 6 8 -13
v 6 11 -13
v 6 16 -13
v 10 3 -13
v 10 8 -13
v 10 11 -13
v 10 16 -13
v 14 3 -13
v 14 8 -13
v 14 11 -13
v 14 16 -13
v 15 21 -13
v 15 22 -13
v -15 0 -14
v -15 19 -14
v -15 20 -14
v -15 21 -14
v -14 3 -14
v -14 8 -14
v -14 11 -14
v -14 16 -14
v -10 3 -14
v -10 8 -14
v -10 11 -14
v -10 16 -14
v -6 0 -14
v -6 8 -14
v -6 11 -14
v -6 16 -14
v -2 0 -14
v -2 8 -14
v -2 11 -14
v -2 16 -14
v 2 3 -14
v 2 8 -14
v 2 11 -14
v 2 16 -14
v 6 3 -14
v 6 8 -14
v 6 11 -14
v 6 16 -14
v 10 3 -14
v 10 8 -14
v 10 11 -14
v 10 16 -14
v 14 3 -14
v 14 8 -14
v 14 11 -14
v 14 16 -14
v 15 0 -14
v 15 19 -14
v 15 20 -14
v 15 21 -14
v -15 19 -15
v -15 20 -15
v 15 19 -15
v 15 20 -15
v -15 0 14
v -6 0 14
v -2 0 14
v 15 0 14
v -14 0 13
v -6 0 13
v -2 0 13
v 14 0 13
v -14 0 -13
v -6 0 -13
v -2 0 -13
v 14 0 -13
v -15 0 -14
v -6 0 -14
v -2 0 -14
v 15 0 -14
v -14 8 14
v -10 8 14
v -6 8 14
v -2 8 14
v 2 8 14
v 6 8 14
v 10 8 14
v 14 8 14
v -14 8 13
v -10 8 13
v -6 8 13
v -2 8 13
v 2 8 13
v 6 8 13
v 10 8 13
v 14 8 13
v -14 8 -13
v -10 8 -13
v -6 8 -13
v -2 8 -13
v 2 8 -13
v 6 8 -13
v 10 8 -13
v 14 8 -13
v -14 8 -14
v -10 8 -14
v -6 8 -14
v -2 8 -14
v 2 8 -14
v 6 8 -14
v 10 8 -14
v 14 8 -14
v -14 16 14
v -10 16 14
v -6 16 14
v -2 16 14
v 2 16 14
v 6 16 14
v 10 16 14
v 14 16 14
v -14 16 13
v -10 16 13
v -6 16 13
v -2 16 13
v 2 16 13
v 6 16 13
v 10 16 13
v 14 16 13
v -14 16 -13
v -10 16 -13
v -6 16 -13
v -2 16 -13
v 2 16 -13
v 6 16 -13
v 10 16 -13
v 14 16 -13
v -14 16 -14
v -10 16 -14
v -6 16 -14
v -2 16 -14
v 2 16 -14
v 6 16 -14
v 10 16 -14
v 14 16 -14
v -15 19 15
v 15 19 15
v -15 19 14
v 15 19 14
v -15 19 -14
v 15 19 -14
v -15 19 -15
v 15 19 -15
v -14 3 14
v -10 3 14
v 2 3 14
v 6 3 14
v 10 3 14
v 14 3 14
v -14 3 13
v -10 3 13
v 2 3 13
v 6 3 13
v 10 3 13
v 14 3 13
v -14 3 -13
v -10 3 -13
v 2 3 -13
v 6 3 -13
v 10 3 -13
v 14 3 -13
v -14 3 -14
v -10 3 -14
v 2 3 -14
v 6 3 -14
v 10 3 -14
v 14 3 -14
v -14 11 14
v -10 11 14
v -6 11 14
v -2 11 14
v 2 11 14
v 6 11 14
v 10 11 14
v 14 11 14
v -14 11 13
v -10 11 13
v -6 11 13
v -2 11 13
v 2 11 13
v 6 11 13
v 10 11 13
v 14 11 13
v -14 11 -13
v -10 11 -13
v -6 11 -13
v -2 11 -13
v 2 11 -13
v 6 11 -13
v 10 11 -13
v 14 11 -13
v -14 11 -14
v -10 11 -14
v -6 11 -14
v -2 11 -14
v 2 11 -14
v 6 11 -14
v 10 11 -14
v 14 11 -14
v -15 20 15
v 15 20 15
v -15 20 14
v 15 20 14
v -15 20 -14
v 15 20 -14
v -15 20 -15
v 15 20 -15
v -15 21 14
v 15 21 14
v -15 21 13
v 15 21 13
v -15 21 -13
v 15 21 -13
v -15 21 -14
v 15 21 -14
v -15 22 13
v 15 22 13
v -15 22 12
v 15 22 12
v -15 22 -12
v 15 22 -12
v -15 22 -13
v 15 22 -13
v -15 23 12
v 15 23 12
v -15 23 11
v 15 23 11
v -15 23 -11
v 15 23 -11
v -15 23 -12
v 15 23 -12
v -15 24 11
v 15 24 11
v -15 24 10
v 15 24 10
v -15 24 -10
v 15 24 -10
v -15 24 -11
v 15 24 -11
v -15 25 10
v 15 25 10
v -15 25 9
v 15 25 9
v -15 25 -9
v 15 25 -9
v -15 25 -10
v 15 25 -10
v -15 26 9
v 15 26 9
v -15 26 8
v 15 26 8
v -15 26 -8
v 15 26 -8
v -15 26 -9
v 15 26 -9
v -15 27 8
v 15 27 8
v -15 27 7
v 15 27 7
v -15 27 -7
v 15 27 -7
v -15 27 -8
v 15 27 -8
v -15 28 7
v 15 28 7
v -15 28 6
v 15 28 6
v -15 28 -6
v 15 28 -6
v -15 28 -7
v 15 28 -7
v -15 29 6
v 15 29 6
v -15 29 5
v 15 29 5
v -15 29 -5
v 15 29 -5
v -15 29 -6
v 15 29 -6
v -15 30 5
v 15 30 5
v -15 30 -5
v 15 30 -5

# faces
f 4/3/1 2/3/1 1/3/1
f 5/3/1 2/3/1 4/3/1
f 7/1/1 4/1/1 3/1/1
f 8/3/1 5/3/1 4/3/1
f 8/1/1 4/1/1 7/1/1
f 9/3/1 5/3/1 8/3/1
f 10/3/1 5/3/1 9/3/1
f 11/1/1 6/1/1 5/1/1
f 11/3/1 5/3/1 10/3/1
f 12/1/1 6/1/1 11/1/1
f 13/1/1 9/1/1 8/1/1
f 14/3/1 10/3/1 9/3/1
f 14/1/1 9/1/1 13/1/1
f 15/3/1 10/3/1 14/3/1
f 16/3/1 10/3/1 15/3/1
f 17/1/1 11/1/1 10/1/1
f 17/3/1 10/3/1 16/3/1
f 18/1/1 11/1/1 17/1/1
f 19/1/1 15/1/1 14/1/1
f 20/3/1 16/3/1 15/3/1
f 20/1/1 15/1/1 19/1/1
f 21/3/1 16/3/1 20/3/1
f 22/3/1 16/3/1 21/3/1
f 23/1/1 17/1/1 16/1/1
f 23/3/1 16/3/1 22/3/1
f 24/1/1 17/1/1 23/1/1
f 25/1/1 21/1/1 20/1/1
f 26/3/1 22/3/1 21/3/1
f 26/1/1 21/1/1 25/1/1
f 27/3/1 22/3/1 26/3/1
f 28/3/1 22/3/1 27/3/1
f 29/1/1 23/1/1 22/1/1
f 29/3/1 22/3/1 28/3/1
f 30/1/1 23/1/1 29/1/1
f 31/1/1 27/1/1 26/1/1
f 32/3/1 28/3/1 27/3/1
f 32/1/1 27/1/1 31/1/1
f 33/3/1 28/3/1 32/3/1
f 34/3/1 28/3/1 33/3/1
f 35/1/1 29/1/1 28/1/1
f 35/3/1 28/3/1 34/3/1
f 36/1/1 29/1/1 35/1/1
f 37/1/1 33/1/1 32/1/1
f 38/3/1 34/3/1 33/3/1
f 38/1/1 33/1/1 37/1/1
f 39/3/1 34/3/1 38/3/1
f 40/3/1 34/3/1 39/3/1
f 41/1/1 35/1/1 34/1/1
f 41/3/1 34/3/1 40/3/1
f 42/1/1 35/1/1 41/1/1
f 43/1/1 39/1/1 38/1/1
f 44/3/1 40/3/1 39/3/1
f 44/1/1 39/1/1 43/1/1
f 45/3/1 40/3/1 44/3/1
f 46/3/1 40/3/1 45/3/1
f 47/1/1 41/1/1 40/1/1
f 47/3/1 40/3/1 46/3/1
f 48/1/1 41/1/1 47/1/1
f 49/1/1 45/1/1 44/1/1
f 50/3/1 46/3/1 45/3/1
f 50/1/1 45/1/1 49/1/1
f 51/3/1 46/3/1 50/3/1
f 52/3/1 46/3/1 51/3/1
f 53/1/1 47/1/1 46/1/1
f 53/3/1 46/3/1 52/3/1
f 54/1/1 47/1/1 53/1/1
f 55/1/1 51/1/1 50/1/1
f 56/3/1 52/3/1 51/3/1
f 56/1/1 51/1/1 55/1/1
f 57/3/1 52/3/1 56/3/1
f 58/3/1 52/3/1 57/3/1
f 59/1/1 53/1/1 52/1/1
f 59/3/1 52/3/1 58/3/1
f 60/1/1 53/1/1 59/1/1
f 61/1/1 57/1/1 56/1/1
f 62/3/1 58/3/1 57/3/1
f 62/1/1 57/1/1 61/1/1
f 63/1/1 59/1/1 58/1/1
f 63/3/1 58/3/1 62/3/1
f 64/1/1 59/1/1 63/1/1
f 65/1/1 63/1/1 62/1/1
f 66/1/1 63/1/1 65/1/1
f 71/3/1 68/3/1 67/3/1
f 72/3/1 68/3/1 71/3/1
f 73/3/1 70/3/1 69/3/1
f 74/3/1 70/3/1 73/3/1
f 79/3/1 76/3/1 75/3/1
f 80/3/1 76/3/1 79/3/1
f 81/3/1 78/3/1 77/3/1
f 82/3/1 78/3/1 81/3/1
f 87/3/1 84/3/1 83/3/1
f 88/3/1 84/3/1 87/3/1
f 89/3/1 86/3/1 85/3/1
f 90/3/1 86/3/1 89/3/1
f 95/3/1 92/3/1 91/3/1
f 96/3/1 92/3/1 95/3/1
f 97/3/1 94/3/1 93/3/1
f 98/3/1 94/3/1 97/3/1
f 103/3/1 100/3/1 99/3/1
f 104/3/1 100/3/1 103/3/1
f 105/3/1 102/3/1 101/3/1
f 106/3/1 102/3/1 105/3/1
f 111/3/1 108/3/1 107/3/1
f 112/3/1 108/3/1 111/3/1
f 113/3/1 110/3/1 109/3/1
f 114/3/1 110/3/1 113/3/1
f 119/3/1 116/3/1 115/3/1
f 120/3/1 116/3/1 119/3/1
f 121/3/1 118/3/1 117/3/1
f 122/3/1 118/3/1 121/3/1
f 127/3/1 124/3/1 123/3/1
f 128/3/1 124/3/1 127/3/1
f 129/3/1 126/3/1 125/3/1
f 130/3/1 126/3/1 129/3/1
f 131/3/2 132/3/2 135/3/2
f 135/3/2 132/3/2 136/3/2
f 133/3/2 134/3/2 137/3/2
f 137/3/2 134/3/2 138/3/2
f 139/3/2 140/3/2 143/3/2
f 143/3/2 140/3/2 144/3/2
f 141/3/2 142/3/2 145/3/2
f 145/3/2 142/3/2 146/3/2
f 147/3/2 148/3/2 151/3/2
f 151/3/2 148/3/2 152/3/2
f 149/3/2 150/3/2 153/3/2
f 153/3/2 150/3/2 154/3/2
f 155/3/2 156/3/2 159/3/2
f 159/3/2 156/3/2 160/3/2
f 157/3/2 158/3/2 161/3/2
f 161/3/2 158/3/2 162/3/2
f 163/3/2 164/3/2 167/3/2
f 167/3/2 164/3/2 168/3/2
f 165/3/2 166/3/2 169/3/2
f 169/3/2 166/3/2 170/3/2
f 171/3/2 172/3/2 175/3/2
f 175/3/2 172/3/2 176/3/2
f 173/3/2 174/3/2 177/3/2
f 177/3/2 174/3/2 178/3/2
f 179/3/2 180/3/2 183/3/2
f 183/3/2 180/3/2 184/3/2
f 181/3/2 182/3/2 185/3/2
f 185/3/2 182/3/2 186/3/2
f 187/3/2 188/3/2 191/3/2
f 191/3/2 188/3/2 192/3/2
f 189/3/2 190/3/2 193/3/2
f 193/3/2 190/3/2 194/3/2
f 195/3/2 196/3/2 198/3/2
f 198/3/2 196/3/2 199/3/2
f 197/1/2 198/1/2 201/1/2
f 198/3/2 199/3/2 202/3/2
f 201/1/2 198/1/2 202/1/2
f 202/3/2 199/3/2 203/3/2
f 203/3/2 199/3/2 204/3/2
f 199/1/2 200/1/2 205/1/2
f 204/3/2 199/3/2 205/3/2
f 205/1/2 200/1/2 206/1/2
f 202/1/2 203/1/2 207/1/2
f 203/3/2 204/3/2 208/3/2
f 207/1/2 203/1/2 208/1/2
f 208/3/2 204/3/2 209/3/2
f 209/3/2 204/3/2 210/3/2
f 204/1/2 205/1/2 211/1/2
f 210/3/2 204/3/2 211/3/2
f 211/1/2 205/1/2 212/1/2
f 208/1/2 209/1/2 213/1/2
f 209/3/2 210/3/2 214/3/2
f 213/1/2 209/1/2 214/1/2
f 214/3/2 210/3/2 215/3/2
f 215/3/2 210/3/2 216/3/2
f 210/1/2 211/1/2 217/1/2
f 216/3/2 210/3/2 217/3/2
f 217/1/2 211/1/2 218/1/2
f 214/1/2 215/1/2 219/1/2
f 215/3/2 216/3/2 220/3/2
f 219/1/2 215/1/2 220/1/2
f 220/3/2 216/3/2 221/3/2
f 221/3/2 216/3/2 222/3/2
f 216/1/2 217/1/2 223/1/2
f 222/3/2 216/3/2 223/3/2
f 223/1/2 217/1/2 224/1/2
f 220/1/2 221/1/2 225/1/2
f 221/3/2 222/3/2 226/3/2
f 225/1/2 221/1/2 226/1/2
f 226/3/2 222/3/2 227/3/2
f 227/3/2 222/3/2 228/3/2
f 222/1/2 223/1/2 229/1/2
f 228/3/2 222/3/2 229/3/2
f 229/1/2 223/1/2 230/1/2
f 226/1/2 227/1/2 231/1/2
f 227/3/2 228/3/2 232/3/2
f 231/1/2 227/1/2 232/1/2
f 232/3/2 228/3/2 233/3/2
f 233/3/2 228/3/2 234/3/2
f 228/1/2 229/1/2 235/1/2
f 234/3/2 228/3/2 235/3/2
f 235/1/2 229/1/2 236/1/2
f 232/1/2 233/1/2 237/1/2
f 233/3/2 234/3/2 238/3/2
f 237/1/2 233/1/2 238/1/2
f 238/3/2 234/3/2 239/3/2
f 239/3/2 234/3/2 240/3/2
f 234/1/2 235/1/2 241/1/2
f 240/3/2 234/3/2 241/3/2
f 241/1/2 235/1/2 242/1/2
f 238/1/2 239/1/2 243/1/2
f 239/3/2 240/3/2 244/3/2
f 243/1/2 239/1/2 244/1/2
f 244/3/2 240/3/2 245/3/2
f 245/3/2 240/3/2 246/3/2
f 240/1/2 241/1/2 247/1/2
f 246/3/2 240/3/2 247/3/2
f 247/1/2 241/1/2 248/1/2
f 244/1/2 245/1/2 249/1/2
f 245/3/2 246/3/2 250/3/2
f 249/1/2 245/1/2 250/1/2
f 250/3/2 246/3/2 251/3/2
f 251/3/2 246/3/2 252/3/2
f 246/1/2 247/1/2 253/1/2
f 252/3/2 246/3/2 253/3/2
f 253/1/2 247/1/2 254/1/2
f 250/1/2 251/1/2 255/1/2
f 251/3/2 252/3/2 256/3/2
f 255/1/2 251/1/2 256/1/2
f 252/1/2 253/1/2 257/1/2
f 256/3/2 252/3/2 257/3/2
f 257/1/2 253/1/2 258/1/2
f 256/1/2 257/1/2 259/1/2
f 259/1/2 257/1/2 260/1/2
f 263/1/3 262/1/3 261/1/3
f 264/1/3 262/1/3 263/1/3
f 269/3/3 266/3/3 265/3/3
f 270/3/3 266/3/3 269/3/3
f 271/3/3 266/3/3 270/3/3
f 272/3/3 266/3/3 271/3/3
f 273/3/3 269/3/3 265/3/3
f 274/3/3 271/3/3 270/3/3
f 275/3/3 271/3/3 274/3/3
f 276/3/3 266/3/3 272/3/3
f 277/3/3 275/3/3 274/3/3
f 277/3/3 276/3/3 275/3/3
f 277/3/3 273/3/3 265/3/3
f 277/3/3 274/3/3 273/3/3
f 278/3/3 276/3/3 277/3/3
f 279/3/3 276/3/3 278/3/3
f 280/3/3 266/3/3 276/3/3
f 280/3/3 276/3/3 279/3/3
f 282/3/3 279/3/3 278/3/3
f 283/3/3 279/3/3 282/3/3
f 284/3/3 266/3/3 280/3/3
f 285/3/3 283/3/3 282/3/3
f 285/3/3 284/3/3 283/3/3
f 285/3/3 282/3/3 281/3/3
f 286/3/3 284/3/3 285/3/3
f 287/3/3 284/3/3 286/3/3
f 288/3/3 266/3/3 284/3/3
f 288/3/3 284/3/3 287/3/3
f 289/3/3 285/3/3 281/3/3
f 290/3/3 287/3/3 286/3/3
f 291/3/3 287/3/3 290/3/3
f 292/3/3 266/3/3 288/3/3
f 293/3/3 289/3/3 281/3/3
f 293/3/3 292/3/3 291/3/3
f 293/3/3 291/3/3 290/3/3
f 293/3/3 290/3/3 289/3/3
f 294/3/3 292/3/3 293/3/3
f 295/3/3 292/3/3 294/3/3
f 296/3/3 266/3/3 292/3/3
f 296/3/3 292/3/3 295/3/3
f 297/3/3 293/3/3 281/3/3
f 298/3/3 295/3/3 294/3/3
f 299/3/3 295/3/3 298/3/3
f 300/3/3 266/3/3 296/3/3
f 301/3/3 297/3/3 281/3/3
f 301/3/3 300/3/3 299/3/3
f 301/3/3 299/3/3 298/3/3
f 301/3/3 298/3/3 297/3/3
f 302/3/3 266/3/3 300/3/3
f 302/3/3 300/3/3 301/3/3
f 303/1/3 268/1/3 267/1/3
f 304/1/3 268/1/3 303/1/3
f 311/5/3 308/5/3 307/5/3
f 312/5/3 308/5/3 311/5/3
f 313/5/3 310/5/3 309/5/3
f 314/5/3 310/5/3 313/5/3
f 319/5/3 316/5/3 315/5/3
f 320/5/3 316/5/3 319/5/3
f 321/5/3 318/5/3 317/5/3
f 322/5/3 318/5/3 321/5/3
f 327/5/3 324/5/3 323/5/3
f 328/5/3 324/5/3 327/5/3
f 329/5/3 326/5/3 325/5/3
f 330/5/3 326/5/3 329/5/3
f 335/5/3 332/5/3 331/5/3
f 336/5/3 332/5/3 335/5/3
f 337/5/3 334/5/3 333/5/3
f 338/5/3 334/5/3 337/5/3
f 339/1/3 306/1/3 305/1/3
f 340/1/3 306/1/3 339/1/3
f 343/1/3 342/1/3 341/1/3
f 344/1/3 342/1/3 343/1/3
f 347/1/3 346/1/3 345/1/3
f 348/1/3 346/1/3 347/1/3
f 351/1/3 350/1/3 349/1/3
f 352/1/3 350/1/3 351/1/3
f 355/1/3 354/1/3 353/1/3
f 356/1/3 354/1/3 355/1/3
f 359/1/3 358/1/3 357/1/3
f 360/1/3 358/1/3 359/1/3
f 363/1/3 362/1/3 361/1/3
f 364/1/3 362/1/3 363/1/3
f 367/1/3 366/1/3 365/1/3
f 368/1/3 366/1/3 367/1/3
f 371/1/3 370/1/3 369/1/3
f 372/1/3 370/1/3 371/1/3
f 373/1/4 374/1/4 375/1/4
f 375/1/4 374/1/4 376/1/4
f 377/1/4 378/1/4 379/1/4
f 379/1/4 378/1/4 380/1/4
f 381/1/4 382/1/4 383/1/4
f 383/1/4 382/1/4 384/1/4
f 385/1/4 386/1/4 387/1/4
f 387/1/4 386/1/4 388/1/4
f 389/1/4 390/1/4 391/1/4
f 391/1/4 390/1/4 392/1/4
f 393/1/4 394/1/4 395/1/4
f 395/1/4 394/1/4 396/1/4
f 397/1/4 398/1/4 399/1/4
f 399/1/4 398/1/4 400/1/4
f 401/1/4 402/1/4 403/1/4
f 403/1/4 402/1/4 404/1/4
f 407/5/4 408/5/4 411/5/4
f 411/5/4 408/5/4 412/5/4
f 409/5/4 410/5/4 413/5/4
f 413/5/4 410/5/4 414/5/4
f 415/5/4 416/5/4 419/5/4
f 419/5/4 416/5/4 420/5/4
f 417/5/4 418/5/4 421/5/4
f 421/5/4 418/5/4 422/5/4
f 423/5/4 424/5/4 427/5/4
f 427/5/4 424/5/4 428/5/4
f 425/5/4 426/5/4 429/5/4
f 429/5/4 426/5/4 430/5/4
f 431/5/4 432/5/4 435/5/4
f 435/5/4 432/5/4 436/5/4
f 433/5/4 434/5/4 437/5/4
f 437/5/4 434/5/4 438/5/4
f 405/1/4 406/1/4 439/1/4
f 439/1/4 406/1/4 440/1/4
f 441/3/4 442/3/4 445/3/4
f 445/3/4 442/3/4 446/3/4
f 446/3/4 442/3/4 447/3/4
f 447/3/4 442/3/4 448/3/4
f 441/3/4 445/3/4 449/3/4
f 446/3/4 447/3/4 450/3/4
f 450/3/4 447/3/4 451/3/4
f 448/3/4 442/3/4 452/3/4
f 450/3/4 451/3/4 453/3/4
f 451/3/4 452/3/4 453/3/4
f 441/3/4 449/3/4 453/3/4
f 449/3/4 450/3/4 453/3/4
f 453/3/4 452/3/4 454/3/4
f 454/3/4 452/3/4 455/3/4
f 452/3/4 442/3/4 456/3/4
f 455/3/4 452/3/4 456/3/4
f 454/3/4 455/3/4 458/3/4
f 458/3/4 455/3/4 459/3/4
f 456/3/4 442/3/4 460/3/4
f 458/3/4 459/3/4 461/3/4
f 459/3/4 460/3/4 461/3/4
f 457/3/4 458/3/4 461/3/4
f 461/3/4 460/3/4 462/3/4
f 462/3/4 460/3/4 463/3/4
f 460/3/4 442/3/4 464/3/4
f 463/3/4 460/3/4 464/3/4
f 457/3/4 461/3/4 465/3/4
f 462/3/4 463/3/4 466/3/4
f 466/3/4 463/3/4 467/3/4
f 464/3/4 442/3/4 468/3/4
f 457/3/4 465/3/4 469/3/4
f 467/3/4 468/3/4 469/3/4
f 466/3/4 467/3/4 469/3/4
f 465/3/4 466/3/4 469/3/4
f 469/3/4 468/3/4 470/3/4
f 470/3/4 468/3/4 471/3/4
f 468/3/4 442/3/4 472/3/4
f 471/3/4 468/3/4 472/3/4
f 457/3/4 469/3/4 473/3/4
f 470/3/4 471/3/4 474/3/4
f 474/3/4 471/3/4 475/3/4
f 472/3/4 442/3/4 476/3/4
f 457/3/4 473/3/4 477/3/4
f 475/3/4 476/3/4 477/3/4
f 474/3/4 475/3/4 477/3/4
f 473/3/4 474/3/4 477/3/4
f 476/3/4 442/3/4 478/3/4
f 477/3/4 476/3/4 478/3/4
f 443/1/4 444/1/4 479/1/4
f 479/1/4 444/1/4 480/1/4
f 481/1/4 482/1/4 483/1/4
f 483/1/4 482/1/4 484/1/4
f 489/3/5 486/3/5 485/3/5
f 490/3/5 486/3/5 489/3/5
f 491/3/5 488/3/5 487/3/5
f 492/3/5 488/3/5 491/3/5
f 493/5/5 490/5/5 489/5/5
f 493/3/5 489/3/5 485/3/5
f 493/5/5 492/5/5 491/5/5
f 493/5/5 491/5/5 490/5/5
f 494/5/5 492/5/5 493/5/5
f 495/5/5 492/5/5 494/5/5
f 496/3/5 488/3/5 492/3/5
f 496/5/5 492/5/5 495/5/5
f 497/3/5 493/3/5 485/3/5
f 497/3/5 494/3/5 493/3/5
f 498/3/5 494/3/5 497/3/5
f 499/3/5 496/3/5 495/3/5
f 500/3/5 488/3/5 496/3/5
f 500/3/5 496/3/5 499/3/5
f 509/3/5 502/3/5 501/3/5
f 510/3/5 502/3/5 509/3/5
f 511/3/5 504/3/5 503/3/5
f 512/3/5 504/3/5 511/3/5
f 513/3/5 506/3/5 505/3/5
f 514/3/5 506/3/5 513/3/5
f 515/3/5 508/3/5 507/3/5
f 516/3/5 508/3/5 515/3/5
f 525/3/5 518/3/5 517/3/5
f 526/3/5 518/3/5 525/3/5
f 527/3/5 520/3/5 519/3/5
f 528/3/5 520/3/5 527/3/5
f 529/3/5 522/3/5 521/3/5
f 530/3/5 522/3/5 529/3/5
f 531/3/5 524/3/5 523/3/5
f 532/3/5 524/3/5 531/3/5
f 541/3/5 534/3/5 533/3/5
f 542/3/5 534/3/5 541/3/5
f 543/3/5 536/3/5 535/3/5
f 544/3/5 536/3/5 543/3/5
f 545/3/5 538/3/5 537/3/5
f 546/3/5 538/3/5 545/3/5
f 547/3/5 540/3/5 539/3/5
f 548/3/5 540/3/5 547/3/5
f 557/3/5 550/3/5 549/3/5
f 558/3/5 550/3/5 557/3/5
f 559/3/5 552/3/5 551/3/5
f 560/3/5 552/3/5 559/3/5
f 561/3/5 554/3/5 553/3/5
f 562/3/5 554/3/5 561/3/5
f 563/3/5 556/3/5 555/3/5
f 564/3/5 556/3/5 563/3/5
f 567/1/5 566/1/5 565/1/5
f 568/1/5 566/1/5 567/1/5
f 571/1/5 570/1/5 569/1/5
f 572/1/5 570/1/5 571/1/5
f 573/3/6 574/3/6 579/3/6
f 579/3/6 574/3/6 580/3/6
f 575/3/6 576/3/6 581/3/6
f 581/3/6 576/3/6 582/3/6
f 577/3/6 578/3/6 583/3/6
f 583/3/6 578/3/6 584/3/6
f 585/3/6 586/3/6 591/3/6
f 591/3/6 586/3/6 592/3/6
f 587/3/6 588/3/6 593/3/6
f 593/3/6 588/3/6 594/3/6
f 589/3/6 590/3/6 595/3/6
f 595/3/6 590/3/6 596/3/6
f 597/3/6 598/3/6 605/3/6
f 605/3/6 598/3/6 606/3/6
f 599/3/6 600/3/6 607/3/6
f 607/3/6 600/3/6 608/3/6
f 601/3/6 602/3/6 609/3/6
f 609/3/6 602/3/6 610/3/6
f 603/3/6 604/3/6 611/3/6
f 611/3/6 604/3/6 612/3/6
f 613/3/6 614/3/6 621/3/6
f 621/3/6 614/3/6 622/3/6
f 615/3/6 616/3/6 623/3/6
f 623/3/6 616/3/6 624/3/6
f 617/3/6 618/3/6 625/3/6
f 625/3/6 618/3/6 626/3/6
f 619/3/6 620/3/6 627/3/6
f 627/3/6 620/3/6 628/3/6
f 629/1/6 630/1/6 631/1/6
f 631/1/6 630/1/6 632/1/6
f 633/1/6 634/1/6 635/1/6
f 635/1/6 634/1/6 636/1/6
f 637/1/6 638/1/6 639/1/6
f 639/1/6 638/1/6 640/1/6
f 641/1/6 642/1/6 643/1/6
f 643/1/6 642/1/6 644/1/6
f 645/1/6 646/1/6 647/1/6
f 647/1/6 646/1/6 648/1/6
f 649/1/6 650/1/6 651/1/6
f 651/1/6 650/1/6 652/1/6
f 653/1/6 654/1/6 655/1/6
f 655/1/6 654/1/6 656/1/6
f 657/1/6 658/1/6 659/1/6
f 659/1/6 658/1/6 660/1/6
f 661/1/6 662/1/6 663/1/6
f 663/1/6 662/1/6 664/1/6
f 665/1/6 666/1/6 667/1/6
f 667/1/6 666/1/6 668/1/6
f 669/1/6 670/1/6 671/1/6
f 671/1/6 670/1/6 672/1/6
f 673/1/6 674/1/6 675/1/6
f 675/1/6 674/1/6 676/1/6
f 677/1/6 678/1/6 679/1/6
f 679/1/6 678/1/6 680/1/6
f 681/1/6 682/1/6 683/1/6
f 683/1/6 682/1/6 684/1/6
f 685/1/6 686/1/6 687/1/6
f 687/1/6 686/1/6 688/1/6
f 689/1/6 690/1/6 691/1/6
f 691/1/6 690/1/6 692/1/6
f 693/1/6 694/1/6 695/1/6
f 695/1/6 694/1/6 696/1/6
f 697/1/6 698/1/6 699/1/6
f 699/1/6 698/1/6 700/1/6
f 701/1/6 702/1/6 703/1/6
f 703/1/6 702/1/6 704/1/6
f 705/1/6 706/1/6 707/1/6
f 707/1/6 706/1/6 708/1/6
f 709/1/6 710/1/6 711/1/6
f 711/1/6 710/1/6 712/1/6
