# MagicaVoxel @ Ephtracy

# material
mtllib House1.mtl
usemtl palette

# normals
vn -1 0 0
vn 1 0 0
vn 0 0 1
vn 0 0 -1
vn 0 -1 0
vn 0 1 0

# texcoords
vt 0.341797 0.5
vt 0.435547 0.5
vt 0.931641 0.5

# verts
v -15 0 14
v -15 0 -14
v -15 19 15
v -15 19 14
v -15 19 -14
v -15 19 -15
v -15 20 15
v -15 20 14
v -15 20 13
v -15 20 -13
v -15 20 -14
v -15 20 -15
v -15 21 14
v -15 21 13
v -15 21 12
v -15 21 -12
v -15 21 -13
v -15 21 -14
v -15 22 13
v -15 22 12
v -15 22 11
v -15 22 -11
v -15 22 -12
v -15 22 -13
v -15 23 12
v -15 23 11
v -15 23 10
v -15 23 -10
v -15 23 -11
v -15 23 -12
v -15 24 11
v -15 24 10
v -15 24 9
v -15 24 -9
v -15 24 -10
v -15 24 -11
v -15 25 10
v -15 25 9
v -15 25 8
v -15 25 -8
v -15 25 -9
v -15 25 -10
v -15 26 9
v -15 26 8
v -15 26 7
v -15 26 -7
v -15 26 -8
v -15 26 -9
v -15 27 8
v -15 27 7
v -15 27 6
v -15 27 -6
v -15 27 -7
v -15 27 -8
v -15 28 7
v -15 28 6
v -15 28 5
v -15 28 -5
v -15 28 -6
v -15 28 -7
v -15 29 6
v -15 29 5
v -15 29 -5
v -15 29 -6
v -15 30 5
v -15 30 -5
v -10 3 14
v -10 3 13
v -10 3 -13
v -10 3 -14
v -10 8 14
v -10 8 13
v -10 8 -13
v -10 8 -14
v -10 11 14
v -10 11 13
v -10 11 -13
v -10 11 -14
v -10 16 14
v -10 16 13
v -10 16 -13
v -10 16 -14
v -2 1 14
v -2 1 13
v -2 1 -13
v -2 1 -14
v -2 8 14
v -2 8 13
v -2 8 -13
v -2 8 -14
v -2 11 14
v -2 11 13
v -2 11 -13
v -2 11 -14
v -2 16 14
v -2 16 13
v -2 16 -13
v -2 16 -14
v 6 3 14
v 6 3 13
v 6 3 -13
v 6 3 -14
v 6 8 14
v 6 8 13
v 6 8 -13
v 6 8 -14
v 6 11 14
v 6 11 13
v 6 11 -13
v 6 11 -14
v 6 16 14
v 6 16 13
v 6 16 -13
v 6 16 -14
v 14 3 14
v 14 3 13
v 14 3 -13
v 14 3 -14
v 14 8 14
v 14 8 13
v 14 8 -13
v 14 8 -14
v 14 11 14
v 14 11 13
v 14 11 -13
v 14 11 -14
v 14 16 14
v 14 16 13
v 14 16 -13
v 14 16 -14
v -14 3 14
v -14 3 13
v -14 3 -13
v -14 3 -14
v -14 8 14
v -14 8 13
v -14 8 -13
v -14 8 -14
v -14 11 14
v -14 11 13
v -14 11 -13
v -14 11 -14
v -14 16 14
v -14 16 13
v -14 16 -13
v -14 16 -14
v -6 1 14
v -6 1 13
v -6 1 -13
v -6 1 -14
v -6 8 14
v -6 8 13
v -6 8 -13
v -6 8 -14
v -6 11 14
v -6 11 13
v -6 11 -13
v -6 11 -14
v -6 16 14
v -6 16 13
v -6 16 -13
v -6 16 -14
v 2 3 14
v 2 3 13
v 2 3 -13
v 2 3 -14
v 2 8 14
v 2 8 13
v 2 8 -13
v 2 8 -14
v 2 11 14
v 2 11 13
v 2 11 -13
v 2 11 -14
v 2 16 14
v 2 16 13
v 2 16 -13
v 2 16 -14
v 10 3 14
v 10 3 13
v 10 3 -13
v 10 3 -14
v 10 8 14
v 10 8 13
v 10 8 -13
v 10 8 -14
v 10 11 14
v 10 11 13
v 10 11 -13
v 10 11 -14
v 10 16 14
v 10 16 13
v 10 16 -13
v 10 16 -14
v 15 0 14
v 15 0 -14
v 15 19 15
v 15 19 14
v 15 19 -14
v 15 19 -15
v 15 20 15
v 15 20 14
v 15 20 13
v 15 20 -13
v 15 20 -14
v 15 20 -15
v 15 21 14
v 15 21 13
v 15 21 12
v 15 21 -12
v 15 21 -13
v 15 21 -14
v 15 22 13
v 15 22 12
v 15 22 11
v 15 22 -11
v 15 22 -12
v 15 22 -13
v 15 23 12
v 15 23 11
v 15 23 10
v 15 23 -10
v 15 23 -11
v 15 23 -12
v 15 24 11
v 15 24 10
v 15 24 9
v 15 24 -9
v 15 24 -10
v 15 24 -11
v 15 25 10
v 15 25 9
v 15 25 8
v 15 25 -8
v 15 25 -9
v 15 25 -10
v 15 26 9
v 15 26 8
v 15 26 7
v 15 26 -7
v 15 26 -8
v 15 26 -9
v 15 27 8
v 15 27 7
v 15 27 6
v 15 27 -6
v 15 27 -7
v 15 27 -8
v 15 28 7
v 15 28 6
v 15 28 5
v 15 28 -5
v 15 28 -6
v 15 28 -7
v 15 29 6
v 15 29 5
v 15 29 -5
v 15 29 -6
v 15 30 5
v 15 30 -5
v -15 19 15
v -15 20 15
v 15 19 15
v 15 20 15
v -15 0 14
v -15 19 14
v -15 20 14
v -15 21 14
v -14 3 14
v -14 8 14
v -14 11 14
v -14 16 14
v -10 3 14
v -10 8 14
v -10 11 14
v -10 16 14
v -6 1 14
v -6 8 14
v -6 11 14
v -6 16 14
v -2 1 14
v -2 8 14
v -2 11 14
v -2 16 14
v 2 3 14
v 2 8 14
v 2 11 14
v 2 16 14
v 6 3 14
v 6 8 14
v 6 11 14
v 6 16 14
v 10 3 14
v 10 8 14
v 10 11 14
v 10 16 14
v 14 3 14
v 14 8 14
v 14 11 14
v 14 16 14
v 15 0 14
v 15 19 14
v 15 20 14
v 15 21 14
v -15 21 13
v -15 22 13
v -14 3 13
v -14 8 13
v -14 11 13
v -14 16 13
v -10 3 13
v -10 8 13
v -10 11 13
v -10 16 13
v -6 1 13
v -6 8 13
v -6 11 13
v -6 16 13
v -2 1 13
v -2 8 13
v -2 11 13
v -2 16 13
v 2 3 13
v 2 8 13
v 2 11 13
v 2 16 13
v 6 3 13
v 6 8 13
v 6 11 13
v 6 16 13
v 10 3 13
v 10 8 13
v 10 11 13
v 10 16 13
v 14 3 13
v 14 8 13
v 14 11 13
v 14 16 13
v 15 21 13
v 15 22 13
v -15 22 12
v -15 23 12
v 15 22 12
v 15 23 12
v -15 23 11
v -15 24 11
v 15 23 11
v 15 24 11
v -15 24 10
v -15 25 10
v 15 24 10
v 15 25 10
v -15 25 9
v -15 26 9
v 15 25 9
v 15 26 9
v -15 26 8
v -15 27 8
v 15 26 8
v 15 27 8
v -15 27 7
v -15 28 7
v 15 27 7
v 15 28 7
v -15 28 6
v -15 29 6
v 15 28 6
v 15 29 6
v -15 29 5
v -15 30 5
v 15 29 5
v 15 30 5
v -15 29 -5
v -15 30 -5
v 15 29 -5
v 15 30 -5
v -15 28 -6
v -15 29 -6
v 15 28 -6
v 15 29 -6
v -15 27 -7
v -15 28 -7
v 15 27 -7
v 15 28 -7
v -15 26 -8
v -15 27 -8
v 15 26 -8
v 15 27 -8
v -15 25 -9
v -15 26 -9
v 15 25 -9
v 15 26 -9
v -15 24 -10
v -15 25 -10
v 15 24 -10
v 15 25 -10
v -15 23 -11
v -15 24 -11
v 15 23 -11
v 15 24 -11
v -15 22 -12
v -15 23 -12
v 15 22 -12
v 15 23 -12
v -15 21 -13
v -15 22 -13
v -14 3 -13
v -14 8 -13
v -14 11 -13
v -14 16 -13
v -10 3 -13
v -10 8 -13
v -10 11 -13
v -10 16 -13
v -6 1 -13
v -6 8 -13
v -6 11 -13
v -6 16 -13
v -2 1 -13
v -2 8 -13
v -2 11 -13
v -2 16 -13
v 2 3 -13
v 2 8 -13
v 2 11 -13
v 2 16 -13
v 6 3 -13
v 6 8 -13
v 6 11 -13
v 6 16 -13
v 10 3 -13
v 10 8 -13
v 10 11 -13
v 10 16 -13
v 14 3 -13
v 14 8 -13
v 14 11 -13
v 14 16 -13
v 15 21 -13
v 15 22 -13
v -15 0 -14
v -15 19 -14
v -15 20 -14
v -15 21 -14
v -14 3 -14
v -14 8 -14
v -14 11 -14
v -14 16 -14
v -10 3 -14
v -10 8 -14
v -10 11 -14
v -10 16 -14
v -6 1 -14
v -6 8 -14
v -6 11 -14
v -6 16 -14
v -2 1 -14
v -2 8 -14
v -2 11 -14
v -2 16 -14
v 2 3 -14
v 2 8 -14
v 2 11 -14
v 2 16 -14
v 6 3 -14
v 6 8 -14
v 6 11 -14
v 6 16 -14
v 10 3 -14
v 10 8 -14
v 10 11 -14
v 10 16 -14
v 14 3 -14
v 14 8 -14
v 14 11 -14
v 14 16 -14
v 15 0 -14
v 15 19 -14
v 15 20 -14
v 15 21 -14
v -15 19 -15
v -15 20 -15
v 15 19 -15
v 15 20 -15
v -15 0 14
v 15 0 14
v -15 0 -14
v 15 0 -14
v -14 8 14
v -10 8 14
v -6 8 14
v -2 8 14
v 2 8 14
v 6 8 14
v 10 8 14
v 14 8 14
v -14 8 13
v -10 8 13
v -6 8 13
v -2 8 13
v 2 8 13
v 6 8 13
v 10 8 13
v 14 8 13
v -14 8 -13
v -10 8 -13
v -6 8 -13
v -2 8 -13
v 2 8 -13
v 6 8 -13
v 10 8 -13
v 14 8 -13
v -14 8 -14
v -10 8 -14
v -6 8 -14
v -2 8 -14
v 2 8 -14
v 6 8 -14
v 10 8 -14
v 14 8 -14
v -14 16 14
v -10 16 14
v -6 16 14
v -2 16 14
v 2 16 14
v 6 16 14
v 10 16 14
v 14 16 14
v -14 16 13
v -10 16 13
v -6 16 13
v -2 16 13
v 2 16 13
v 6 16 13
v 10 16 13
v 14 16 13
v -14 16 -13
v -10 16 -13
v -6 16 -13
v -2 16 -13
v 2 16 -13
v 6 16 -13
v 10 16 -13
v 14 16 -13
v -14 16 -14
v -10 16 -14
v -6 16 -14
v -2 16 -14
v 2 16 -14
v 6 16 -14
v 10 16 -14
v 14 16 -14
v -15 19 15
v 15 19 15
v -15 19 14
v 15 19 14
v -15 19 -14
v 15 19 -14
v -15 19 -15
v 15 19 -15
v -6 1 14
v -2 1 14
v -6 1 13
v -2 1 13
v -6 1 -13
v -2 1 -13
v -6 1 -14
v -2 1 -14
v -14 3 14
v -10 3 14
v 2 3 14
v 6 3 14
v 10 3 14
v 14 3 14
v -14 3 13
v -10 3 13
v 2 3 13
v 6 3 13
v 10 3 13
v 14 3 13
v -14 3 -13
v -10 3 -13
v 2 3 -13
v 6 3 -13
v 10 3 -13
v 14 3 -13
v -14 3 -14
v -10 3 -14
v 2 3 -14
v 6 3 -14
v 10 3 -14
v 14 3 -14
v -14 11 14
v -10 11 14
v -6 11 14
v -2 11 14
v 2 11 14
v 6 11 14
v 10 11 14
v 14 11 14
v -14 11 13
v -10 11 13
v -6 11 13
v -2 11 13
v 2 11 13
v 6 11 13
v 10 11 13
v 14 11 13
v -14 11 -13
v -10 11 -13
v -6 11 -13
v -2 11 -13
v 2 11 -13
v 6 11 -13
v 10 11 -13
v 14 11 -13
v -14 11 -14
v -10 11 -14
v -6 11 -14
v -2 11 -14
v 2 11 -14
v 6 11 -14
v 10 11 -14
v 14 11 -14
v -15 20 15
v 15 20 15
v -15 20 14
v 15 20 14
v -15 20 -14
v 15 20 -14
v -15 20 -15
v 15 20 -15
v -15 21 14
v 15 21 14
v -15 21 13
v 15 21 13
v -15 21 -13
v 15 21 -13
v -15 21 -14
v 15 21 -14
v -15 22 13
v 15 22 13
v -15 22 12
v 15 22 12
v -15 22 -12
v 15 22 -12
v -15 22 -13
v 15 22 -13
v -15 23 12
v 15 23 12
v -15 23 11
v 15 23 11
v -15 23 -11
v 15 23 -11
v -15 23 -12
v 15 23 -12
v -15 24 11
v 15 24 11
v -15 24 10
v 15 24 10
v -15 24 -10
v 15 24 -10
v -15 24 -11
v 15 24 -11
v -15 25 10
v 15 25 10
v -15 25 9
v 15 25 9
v -15 25 -9
v 15 25 -9
v -15 25 -10
v 15 25 -10
v -15 26 9
v 15 26 9
v -15 26 8
v 15 26 8
v -15 26 -8
v 15 26 -8
v -15 26 -9
v 15 26 -9
v -15 27 8
v 15 27 8
v -15 27 7
v 15 27 7
v -15 27 -7
v 15 27 -7
v -15 27 -8
v 15 27 -8
v -15 28 7
v 15 28 7
v -15 28 6
v 15 28 6
v -15 28 -6
v 15 28 -6
v -15 28 -7
v 15 28 -7
v -15 29 6
v 15 29 6
v -15 29 5
v 15 29 5
v -15 29 -5
v 15 29 -5
v -15 29 -6
v 15 29 -6
v -15 30 5
v 15 30 5
v -15 30 -5
v 15 30 -5

# faces
f 4/2/1 2/2/1 1/2/1
f 5/2/1 2/2/1 4/2/1
f 7/3/1 4/3/1 3/3/1
f 8/2/1 5/2/1 4/2/1
f 8/3/1 4/3/1 7/3/1
f 9/2/1 5/2/1 8/2/1
f 10/2/1 5/2/1 9/2/1
f 11/3/1 6/3/1 5/3/1
f 11/2/1 5/2/1 10/2/1
f 12/3/1 6/3/1 11/3/1
f 13/3/1 9/3/1 8/3/1
f 14/2/1 10/2/1 9/2/1
f 14/3/1 9/3/1 13/3/1
f 15/2/1 10/2/1 14/2/1
f 16/2/1 10/2/1 15/2/1
f 17/3/1 11/3/1 10/3/1
f 17/2/1 10/2/1 16/2/1
f 18/3/1 11/3/1 17/3/1
f 19/3/1 15/3/1 14/3/1
f 20/2/1 16/2/1 15/2/1
f 20/3/1 15/3/1 19/3/1
f 21/2/1 16/2/1 20/2/1
f 22/2/1 16/2/1 21/2/1
f 23/3/1 17/3/1 16/3/1
f 23/2/1 16/2/1 22/2/1
f 24/3/1 17/3/1 23/3/1
f 25/3/1 21/3/1 20/3/1
f 26/2/1 22/2/1 21/2/1
f 26/3/1 21/3/1 25/3/1
f 27/2/1 22/2/1 26/2/1
f 28/2/1 22/2/1 27/2/1
f 29/3/1 23/3/1 22/3/1
f 29/2/1 22/2/1 28/2/1
f 30/3/1 23/3/1 29/3/1
f 31/3/1 27/3/1 26/3/1
f 32/2/1 28/2/1 27/2/1
f 32/3/1 27/3/1 31/3/1
f 33/2/1 28/2/1 32/2/1
f 34/2/1 28/2/1 33/2/1
f 35/3/1 29/3/1 28/3/1
f 35/2/1 28/2/1 34/2/1
f 36/3/1 29/3/1 35/3/1
f 37/3/1 33/3/1 32/3/1
f 38/2/1 34/2/1 33/2/1
f 38/3/1 33/3/1 37/3/1
f 39/2/1 34/2/1 38/2/1
f 40/2/1 34/2/1 39/2/1
f 41/3/1 35/3/1 34/3/1
f 41/2/1 34/2/1 40/2/1
f 42/3/1 35/3/1 41/3/1
f 43/3/1 39/3/1 38/3/1
f 44/2/1 40/2/1 39/2/1
f 44/3/1 39/3/1 43/3/1
f 45/2/1 40/2/1 44/2/1
f 46/2/1 40/2/1 45/2/1
f 47/3/1 41/3/1 40/3/1
f 47/2/1 40/2/1 46/2/1
f 48/3/1 41/3/1 47/3/1
f 49/3/1 45/3/1 44/3/1
f 50/2/1 46/2/1 45/2/1
f 50/3/1 45/3/1 49/3/1
f 51/2/1 46/2/1 50/2/1
f 52/2/1 46/2/1 51/2/1
f 53/3/1 47/3/1 46/3/1
f 53/2/1 46/2/1 52/2/1
f 54/3/1 47/3/1 53/3/1
f 55/3/1 51/3/1 50/3/1
f 56/2/1 52/2/1 51/2/1
f 56/3/1 51/3/1 55/3/1
f 57/2/1 52/2/1 56/2/1
f 58/2/1 52/2/1 57/2/1
f 59/3/1 53/3/1 52/3/1
f 59/2/1 52/2/1 58/2/1
f 60/3/1 53/3/1 59/3/1
f 61/3/1 57/3/1 56/3/1
f 62/2/1 58/2/1 57/2/1
f 62/3/1 57/3/1 61/3/1
f 63/3/1 59/3/1 58/3/1
f 63/2/1 58/2/1 62/2/1
f 64/3/1 59/3/1 63/3/1
f 65/3/1 63/3/1 62/3/1
f 66/3/1 63/3/1 65/3/1
f 71/2/1 68/2/1 67/2/1
f 72/2/1 68/2/1 71/2/1
f 73/2/1 70/2/1 69/2/1
f 74/2/1 70/2/1 73/2/1
f 79/2/1 76/2/1 75/2/1
f 80/2/1 76/2/1 79/2/1
f 81/2/1 78/2/1 77/2/1
f 82/2/1 78/2/1 81/2/1
f 87/2/1 84/2/1 83/2/1
f 88/2/1 84/2/1 87/2/1
f 89/2/1 86/2/1 85/2/1
f 90/2/1 86/2/1 89/2/1
f 95/2/1 92/2/1 91/2/1
f 96/2/1 92/2/1 95/2/1
f 97/2/1 94/2/1 93/2/1
f 98/2/1 94/2/1 97/2/1
f 103/2/1 100/2/1 99/2/1
f 104/2/1 100/2/1 103/2/1
f 105/2/1 102/2/1 101/2/1
f 106/2/1 102/2/1 105/2/1
f 111/2/1 108/2/1 107/2/1
f 112/2/1 108/2/1 111/2/1
f 113/2/1 110/2/1 109/2/1
f 114/2/1 110/2/1 113/2/1
f 119/2/1 116/2/1 115/2/1
f 120/2/1 116/2/1 119/2/1
f 121/2/1 118/2/1 117/2/1
f 122/2/1 118/2/1 121/2/1
f 127/2/1 124/2/1 123/2/1
f 128/2/1 124/2/1 127/2/1
f 129/2/1 126/2/1 125/2/1
f 130/2/1 126/2/1 129/2/1
f 131/2/2 132/2/2 135/2/2
f 135/2/2 132/2/2 136/2/2
f 133/2/2 134/2/2 137/2/2
f 137/2/2 134/2/2 138/2/2
f 139/2/2 140/2/2 143/2/2
f 143/2/2 140/2/2 144/2/2
f 141/2/2 142/2/2 145/2/2
f 145/2/2 142/2/2 146/2/2
f 147/2/2 148/2/2 151/2/2
f 151/2/2 148/2/2 152/2/2
f 149/2/2 150/2/2 153/2/2
f 153/2/2 150/2/2 154/2/2
f 155/2/2 156/2/2 159/2/2
f 159/2/2 156/2/2 160/2/2
f 157/2/2 158/2/2 161/2/2
f 161/2/2 158/2/2 162/2/2
f 163/2/2 164/2/2 167/2/2
f 167/2/2 164/2/2 168/2/2
f 165/2/2 166/2/2 169/2/2
f 169/2/2 166/2/2 170/2/2
f 171/2/2 172/2/2 175/2/2
f 175/2/2 172/2/2 176/2/2
f 173/2/2 174/2/2 177/2/2
f 177/2/2 174/2/2 178/2/2
f 179/2/2 180/2/2 183/2/2
f 183/2/2 180/2/2 184/2/2
f 181/2/2 182/2/2 185/2/2
f 185/2/2 182/2/2 186/2/2
f 187/2/2 188/2/2 191/2/2
f 191/2/2 188/2/2 192/2/2
f 189/2/2 190/2/2 193/2/2
f 193/2/2 190/2/2 194/2/2
f 195/2/2 196/2/2 198/2/2
f 198/2/2 196/2/2 199/2/2
f 197/3/2 198/3/2 201/3/2
f 198/2/2 199/2/2 202/2/2
f 201/3/2 198/3/2 202/3/2
f 202/2/2 199/2/2 203/2/2
f 203/2/2 199/2/2 204/2/2
f 199/3/2 200/3/2 205/3/2
f 204/2/2 199/2/2 205/2/2
f 205/3/2 200/3/2 206/3/2
f 202/3/2 203/3/2 207/3/2
f 203/2/2 204/2/2 208/2/2
f 207/3/2 203/3/2 208/3/2
f 208/2/2 204/2/2 209/2/2
f 209/2/2 204/2/2 210/2/2
f 204/3/2 205/3/2 211/3/2
f 210/2/2 204/2/2 211/2/2
f 211/3/2 205/3/2 212/3/2
f 208/3/2 209/3/2 213/3/2
f 209/2/2 210/2/2 214/2/2
f 213/3/2 209/3/2 214/3/2
f 214/2/2 210/2/2 215/2/2
f 215/2/2 210/2/2 216/2/2
f 210/3/2 211/3/2 217/3/2
f 216/2/2 210/2/2 217/2/2
f 217/3/2 211/3/2 218/3/2
f 214/3/2 215/3/2 219/3/2
f 215/2/2 216/2/2 220/2/2
f 219/3/2 215/3/2 220/3/2
f 220/2/2 216/2/2 221/2/2
f 221/2/2 216/2/2 222/2/2
f 216/3/2 217/3/2 223/3/2
f 222/2/2 216/2/2 223/2/2
f 223/3/2 217/3/2 224/3/2
f 220/3/2 221/3/2 225/3/2
f 221/2/2 222/2/2 226/2/2
f 225/3/2 221/3/2 226/3/2
f 226/2/2 222/2/2 227/2/2
f 227/2/2 222/2/2 228/2/2
f 222/3/2 223/3/2 229/3/2
f 228/2/2 222/2/2 229/2/2
f 229/3/2 223/3/2 230/3/2
f 226/3/2 227/3/2 231/3/2
f 227/2/2 228/2/2 232/2/2
f 231/3/2 227/3/2 232/3/2
f 232/2/2 228/2/2 233/2/2
f 233/2/2 228/2/2 234/2/2
f 228/3/2 229/3/2 235/3/2
f 234/2/2 228/2/2 235/2/2
f 235/3/2 229/3/2 236/3/2
f 232/3/2 233/3/2 237/3/2
f 233/2/2 234/2/2 238/2/2
f 237/3/2 233/3/2 238/3/2
f 238/2/2 234/2/2 239/2/2
f 239/2/2 234/2/2 240/2/2
f 234/3/2 235/3/2 241/3/2
f 240/2/2 234/2/2 241/2/2
f 241/3/2 235/3/2 242/3/2
f 238/3/2 239/3/2 243/3/2
f 239/2/2 240/2/2 244/2/2
f 243/3/2 239/3/2 244/3/2
f 244/2/2 240/2/2 245/2/2
f 245/2/2 240/2/2 246/2/2
f 240/3/2 241/3/2 247/3/2
f 246/2/2 240/2/2 247/2/2
f 247/3/2 241/3/2 248/3/2
f 244/3/2 245/3/2 249/3/2
f 245/2/2 246/2/2 250/2/2
f 249/3/2 245/3/2 250/3/2
f 250/2/2 246/2/2 251/2/2
f 251/2/2 246/2/2 252/2/2
f 246/3/2 247/3/2 253/3/2
f 252/2/2 246/2/2 253/2/2
f 253/3/2 247/3/2 254/3/2
f 250/3/2 251/3/2 255/3/2
f 251/2/2 252/2/2 256/2/2
f 255/3/2 251/3/2 256/3/2
f 252/3/2 253/3/2 257/3/2
f 256/2/2 252/2/2 257/2/2
f 257/3/2 253/3/2 258/3/2
f 256/3/2 257/3/2 259/3/2
f 259/3/2 257/3/2 260/3/2
f 263/3/3 262/3/3 261/3/3
f 264/3/3 262/3/3 263/3/3
f 269/2/3 266/2/3 265/2/3
f 270/2/3 266/2/3 269/2/3
f 271/2/3 266/2/3 270/2/3
f 272/2/3 266/2/3 271/2/3
f 273/2/3 269/2/3 265/2/3
f 274/2/3 271/2/3 270/2/3
f 275/2/3 271/2/3 274/2/3
f 276/2/3 266/2/3 272/2/3
f 277/2/3 275/2/3 274/2/3
f 277/2/3 276/2/3 275/2/3
f 277/2/3 273/2/3 265/2/3
f 277/2/3 274/2/3 273/2/3
f 278/2/3 276/2/3 277/2/3
f 279/2/3 276/2/3 278/2/3
f 280/2/3 266/2/3 276/2/3
f 280/2/3 276/2/3 279/2/3
f 281/2/3 277/2/3 265/2/3
f 282/2/3 279/2/3 278/2/3
f 283/2/3 279/2/3 282/2/3
f 284/2/3 266/2/3 280/2/3
f 285/2/3 283/2/3 282/2/3
f 285/2/3 284/2/3 283/2/3
f 285/2/3 282/2/3 281/2/3
f 286/2/3 284/2/3 285/2/3
f 287/2/3 284/2/3 286/2/3
f 288/2/3 266/2/3 284/2/3
f 288/2/3 284/2/3 287/2/3
f 289/2/3 285/2/3 281/2/3
f 290/2/3 287/2/3 286/2/3
f 291/2/3 287/2/3 290/2/3
f 292/2/3 266/2/3 288/2/3
f 293/2/3 289/2/3 281/2/3
f 293/2/3 292/2/3 291/2/3
f 293/2/3 291/2/3 290/2/3
f 293/2/3 290/2/3 289/2/3
f 294/2/3 292/2/3 293/2/3
f 295/2/3 292/2/3 294/2/3
f 296/2/3 266/2/3 292/2/3
f 296/2/3 292/2/3 295/2/3
f 297/2/3 293/2/3 281/2/3
f 298/2/3 295/2/3 294/2/3
f 299/2/3 295/2/3 298/2/3
f 300/2/3 266/2/3 296/2/3
f 301/2/3 281/2/3 265/2/3
f 301/2/3 300/2/3 299/2/3
f 301/2/3 297/2/3 281/2/3
f 301/2/3 299/2/3 298/2/3
f 301/2/3 298/2/3 297/2/3
f 302/2/3 266/2/3 300/2/3
f 302/2/3 300/2/3 301/2/3
f 303/3/3 268/3/3 267/3/3
f 304/3/3 268/3/3 303/3/3
f 311/1/3 308/1/3 307/1/3
f 312/1/3 308/1/3 311/1/3
f 313/1/3 310/1/3 309/1/3
f 314/1/3 310/1/3 313/1/3
f 319/1/3 316/1/3 315/1/3
f 320/1/3 316/1/3 319/1/3
f 321/1/3 318/1/3 317/1/3
f 322/1/3 318/1/3 321/1/3
f 327/1/3 324/1/3 323/1/3
f 328/1/3 324/1/3 327/1/3
f 329/1/3 326/1/3 325/1/3
f 330/1/3 326/1/3 329/1/3
f 335/1/3 332/1/3 331/1/3
f 336/1/3 332/1/3 335/1/3
f 337/1/3 334/1/3 333/1/3
f 338/1/3 334/1/3 337/1/3
f 339/3/3 306/3/3 305/3/3
f 340/3/3 306/3/3 339/3/3
f 343/3/3 342/3/3 341/3/3
f 344/3/3 342/3/3 343/3/3
f 347/3/3 346/3/3 345/3/3
f 348/3/3 346/3/3 347/3/3
f 351/3/3 350/3/3 349/3/3
f 352/3/3 350/3/3 351/3/3
f 355/3/3 354/3/3 353/3/3
f 356/3/3 354/3/3 355/3/3
f 359/3/3 358/3/3 357/3/3
f 360/3/3 358/3/3 359/3/3
f 363/3/3 362/3/3 361/3/3
f 364/3/3 362/3/3 363/3/3
f 367/3/3 366/3/3 365/3/3
f 368/3/3 366/3/3 367/3/3
f 371/3/3 370/3/3 369/3/3
f 372/3/3 370/3/3 371/3/3
f 373/3/4 374/3/4 375/3/4
f 375/3/4 374/3/4 376/3/4
f 377/3/4 378/3/4 379/3/4
f 379/3/4 378/3/4 380/3/4
f 381/3/4 382/3/4 383/3/4
f 383/3/4 382/3/4 384/3/4
f 385/3/4 386/3/4 387/3/4
f 387/3/4 386/3/4 388/3/4
f 389/3/4 390/3/4 391/3/4
f 391/3/4 390/3/4 392/3/4
f 393/3/4 394/3/4 395/3/4
f 395/3/4 394/3/4 396/3/4
f 397/3/4 398/3/4 399/3/4
f 399/3/4 398/3/4 400/3/4
f 401/3/4 402/3/4 403/3/4
f 403/3/4 402/3/4 404/3/4
f 407/1/4 408/1/4 411/1/4
f 411/1/4 408/1/4 412/1/4
f 409/1/4 410/1/4 413/1/4
f 413/1/4 410/1/4 414/1/4
f 415/1/4 416/1/4 419/1/4
f 419/1/4 416/1/4 420/1/4
f 417/1/4 418/1/4 421/1/4
f 421/1/4 418/1/4 422/1/4
f 423/1/4 424/1/4 427/1/4
f 427/1/4 424/1/4 428/1/4
f 425/1/4 426/1/4 429/1/4
f 429/1/4 426/1/4 430/1/4
f 431/1/4 432/1/4 435/1/4
f 435/1/4 432/1/4 436/1/4
f 433/1/4 434/1/4 437/1/4
f 437/1/4 434/1/4 438/1/4
f 405/3/4 406/3/4 439/3/4
f 439/3/4 406/3/4 440/3/4
f 441/2/4 442/2/4 445/2/4
f 445/2/4 442/2/4 446/2/4
f 446/2/4 442/2/4 447/2/4
f 447/2/4 442/2/4 448/2/4
f 441/2/4 445/2/4 449/2/4
f 446/2/4 447/2/4 450/2/4
f 450/2/4 447/2/4 451/2/4
f 448/2/4 442/2/4 452/2/4
f 450/2/4 451/2/4 453/2/4
f 451/2/4 452/2/4 453/2/4
f 441/2/4 449/2/4 453/2/4
f 449/2/4 450/2/4 453/2/4
f 453/2/4 452/2/4 454/2/4
f 454/2/4 452/2/4 455/2/4
f 452/2/4 442/2/4 456/2/4
f 455/2/4 452/2/4 456/2/4
f 441/2/4 453/2/4 457/2/4
f 454/2/4 455/2/4 458/2/4
f 458/2/4 455/2/4 459/2/4
f 456/2/4 442/2/4 460/2/4
f 458/2/4 459/2/4 461/2/4
f 459/2/4 460/2/4 461/2/4
f 457/2/4 458/2/4 461/2/4
f 461/2/4 460/2/4 462/2/4
f 462/2/4 460/2/4 463/2/4
f 460/2/4 442/2/4 464/2/4
f 463/2/4 460/2/4 464/2/4
f 457/2/4 461/2/4 465/2/4
f 462/2/4 463/2/4 466/2/4
f 466/2/4 463/2/4 467/2/4
f 464/2/4 442/2/4 468/2/4
f 457/2/4 465/2/4 469/2/4
f 467/2/4 468/2/4 469/2/4
f 466/2/4 467/2/4 469/2/4
f 465/2/4 466/2/4 469/2/4
f 469/2/4 468/2/4 470/2/4
f 470/2/4 468/2/4 471/2/4
f 468/2/4 442/2/4 472/2/4
f 471/2/4 468/2/4 472/2/4
f 457/2/4 469/2/4 473/2/4
f 470/2/4 471/2/4 474/2/4
f 474/2/4 471/2/4 475/2/4
f 472/2/4 442/2/4 476/2/4
f 441/2/4 457/2/4 477/2/4
f 475/2/4 476/2/4 477/2/4
f 457/2/4 473/2/4 477/2/4
f 474/2/4 475/2/4 477/2/4
f 473/2/4 474/2/4 477/2/4
f 476/2/4 442/2/4 478/2/4
f 477/2/4 476/2/4 478/2/4
f 443/3/4 444/3/4 479/3/4
f 479/3/4 444/3/4 480/3/4
f 481/3/4 482/3/4 483/3/4
f 483/3/4 482/3/4 484/3/4
f 487/2/5 486/2/5 485/2/5
f 488/2/5 486/2/5 487/2/5
f 497/2/5 490/2/5 489/2/5
f 498/2/5 490/2/5 497/2/5
f 499/2/5 492/2/5 491/2/5
f 500/2/5 492/2/5 499/2/5
f 501/2/5 494/2/5 493/2/5
f 502/2/5 494/2/5 501/2/5
f 503/2/5 496/2/5 495/2/5
f 504/2/5 496/2/5 503/2/5
f 513/2/5 506/2/5 505/2/5
f 514/2/5 506/2/5 513/2/5
f 515/2/5 508/2/5 507/2/5
f 516/2/5 508/2/5 515/2/5
f 517/2/5 510/2/5 509/2/5
f 518/2/5 510/2/5 517/2/5
f 519/2/5 512/2/5 511/2/5
f 520/2/5 512/2/5 519/2/5
f 529/2/5 522/2/5 521/2/5
f 530/2/5 522/2/5 529/2/5
f 531/2/5 524/2/5 523/2/5
f 532/2/5 524/2/5 531/2/5
f 533/2/5 526/2/5 525/2/5
f 534/2/5 526/2/5 533/2/5
f 535/2/5 528/2/5 527/2/5
f 536/2/5 528/2/5 535/2/5
f 545/2/5 538/2/5 537/2/5
f 546/2/5 538/2/5 545/2/5
f 547/2/5 540/2/5 539/2/5
f 548/2/5 540/2/5 547/2/5
f 549/2/5 542/2/5 541/2/5
f 550/2/5 542/2/5 549/2/5
f 551/2/5 544/2/5 543/2/5
f 552/2/5 544/2/5 551/2/5
f 555/3/5 554/3/5 553/3/5
f 556/3/5 554/3/5 555/3/5
f 559/3/5 558/3/5 557/3/5
f 560/3/5 558/3/5 559/3/5
f 561/2/6 562/2/6 563/2/6
f 563/2/6 562/2/6 564/2/6
f 565/2/6 566/2/6 567/2/6
f 567/2/6 566/2/6 568/2/6
f 569/2/6 570/2/6 575/2/6
f 575/2/6 570/2/6 576/2/6
f 571/2/6 572/2/6 577/2/6
f 577/2/6 572/2/6 578/2/6
f 573/2/6 574/2/6 579/2/6
f 579/2/6 574/2/6 580/2/6
f 581/2/6 582/2/6 587/2/6
f 587/2/6 582/2/6 588/2/6
f 583/2/6 584/2/6 589/2/6
f 589/2/6 584/2/6 590/2/6
f 585/2/6 586/2/6 591/2/6
f 591/2/6 586/2/6 592/2/6
f 593/2/6 594/2/6 601/2/6
f 601/2/6 594/2/6 602/2/6
f 595/2/6 596/2/6 603/2/6
f 603/2/6 596/2/6 604/2/6
f 597/2/6 598/2/6 605/2/6
f 605/2/6 598/2/6 606/2/6
f 599/2/6 600/2/6 607/2/6
f 607/2/6 600/2/6 608/2/6
f 609/2/6 610/2/6 617/2/6
f 617/2/6 610/2/6 618/2/6
f 611/2/6 612/2/6 619/2/6
f 619/2/6 612/2/6 620/2/6
f 613/2/6 614/2/6 621/2/6
f 621/2/6 614/2/6 622/2/6
f 615/2/6 616/2/6 623/2/6
f 623/2/6 616/2/6 624/2/6
f 625/3/6 626/3/6 627/3/6
f 627/3/6 626/3/6 628/3/6
f 629/3/6 630/3/6 631/3/6
f 631/3/6 630/3/6 632/3/6
f 633/3/6 634/3/6 635/3/6
f 635/3/6 634/3/6 636/3/6
f 637/3/6 638/3/6 639/3/6
f 639/3/6 638/3/6 640/3/6
f 641/3/6 642/3/6 643/3/6
f 643/3/6 642/3/6 644/3/6
f 645/3/6 646/3/6 647/3/6
f 647/3/6 646/3/6 648/3/6
f 649/3/6 650/3/6 651/3/6
f 651/3/6 650/3/6 652/3/6
f 653/3/6 654/3/6 655/3/6
f 655/3/6 654/3/6 656/3/6
f 657/3/6 658/3/6 659/3/6
f 659/3/6 658/3/6 660/3/6
f 661/3/6 662/3/6 663/3/6
f 663/3/6 662/3/6 664/3/6
f 665/3/6 666/3/6 667/3/6
f 667/3/6 666/3/6 668/3/6
f 669/3/6 670/3/6 671/3/6
f 671/3/6 670/3/6 672/3/6
f 673/3/6 674/3/6 675/3/6
f 675/3/6 674/3/6 676/3/6
f 677/3/6 678/3/6 679/3/6
f 679/3/6 678/3/6 680/3/6
f 681/3/6 682/3/6 683/3/6
f 683/3/6 682/3/6 684/3/6
f 685/3/6 686/3/6 687/3/6
f 687/3/6 686/3/6 688/3/6
f 689/3/6 690/3/6 691/3/6
f 691/3/6 690/3/6 692/3/6
f 693/3/6 694/3/6 695/3/6
f 695/3/6 694/3/6 696/3/6
f 697/3/6 698/3/6 699/3/6
f 699/3/6 698/3/6 700/3/6
f 701/3/6 702/3/6 703/3/6
f 703/3/6 702/3/6 704/3/6
f 705/3/6 706/3/6 707/3/6
f 707/3/6 706/3/6 708/3/6
