# MagicaVoxel @ Ephtracy

# material
mtllib Motel1.mtl
usemtl palette

# normals
vn -1 0 0
vn 1 0 0
vn 0 0 1
vn 0 0 -1
vn 0 -1 0
vn 0 1 0

# texcoords
vt 0.263672 0.5
vt 0.310547 0.5
vt 0.341797 0.5
vt 0.966797 0.5
vt 0.990234 0.5

# verts
v -14 0 8
v -14 0 -8
v -14 1 8
v -14 1 -8
v -14 9 7
v -14 9 -7
v -14 10 7
v -14 10 -7
v -14 16 7
v -14 16 -7
v -14 17 7
v -14 17 -7
v -13 1 7
v -13 1 -7
v -13 2 5
v -13 2 2
v -13 2 -2
v -13 2 -5
v -13 3 5
v -13 3 2
v -13 3 -2
v -13 3 -5
v -13 6 5
v -13 6 2
v -13 6 -2
v -13 6 -5
v -13 9 8
v -13 9 7
v -13 9 -7
v -13 9 -8
v -13 10 8
v -13 10 7
v -13 10 -7
v -13 10 -8
v -13 11 5
v -13 11 2
v -13 11 -2
v -13 11 -5
v -13 14 5
v -13 14 2
v -13 14 -2
v -13 14 -5
v -13 16 8
v -13 16 7
v -13 16 -7
v -13 16 -8
v -13 17 8
v -13 17 7
v -13 17 -7
v -13 17 -8
v -13 18 7
v -13 18 -7
v -12 3 5
v -12 3 2
v -12 3 -2
v -12 3 -5
v -12 6 5
v -12 6 2
v -12 6 -2
v -12 6 -5
v -12 11 5
v -12 11 2
v -12 11 -2
v -12 11 -5
v -12 14 5
v -12 14 2
v -12 14 -2
v -12 14 -5
v -7 3 7
v -7 3 6
v -7 6 7
v -7 6 6
v -7 11 7
v -7 11 6
v -7 14 7
v -7 14 6
v -4 11 8
v -4 11 7
v -4 14 8
v -4 14 7
v -3 0 9
v -3 0 8
v -3 1 9
v -3 1 8
v -3 1 7
v -3 2 8
v -3 2 7
v -1 2 7
v -1 2 6
v -1 5 7
v -1 5 6
v 3 2 7
v 3 2 6
v 3 6 7
v 3 6 6
v 3 12 8
v 3 12 7
v 3 13 8
v 3 13 7
v 10 3 7
v 10 3 6
v 10 6 7
v 10 6 6
v 10 11 7
v 10 11 6
v 10 14 7
v 10 14 6
v -10 3 7
v -10 3 6
v -10 6 7
v -10 6 6
v -10 11 7
v -10 11 6
v -10 14 7
v -10 14 6
v -3 2 7
v -3 2 6
v -3 6 7
v -3 6 6
v -3 12 8
v -3 12 7
v -3 13 8
v -3 13 7
v 1 2 7
v 1 2 6
v 1 5 7
v 1 5 6
v 3 0 9
v 3 0 8
v 3 1 9
v 3 1 8
v 3 1 7
v 3 2 8
v 3 2 7
v 4 11 8
v 4 11 7
v 4 14 8
v 4 14 7
v 7 3 7
v 7 3 6
v 7 6 7
v 7 6 6
v 7 11 7
v 7 11 6
v 7 14 7
v 7 14 6
v 12 3 5
v 12 3 2
v 12 3 -2
v 12 3 -5
v 12 6 5
v 12 6 2
v 12 6 -2
v 12 6 -5
v 12 11 5
v 12 11 2
v 12 11 -2
v 12 11 -5
v 12 14 5
v 12 14 2
v 12 14 -2
v 12 14 -5
v 13 1 7
v 13 1 -7
v 13 2 5
v 13 2 2
v 13 2 -2
v 13 2 -5
v 13 3 5
v 13 3 2
v 13 3 -2
v 13 3 -5
v 13 6 5
v 13 6 2
v 13 6 -2
v 13 6 -5
v 13 9 8
v 13 9 7
v 13 9 -7
v 13 9 -8
v 13 10 8
v 13 10 7
v 13 10 -7
v 13 10 -8
v 13 11 5
v 13 11 2
v 13 11 -2
v 13 11 -5
v 13 14 5
v 13 14 2
v 13 14 -2
v 13 14 -5
v 13 16 8
v 13 16 7
v 13 16 -7
v 13 16 -8
v 13 17 8
v 13 17 7
v 13 17 -7
v 13 17 -8
v 13 18 7
v 13 18 -7
v 14 0 8
v 14 0 -8
v 14 1 8
v 14 1 -8
v 14 9 7
v 14 9 -7
v 14 10 7
v 14 10 -7
v 14 16 7
v 14 16 -7
v 14 17 7
v 14 17 -7
v -3 0 9
v -3 1 9
v 3 0 9
v 3 1 9
v -14 0 8
v -14 1 8
v -13 9 8
v -13 10 8
v -13 16 8
v -13 17 8
v -4 11 8
v -4 14 8
v -3 0 8
v -3 1 8
v -3 2 8
v -3 12 8
v -3 13 8
v 3 0 8
v 3 1 8
v 3 2 8
v 3 12 8
v 3 13 8
v 4 11 8
v 4 14 8
v 13 9 8
v 13 10 8
v 13 16 8
v 13 17 8
v 14 0 8
v 14 1 8
v -14 9 7
v -14 10 7
v -14 16 7
v -14 17 7
v -13 1 7
v -13 9 7
v -13 10 7
v -13 16 7
v -13 17 7
v -13 18 7
v -10 2 7
v -10 3 7
v -10 6 7
v -10 11 7
v -10 14 7
v -7 2 7
v -7 3 7
v -7 6 7
v -7 11 7
v -7 14 7
v -4 1 7
v -4 6 7
v -4 11 7
v -4 14 7
v -3 1 7
v -3 2 7
v -3 6 7
v -3 7 7
v -3 12 7
v -3 13 7
v -1 2 7
v -1 5 7
v 1 2 7
v 1 5 7
v 3 1 7
v 3 2 7
v 3 6 7
v 3 7 7
v 3 12 7
v 3 13 7
v 4 1 7
v 4 6 7
v 4 11 7
v 4 14 7
v 7 2 7
v 7 3 7
v 7 6 7
v 7 11 7
v 7 14 7
v 10 2 7
v 10 3 7
v 10 6 7
v 10 11 7
v 10 14 7
v 13 1 7
v 13 9 7
v 13 10 7
v 13 16 7
v 13 17 7
v 13 18 7
v 14 9 7
v 14 10 7
v 14 16 7
v 14 17 7
v -10 3 6
v -10 6 6
v -10 11 6
v -10 14 6
v -7 3 6
v -7 6 6
v -7 11 6
v -7 14 6
v -3 2 6
v -3 6 6
v -1 2 6
v -1 5 6
v 1 2 6
v 1 5 6
v 3 2 6
v 3 6 6
v 7 3 6
v 7 6 6
v 7 11 6
v 7 14 6
v 10 3 6
v 10 6 6
v 10 11 6
v 10 14 6
v -13 3 2
v -13 6 2
v -13 11 2
v -13 14 2
v -12 3 2
v -12 6 2
v -12 11 2
v -12 14 2
v 12 3 2
v 12 6 2
v 12 11 2
v 12 14 2
v 13 3 2
v 13 6 2
v 13 11 2
v 13 14 2
v -13 3 -5
v -13 6 -5
v -13 11 -5
v -13 14 -5
v -12 3 -5
v -12 6 -5
v -12 11 -5
v -12 14 -5
v 12 3 -5
v 12 6 -5
v 12 11 -5
v 12 14 -5
v 13 3 -5
v 13 6 -5
v 13 11 -5
v 13 14 -5
v -13 3 5
v -13 6 5
v -13 11 5
v -13 14 5
v -12 3 5
v -12 6 5
v -12 11 5
v -12 14 5
v 12 3 5
v 12 6 5
v 12 11 5
v 12 14 5
v 13 3 5
v 13 6 5
v 13 11 5
v 13 14 5
v -13 3 -2
v -13 6 -2
v -13 11 -2
v -13 14 -2
v -12 3 -2
v -12 6 -2
v -12 11 -2
v -12 14 -2
v 12 3 -2
v 12 6 -2
v 12 11 -2
v 12 14 -2
v 13 3 -2
v 13 6 -2
v 13 11 -2
v 13 14 -2
v -14 9 -7
v -14 10 -7
v -14 16 -7
v -14 17 -7
v -13 1 -7
v -13 9 -7
v -13 10 -7
v -13 16 -7
v -13 17 -7
v -13 18 -7
v 13 1 -7
v 13 9 -7
v 13 10 -7
v 13 16 -7
v 13 17 -7
v 13 18 -7
v 14 9 -7
v 14 10 -7
v 14 16 -7
v 14 17 -7
v -14 0 -8
v -14 1 -8
v -13 9 -8
v -13 10 -8
v -13 16 -8
v -13 17 -8
v 13 9 -8
v 13 10 -8
v 13 16 -8
v 13 17 -8
v 14 0 -8
v 14 1 -8
v -3 0 9
v 3 0 9
v -14 0 8
v -3 0 8
v 3 0 8
v 14 0 8
v -13 0 7
v 13 0 7
v -13 0 -7
v 13 0 -7
v -14 0 -8
v 14 0 -8
v -10 6 7
v -7 6 7
v -3 6 7
v 3 6 7
v 7 6 7
v 10 6 7
v -10 6 6
v -7 6 6
v -3 6 6
v 3 6 6
v 7 6 6
v 10 6 6
v -13 6 5
v -12 6 5
v 12 6 5
v 13 6 5
v -13 6 2
v -12 6 2
v 12 6 2
v 13 6 2
v -13 6 -2
v -12 6 -2
v 12 6 -2
v 13 6 -2
v -13 6 -5
v -12 6 -5
v 12 6 -5
v 13 6 -5
v -13 9 8
v 13 9 8
v -14 9 7
v -13 9 7
v 13 9 7
v 14 9 7
v -14 9 -7
v -13 9 -7
v 13 9 -7
v 14 9 -7
v -13 9 -8
v 13 9 -8
v -4 11 8
v 4 11 8
v -4 11 7
v 4 11 7
v -3 13 8
v 3 13 8
v -3 13 7
v 3 13 7
v -10 14 7
v -7 14 7
v 7 14 7
v 10 14 7
v -10 14 6
v -7 14 6
v 7 14 6
v 10 14 6
v -13 14 5
v -12 14 5
v 12 14 5
v 13 14 5
v -13 14 2
v -12 14 2
v 12 14 2
v 13 14 2
v -13 14 -2
v -12 14 -2
v 12 14 -2
v 13 14 -2
v -13 14 -5
v -12 14 -5
v 12 14 -5
v 13 14 -5
v -13 16 8
v 13 16 8
v -14 16 7
v -13 16 7
v 13 16 7
v 14 16 7
v -14 16 -7
v -13 16 -7
v 13 16 -7
v 14 16 -7
v -13 16 -8
v 13 16 -8
v -3 1 9
v 3 1 9
v -14 1 8
v -3 1 8
v 3 1 8
v 14 1 8
v -13 1 7
v -4 1 7
v -3 1 7
v 3 1 7
v 4 1 7
v 13 1 7
v -13 1 -7
v 13 1 -7
v -14 1 -8
v 14 1 -8
v -3 2 8
v 3 2 8
v -3 2 7
v -1 2 7
v 1 2 7
v 3 2 7
v -3 2 6
v -1 2 6
v 1 2 6
v 3 2 6
v -10 3 7
v -7 3 7
v 7 3 7
v 10 3 7
v -10 3 6
v -7 3 6
v 7 3 6
v 10 3 6
v -13 3 5
v -12 3 5
v 12 3 5
v 13 3 5
v -13 3 2
v -12 3 2
v 12 3 2
v 13 3 2
v -13 3 -2
v -12 3 -2
v 12 3 -2
v 13 3 -2
v -13 3 -5
v -12 3 -5
v 12 3 -5
v 13 3 -5
v -1 5 7
v 1 5 7
v -1 5 6
v 1 5 6
v -13 10 8
v 13 10 8
v -14 10 7
v -13 10 7
v 13 10 7
v 14 10 7
v -14 10 -7
v -13 10 -7
v 13 10 -7
v 14 10 -7
v -13 10 -8
v 13 10 -8
v -10 11 7
v -7 11 7
v 7 11 7
v 10 11 7
v -10 11 6
v -7 11 6
v 7 11 6
v 10 11 6
v -13 11 5
v -12 11 5
v 12 11 5
v 13 11 5
v -13 11 2
v -12 11 2
v 12 11 2
v 13 11 2
v -13 11 -2
v -12 11 -2
v 12 11 -2
v 13 11 -2
v -13 11 -5
v -12 11 -5
v 12 11 -5
v 13 11 -5
v -3 12 8
v 3 12 8
v -3 12 7
v 3 12 7
v -4 14 8
v 4 14 8
v -4 14 7
v 4 14 7
v -13 17 8
v 13 17 8
v -14 17 7
v -13 17 7
v 13 17 7
v 14 17 7
v -14 17 -7
v -13 17 -7
v 13 17 -7
v 14 17 -7
v -13 17 -8
v 13 17 -8
v -13 18 7
v 13 18 7
v -13 18 -7
v 13 18 -7

# faces
f 3/3/1 2/3/1 1/3/1
f 4/3/1 2/3/1 3/3/1
f 7/3/1 6/3/1 5/3/1
f 8/3/1 6/3/1 7/3/1
f 11/3/1 10/3/1 9/3/1
f 12/3/1 10/3/1 11/3/1
f 15/2/1 14/2/1 13/2/1
f 16/2/1 14/2/1 15/2/1
f 17/2/1 14/2/1 16/2/1
f 18/2/1 14/2/1 17/2/1
f 19/2/1 15/2/1 13/2/1
f 19/3/1 16/3/1 15/3/1
f 20/2/1 17/2/1 16/2/1
f 20/3/1 16/3/1 19/3/1
f 21/3/1 18/3/1 17/3/1
f 21/2/1 17/2/1 20/2/1
f 22/2/1 14/2/1 18/2/1
f 22/3/1 18/3/1 21/3/1
f 23/2/1 19/2/1 13/2/1
f 24/2/1 21/2/1 20/2/1
f 25/2/1 21/2/1 24/2/1
f 26/2/1 14/2/1 22/2/1
f 28/2/1 23/2/1 13/2/1
f 28/2/1 26/2/1 25/2/1
f 28/2/1 25/2/1 24/2/1
f 28/2/1 24/2/1 23/2/1
f 29/2/1 14/2/1 26/2/1
f 29/2/1 26/2/1 28/2/1
f 31/3/1 28/3/1 27/3/1
f 32/3/1 28/3/1 31/3/1
f 33/3/1 30/3/1 29/3/1
f 34/3/1 30/3/1 33/3/1
f 35/2/1 33/2/1 32/2/1
f 36/2/1 33/2/1 35/2/1
f 37/2/1 33/2/1 36/2/1
f 38/2/1 33/2/1 37/2/1
f 39/2/1 35/2/1 32/2/1
f 40/2/1 37/2/1 36/2/1
f 41/2/1 37/2/1 40/2/1
f 42/2/1 33/2/1 38/2/1
f 44/2/1 41/2/1 40/2/1
f 44/2/1 42/2/1 41/2/1
f 44/2/1 39/2/1 32/2/1
f 44/2/1 40/2/1 39/2/1
f 45/2/1 33/2/1 42/2/1
f 45/2/1 42/2/1 44/2/1
f 47/3/1 44/3/1 43/3/1
f 48/3/1 44/3/1 47/3/1
f 49/3/1 46/3/1 45/3/1
f 50/3/1 46/3/1 49/3/1
f 51/3/1 49/3/1 48/3/1
f 52/3/1 49/3/1 51/3/1
f 57/2/1 54/2/1 53/2/1
f 58/2/1 54/2/1 57/2/1
f 59/2/1 56/2/1 55/2/1
f 60/2/1 56/2/1 59/2/1
f 65/2/1 62/2/1 61/2/1
f 66/2/1 62/2/1 65/2/1
f 67/2/1 64/2/1 63/2/1
f 68/2/1 64/2/1 67/2/1
f 71/2/1 70/2/1 69/2/1
f 72/2/1 70/2/1 71/2/1
f 75/2/1 74/2/1 73/2/1
f 76/2/1 74/2/1 75/2/1
f 79/4/1 78/4/1 77/4/1
f 80/4/1 78/4/1 79/4/1
f 83/3/1 82/3/1 81/3/1
f 84/3/1 82/3/1 83/3/1
f 86/3/1 85/3/1 84/3/1
f 87/3/1 85/3/1 86/3/1
f 90/3/1 89/3/1 88/3/1
f 91/3/1 89/3/1 90/3/1
f 94/3/1 93/3/1 92/3/1
f 95/3/1 93/3/1 94/3/1
f 98/4/1 97/4/1 96/4/1
f 99/4/1 97/4/1 98/4/1
f 102/2/1 101/2/1 100/2/1
f 103/2/1 101/2/1 102/2/1
f 106/2/1 105/2/1 104/2/1
f 107/2/1 105/2/1 106/2/1
f 108/2/2 109/2/2 110/2/2
f 110/2/2 109/2/2 111/2/2
f 112/2/2 113/2/2 114/2/2
f 114/2/2 113/2/2 115/2/2
f 116/3/2 117/3/2 118/3/2
f 118/3/2 117/3/2 119/3/2
f 120/4/2 121/4/2 122/4/2
f 122/4/2 121/4/2 123/4/2
f 124/3/2 125/3/2 126/3/2
f 126/3/2 125/3/2 127/3/2
f 128/3/2 129/3/2 130/3/2
f 130/3/2 129/3/2 131/3/2
f 131/3/2 132/3/2 133/3/2
f 133/3/2 132/3/2 134/3/2
f 135/4/2 136/4/2 137/4/2
f 137/4/2 136/4/2 138/4/2
f 139/2/2 140/2/2 141/2/2
f 141/2/2 140/2/2 142/2/2
f 143/2/2 144/2/2 145/2/2
f 145/2/2 144/2/2 146/2/2
f 147/2/2 148/2/2 151/2/2
f 151/2/2 148/2/2 152/2/2
f 149/2/2 150/2/2 153/2/2
f 153/2/2 150/2/2 154/2/2
f 155/2/2 156/2/2 159/2/2
f 159/2/2 156/2/2 160/2/2
f 157/2/2 158/2/2 161/2/2
f 161/2/2 158/2/2 162/2/2
f 163/2/2 164/2/2 165/2/2
f 165/2/2 164/2/2 166/2/2
f 166/2/2 164/2/2 167/2/2
f 167/2/2 164/2/2 168/2/2
f 163/2/2 165/2/2 169/2/2
f 165/3/2 166/3/2 169/3/2
f 166/2/2 167/2/2 170/2/2
f 169/3/2 166/3/2 170/3/2
f 167/3/2 168/3/2 171/3/2
f 170/2/2 167/2/2 171/2/2
f 168/2/2 164/2/2 172/2/2
f 171/3/2 168/3/2 172/3/2
f 163/2/2 169/2/2 173/2/2
f 170/2/2 171/2/2 174/2/2
f 174/2/2 171/2/2 175/2/2
f 172/2/2 164/2/2 176/2/2
f 163/2/2 173/2/2 178/2/2
f 175/2/2 176/2/2 178/2/2
f 174/2/2 175/2/2 178/2/2
f 173/2/2 174/2/2 178/2/2
f 176/2/2 164/2/2 179/2/2
f 178/2/2 176/2/2 179/2/2
f 177/3/2 178/3/2 181/3/2
f 181/3/2 178/3/2 182/3/2
f 179/3/2 180/3/2 183/3/2
f 183/3/2 180/3/2 184/3/2
f 182/2/2 183/2/2 185/2/2
f 185/2/2 183/2/2 186/2/2
f 186/2/2 183/2/2 187/2/2
f 187/2/2 183/2/2 188/2/2
f 182/2/2 185/2/2 189/2/2
f 186/2/2 187/2/2 190/2/2
f 190/2/2 187/2/2 191/2/2
f 188/2/2 183/2/2 192/2/2
f 190/2/2 191/2/2 194/2/2
f 191/2/2 192/2/2 194/2/2
f 182/2/2 189/2/2 194/2/2
f 189/2/2 190/2/2 194/2/2
f 192/2/2 183/2/2 195/2/2
f 194/2/2 192/2/2 195/2/2
f 193/3/2 194/3/2 197/3/2
f 197/3/2 194/3/2 198/3/2
f 195/3/2 196/3/2 199/3/2
f 199/3/2 196/3/2 200/3/2
f 198/3/2 199/3/2 201/3/2
f 201/3/2 199/3/2 202/3/2
f 203/3/2 204/3/2 205/3/2
f 205/3/2 204/3/2 206/3/2
f 207/3/2 208/3/2 209/3/2
f 209/3/2 208/3/2 210/3/2
f 211/3/2 212/3/2 213/3/2
f 213/3/2 212/3/2 214/3/2
f 217/3/3 216/3/3 215/3/3
f 218/3/3 216/3/3 217/3/3
f 227/3/3 220/3/3 219/3/3
f 228/3/3 220/3/3 227/3/3
f 230/4/3 226/4/3 225/4/3
f 231/4/3 226/4/3 230/4/3
f 233/3/3 229/3/3 228/3/3
f 234/3/3 229/3/3 233/3/3
f 235/4/3 230/4/3 225/4/3
f 236/4/3 226/4/3 231/4/3
f 237/4/3 236/4/3 235/4/3
f 237/4/3 235/4/3 225/4/3
f 238/4/3 226/4/3 236/4/3
f 238/4/3 236/4/3 237/4/3
f 239/3/3 222/3/3 221/3/3
f 240/3/3 222/3/3 239/3/3
f 241/3/3 224/3/3 223/3/3
f 242/3/3 224/3/3 241/3/3
f 243/3/3 233/3/3 232/3/3
f 244/3/3 233/3/3 243/3/3
f 250/3/3 246/3/3 245/3/3
f 251/3/3 246/3/3 250/3/3
f 252/3/3 248/3/3 247/3/3
f 253/3/3 248/3/3 252/3/3
f 255/2/3 250/2/3 249/2/3
f 256/2/3 250/2/3 255/2/3
f 257/2/3 250/2/3 256/2/3
f 258/2/3 252/2/3 251/2/3
f 259/2/3 252/2/3 258/2/3
f 260/2/3 255/2/3 249/2/3
f 260/3/3 256/3/3 255/3/3
f 261/3/3 256/3/3 260/3/3
f 262/2/3 250/2/3 257/2/3
f 263/2/3 258/2/3 251/2/3
f 264/2/3 252/2/3 259/2/3
f 265/2/3 261/2/3 260/2/3
f 265/2/3 262/2/3 261/2/3
f 265/2/3 260/2/3 249/2/3
f 266/2/3 250/2/3 262/2/3
f 266/2/3 262/2/3 265/2/3
f 267/2/3 264/2/3 263/2/3
f 267/2/3 263/2/3 251/2/3
f 268/2/3 252/2/3 264/2/3
f 268/2/3 264/2/3 267/2/3
f 269/3/3 266/3/3 265/3/3
f 270/3/3 266/3/3 269/3/3
f 271/2/3 250/2/3 266/2/3
f 271/3/3 266/3/3 270/3/3
f 272/2/3 250/2/3 271/2/3
f 277/3/3 276/3/3 275/3/3
f 278/3/3 276/3/3 277/3/3
f 281/3/3 272/3/3 271/3/3
f 282/2/3 250/2/3 272/2/3
f 282/3/3 272/3/3 281/3/3
f 283/5/3 274/5/3 273/5/3
f 284/5/3 274/5/3 283/5/3
f 285/3/3 281/3/3 280/3/3
f 285/3/3 280/3/3 279/3/3
f 286/2/3 282/2/3 281/2/3
f 286/3/3 281/3/3 285/3/3
f 287/2/3 267/2/3 251/2/3
f 288/2/3 252/2/3 268/2/3
f 289/2/3 286/2/3 285/2/3
f 290/2/3 286/2/3 289/2/3
f 291/2/3 282/2/3 286/2/3
f 291/2/3 286/2/3 290/2/3
f 292/2/3 287/2/3 251/2/3
f 292/2/3 288/2/3 287/2/3
f 293/2/3 252/2/3 288/2/3
f 293/2/3 288/2/3 292/2/3
f 294/3/3 290/3/3 289/3/3
f 294/2/3 289/2/3 285/2/3
f 295/3/3 290/3/3 294/3/3
f 296/2/3 282/2/3 291/2/3
f 297/2/3 292/2/3 251/2/3
f 298/2/3 252/2/3 293/2/3
f 299/2/3 295/2/3 294/2/3
f 299/2/3 296/2/3 295/2/3
f 299/2/3 294/2/3 285/2/3
f 300/2/3 250/2/3 282/2/3
f 300/2/3 296/2/3 299/2/3
f 300/2/3 282/2/3 296/2/3
f 301/2/3 298/2/3 297/2/3
f 301/2/3 297/2/3 251/2/3
f 302/2/3 252/2/3 298/2/3
f 302/2/3 298/2/3 301/2/3
f 303/3/3 254/3/3 253/3/3
f 304/3/3 254/3/3 303/3/3
f 305/3/3 301/3/3 300/3/3
f 306/3/3 301/3/3 305/3/3
f 307/3/3 303/3/3 302/3/3
f 308/3/3 303/3/3 307/3/3
f 313/2/3 310/2/3 309/2/3
f 314/2/3 310/2/3 313/2/3
f 315/2/3 312/2/3 311/2/3
f 316/2/3 312/2/3 315/2/3
f 319/1/3 318/1/3 317/1/3
f 320/1/3 318/1/3 319/1/3
f 322/1/3 318/1/3 320/1/3
f 323/1/3 322/1/3 321/1/3
f 324/1/3 318/1/3 322/1/3
f 324/1/3 322/1/3 323/1/3
f 329/2/3 326/2/3 325/2/3
f 330/2/3 326/2/3 329/2/3
f 331/2/3 328/2/3 327/2/3
f 332/2/3 328/2/3 331/2/3
f 337/2/3 334/2/3 333/2/3
f 338/2/3 334/2/3 337/2/3
f 339/2/3 336/2/3 335/2/3
f 340/2/3 336/2/3 339/2/3
f 345/2/3 342/2/3 341/2/3
f 346/2/3 342/2/3 345/2/3
f 347/2/3 344/2/3 343/2/3
f 348/2/3 344/2/3 347/2/3
f 353/2/3 350/2/3 349/2/3
f 354/2/3 350/2/3 353/2/3
f 355/2/3 352/2/3 351/2/3
f 356/2/3 352/2/3 355/2/3
f 361/2/3 358/2/3 357/2/3
f 362/2/3 358/2/3 361/2/3
f 363/2/3 360/2/3 359/2/3
f 364/2/3 360/2/3 363/2/3
f 365/2/4 366/2/4 369/2/4
f 369/2/4 366/2/4 370/2/4
f 367/2/4 368/2/4 371/2/4
f 371/2/4 368/2/4 372/2/4
f 373/2/4 374/2/4 377/2/4
f 377/2/4 374/2/4 378/2/4
f 375/2/4 376/2/4 379/2/4
f 379/2/4 376/2/4 380/2/4
f 381/2/4 382/2/4 385/2/4
f 385/2/4 382/2/4 386/2/4
f 383/2/4 384/2/4 387/2/4
f 387/2/4 384/2/4 388/2/4
f 389/2/4 390/2/4 393/2/4
f 393/2/4 390/2/4 394/2/4
f 391/2/4 392/2/4 395/2/4
f 395/2/4 392/2/4 396/2/4
f 397/3/4 398/3/4 402/3/4
f 402/3/4 398/3/4 403/3/4
f 399/3/4 400/3/4 404/3/4
f 404/3/4 400/3/4 405/3/4
f 401/2/4 402/2/4 407/2/4
f 407/2/4 402/2/4 408/2/4
f 403/2/4 404/2/4 409/2/4
f 409/2/4 404/2/4 410/2/4
f 405/3/4 406/3/4 411/3/4
f 411/3/4 406/3/4 412/3/4
f 408/3/4 409/3/4 413/3/4
f 413/3/4 409/3/4 414/3/4
f 410/3/4 411/3/4 415/3/4
f 415/3/4 411/3/4 416/3/4
f 419/3/4 420/3/4 423/3/4
f 423/3/4 420/3/4 424/3/4
f 421/3/4 422/3/4 425/3/4
f 425/3/4 422/3/4 426/3/4
f 417/3/4 418/3/4 427/3/4
f 427/3/4 418/3/4 428/3/4
f 432/3/5 430/3/5 429/3/5
f 433/3/5 430/3/5 432/3/5
f 435/3/5 432/3/5 431/3/5
f 435/3/5 434/3/5 433/3/5
f 435/3/5 433/3/5 432/3/5
f 436/3/5 434/3/5 435/3/5
f 437/3/5 435/3/5 431/3/5
f 437/2/5 436/2/5 435/2/5
f 438/3/5 434/3/5 436/3/5
f 438/2/5 436/2/5 437/2/5
f 439/3/5 437/3/5 431/3/5
f 439/3/5 438/3/5 437/3/5
f 440/3/5 434/3/5 438/3/5
f 440/3/5 438/3/5 439/3/5
f 447/2/5 442/2/5 441/2/5
f 448/2/5 442/2/5 447/2/5
f 449/3/5 444/3/5 443/3/5
f 450/3/5 444/3/5 449/3/5
f 451/2/5 446/2/5 445/2/5
f 452/2/5 446/2/5 451/2/5
f 457/2/5 454/2/5 453/2/5
f 458/2/5 454/2/5 457/2/5
f 459/2/5 456/2/5 455/2/5
f 460/2/5 456/2/5 459/2/5
f 465/2/5 462/2/5 461/2/5
f 466/2/5 462/2/5 465/2/5
f 467/2/5 464/2/5 463/2/5
f 468/2/5 464/2/5 467/2/5
f 472/3/5 470/3/5 469/3/5
f 473/3/5 470/3/5 472/3/5
f 475/3/5 472/3/5 471/3/5
f 476/3/5 472/3/5 475/3/5
f 477/3/5 474/3/5 473/3/5
f 478/3/5 474/3/5 477/3/5
f 479/3/5 477/3/5 476/3/5
f 480/3/5 477/3/5 479/3/5
f 483/4/5 482/4/5 481/4/5
f 484/4/5 482/4/5 483/4/5
f 487/4/5 486/4/5 485/4/5
f 488/4/5 486/4/5 487/4/5
f 493/2/5 490/2/5 489/2/5
f 494/2/5 490/2/5 493/2/5
f 495/2/5 492/2/5 491/2/5
f 496/2/5 492/2/5 495/2/5
f 501/2/5 498/2/5 497/2/5
f 502/2/5 498/2/5 501/2/5
f 503/2/5 500/2/5 499/2/5
f 504/2/5 500/2/5 503/2/5
f 509/2/5 506/2/5 505/2/5
f 510/2/5 506/2/5 509/2/5
f 511/2/5 508/2/5 507/2/5
f 512/2/5 508/2/5 511/2/5
f 516/3/5 514/3/5 513/3/5
f 517/3/5 514/3/5 516/3/5
f 519/3/5 516/3/5 515/3/5
f 520/3/5 516/3/5 519/3/5
f 521/3/5 518/3/5 517/3/5
f 522/3/5 518/3/5 521/3/5
f 523/3/5 521/3/5 520/3/5
f 524/3/5 521/3/5 523/3/5
f 525/3/6 526/3/6 528/3/6
f 528/3/6 526/3/6 529/3/6
f 527/3/6 528/3/6 531/3/6
f 531/3/6 528/3/6 532/3/6
f 532/3/6 528/3/6 533/3/6
f 529/3/6 530/3/6 534/3/6
f 534/3/6 530/3/6 535/3/6
f 535/3/6 530/3/6 536/3/6
f 527/3/6 531/3/6 537/3/6
f 536/3/6 530/3/6 538/3/6
f 527/3/6 537/3/6 539/3/6
f 537/3/6 538/3/6 539/3/6
f 538/3/6 530/3/6 540/3/6
f 539/3/6 538/3/6 540/3/6
f 541/3/6 542/3/6 543/3/6
f 543/3/6 542/3/6 544/3/6
f 544/3/6 542/3/6 545/3/6
f 545/3/6 542/3/6 546/3/6
f 543/3/6 544/3/6 547/3/6
f 547/3/6 544/3/6 548/3/6
f 545/3/6 546/3/6 549/3/6
f 549/3/6 546/3/6 550/3/6
f 551/3/6 552/3/6 555/3/6
f 555/3/6 552/3/6 556/3/6
f 553/3/6 554/3/6 557/3/6
f 557/3/6 554/3/6 558/3/6
f 559/3/6 560/3/6 563/3/6
f 563/3/6 560/3/6 564/3/6
f 561/3/6 562/3/6 565/3/6
f 565/3/6 562/3/6 566/3/6
f 567/3/6 568/3/6 571/3/6
f 571/3/6 568/3/6 572/3/6
f 569/3/6 570/3/6 573/3/6
f 573/3/6 570/3/6 574/3/6
f 575/3/6 576/3/6 577/3/6
f 577/3/6 576/3/6 578/3/6
f 579/3/6 580/3/6 582/3/6
f 582/3/6 580/3/6 583/3/6
f 581/3/6 582/3/6 585/3/6
f 585/3/6 582/3/6 586/3/6
f 583/3/6 584/3/6 587/3/6
f 587/3/6 584/3/6 588/3/6
f 586/3/6 587/3/6 589/3/6
f 589/3/6 587/3/6 590/3/6
f 591/2/6 592/2/6 595/2/6
f 595/2/6 592/2/6 596/2/6
f 593/2/6 594/2/6 597/2/6
f 597/2/6 594/2/6 598/2/6
f 599/2/6 600/2/6 603/2/6
f 603/2/6 600/2/6 604/2/6
f 601/2/6 602/2/6 605/2/6
f 605/2/6 602/2/6 606/2/6
f 607/2/6 608/2/6 611/2/6
f 611/2/6 608/2/6 612/2/6
f 609/2/6 610/2/6 613/2/6
f 613/2/6 610/2/6 614/2/6
f 615/4/6 616/4/6 617/4/6
f 617/4/6 616/4/6 618/4/6
f 619/4/6 620/4/6 621/4/6
f 621/4/6 620/4/6 622/4/6
f 623/3/6 624/3/6 626/3/6
f 626/3/6 624/3/6 627/3/6
f 625/3/6 626/3/6 629/3/6
f 629/3/6 626/3/6 630/3/6
f 627/3/6 628/3/6 631/3/6
f 631/3/6 628/3/6 632/3/6
f 630/3/6 631/3/6 633/3/6
f 633/3/6 631/3/6 634/3/6
f 635/3/6 636/3/6 637/3/6
f 637/3/6 636/3/6 638/3/6
