# MagicaVoxel @ Ephtracy

# material
mtllib FemalePerson1.mtl
usemtl palette

# normals
vn -1 0 0
vn 1 0 0
vn 0 0 1
vn 0 0 -1
vn 0 -1 0
vn 0 1 0

# texcoords
vt 0.00195313 0.5
vt 0.00585938 0.5
vt 0.00976563 0.5
vt 0.0136719 0.5
vt 0.236328 0.5

# verts
v -4.5 11 0.5
v -4.5 11 -0.5
v -4.5 18 0.5
v -4.5 18 -0.5
v -4.5 20 0.5
v -4.5 20 -0.5
v -3.5 20 0.5
v -3.5 20 -0.5
v -3.5 21 0.5
v -3.5 21 -0.5
v -3.5 22 1.5
v -3.5 22 0.5
v -3.5 24 0.5
v -3.5 24 -0.5
v -3.5 25 1.5
v -3.5 25 0.5
v -2.5 0 0.5
v -2.5 0 -0.5
v -2.5 11 1.5
v -2.5 11 0.5
v -2.5 11 -0.5
v -2.5 11 -1.5
v -2.5 20 0.5
v -2.5 20 -0.5
v -2.5 20 -1.5
v -2.5 20 -2.5
v -2.5 21 1.5
v -2.5 21 0.5
v -2.5 21 -0.5
v -2.5 21 -1.5
v -2.5 21 -2.5
v -2.5 23 2.5
v -2.5 23 1.5
v -2.5 24 3.5
v -2.5 24 2.5
v -2.5 24 0.5
v -2.5 24 -0.5
v -2.5 25 3.5
v -2.5 25 2.5
v -2.5 25 1.5
v -2.5 25 0.5
v -2.5 26 2.5
v -2.5 26 1.5
v -2.5 27 1.5
v -2.5 27 -1.5
v -1.5 10 -0.5
v -1.5 10 -1.5
v -1.5 11 -0.5
v -1.5 11 -1.5
v -1.5 19 -1.5
v -1.5 19 -2.5
v -1.5 20 -1.5
v -1.5 20 -2.5
v -1.5 21 1.5
v -1.5 21 0.5
v -1.5 21 -1.5
v -1.5 21 -2.5
v -1.5 22 1.5
v -1.5 22 0.5
v -1.5 23 1.5
v -1.5 23 0.5
v -1.5 24 1.5
v -1.5 24 0.5
v -1.5 25 3.5
v -1.5 25 2.5
v -1.5 26 3.5
v -1.5 26 2.5
v -1.5 26 1.5
v -1.5 27 2.5
v -1.5 27 1.5
v -1.5 27 -1.5
v -1.5 27 -2.5
v -1.5 28 1.5
v -1.5 28 -1.5
v -0.5 18 -1.5
v -0.5 18 -2.5
v -0.5 19 -1.5
v -0.5 19 -2.5
v -0.5 19 -3.5
v -0.5 22 0.5
v -0.5 22 -0.5
v -0.5 23 0.5
v -0.5 23 -0.5
v -0.5 25 -2.5
v -0.5 25 -3.5
v -0.5 26 3.5
v -0.5 26 2.5
v -0.5 27 3.5
v -0.5 27 2.5
v -0.5 27 1.5
v -0.5 28 2.5
v -0.5 28 1.5
v 0.5 21 1.5
v 0.5 21 0.5
v 0.5 22 1.5
v 0.5 22 0.5
v 1.5 0 0.5
v 1.5 0 -0.5
v 1.5 10 -0.5
v 1.5 11 1.5
v 1.5 11 0.5
v 1.5 11 -0.5
v 1.5 12 1.5
v 1.5 12 0.5
v 1.5 22 0.5
v 1.5 22 -1.5
v 1.5 23 0.5
v 1.5 23 -1.5
v 1.5 25 2.5
v 1.5 25 1.5
v 1.5 26 2.5
v 1.5 26 1.5
v 3.5 11 0.5
v 3.5 11 -0.5
v 3.5 18 0.5
v 3.5 18 -0.5
v 3.5 20 0.5
v 3.5 20 -0.5
v -3.5 11 0.5
v -3.5 11 -0.5
v -3.5 18 0.5
v -3.5 18 -0.5
v -3.5 20 0.5
v -3.5 20 -0.5
v -2.5 22 1.5
v -2.5 22 0.5
v -2.5 23 1.5
v -2.5 24 1.5
v -2.5 24 0.5
v -1.5 0 0.5
v -1.5 0 -0.5
v -1.5 10 -0.5
v -1.5 11 1.5
v -1.5 11 0.5
v -1.5 11 -0.5
v -1.5 12 1.5
v -1.5 12 0.5
v -1.5 22 0.5
v -1.5 22 -1.5
v -1.5 23 2.5
v -1.5 23 1.5
v -1.5 23 0.5
v -1.5 23 -1.5
v -1.5 24 3.5
v -1.5 24 2.5
v -1.5 25 3.5
v -1.5 25 1.5
v -0.5 21 1.5
v -0.5 21 0.5
v -0.5 22 1.5
v -0.5 22 0.5
v -0.5 25 3.5
v -0.5 25 1.5
v -0.5 26 3.5
v -0.5 26 1.5
v 0.5 18 -1.5
v 0.5 18 -2.5
v 0.5 19 -1.5
v 0.5 19 -2.5
v 0.5 19 -3.5
v 0.5 22 0.5
v 0.5 22 -0.5
v 0.5 23 0.5
v 0.5 23 -0.5
v 0.5 25 -2.5
v 0.5 25 -3.5
v 0.5 26 3.5
v 0.5 26 2.5
v 0.5 27 3.5
v 0.5 27 2.5
v 0.5 27 1.5
v 0.5 28 2.5
v 0.5 28 1.5
v 1.5 10 -0.5
v 1.5 10 -1.5
v 1.5 11 -0.5
v 1.5 11 -1.5
v 1.5 19 -1.5
v 1.5 19 -2.5
v 1.5 20 -1.5
v 1.5 20 -2.5
v 1.5 21 -1.5
v 1.5 21 -2.5
v 1.5 23 1.5
v 1.5 23 0.5
v 1.5 24 1.5
v 1.5 24 0.5
v 1.5 27 1.5
v 1.5 27 -1.5
v 1.5 27 -2.5
v 1.5 28 1.5
v 1.5 28 -1.5
v 2.5 0 0.5
v 2.5 0 -0.5
v 2.5 11 1.5
v 2.5 11 0.5
v 2.5 11 -0.5
v 2.5 11 -1.5
v 2.5 20 1.5
v 2.5 20 0.5
v 2.5 20 -0.5
v 2.5 20 -1.5
v 2.5 20 -2.5
v 2.5 21 1.5
v 2.5 21 0.5
v 2.5 21 -0.5
v 2.5 21 -1.5
v 2.5 21 -2.5
v 2.5 22 1.5
v 2.5 22 0.5
v 2.5 23 0.5
v 2.5 23 -0.5
v 2.5 24 1.5
v 2.5 24 0.5
v 2.5 25 2.5
v 2.5 25 1.5
v 2.5 27 2.5
v 2.5 27 -1.5
v 3.5 20 1.5
v 3.5 20 0.5
v 3.5 20 -0.5
v 3.5 20 -1.5
v 3.5 21 1.5
v 3.5 21 0.5
v 3.5 21 -0.5
v 3.5 21 -1.5
v 3.5 23 0.5
v 3.5 23 -0.5
v 4.5 11 0.5
v 4.5 11 -0.5
v 4.5 18 0.5
v 4.5 18 -0.5
v 4.5 20 0.5
v 4.5 20 -0.5
v -2.5 24 3.5
v -2.5 25 3.5
v -1.5 24 3.5
v -1.5 25 3.5
v -1.5 26 3.5
v -0.5 25 3.5
v -0.5 26 3.5
v -0.5 27 3.5
v 0.5 26 3.5
v 0.5 27 3.5
v -2.5 23 2.5
v -2.5 24 2.5
v -2.5 25 2.5
v -2.5 26 2.5
v -1.5 23 2.5
v -1.5 24 2.5
v -1.5 25 2.5
v -1.5 26 2.5
v -1.5 27 2.5
v -0.5 26 2.5
v -0.5 27 2.5
v -0.5 28 2.5
v 0.5 26 2.5
v 0.5 27 2.5
v 0.5 28 2.5
v 1.5 25 2.5
v 1.5 26 2.5
v 2.5 25 2.5
v 2.5 27 2.5
v -3.5 22 1.5
v -3.5 25 1.5
v -2.5 11 1.5
v -2.5 21 1.5
v -2.5 22 1.5
v -2.5 23 1.5
v -2.5 25 1.5
v -2.5 26 1.5
v -2.5 27 1.5
v -1.5 11 1.5
v -1.5 12 1.5
v -1.5 21 1.5
v -1.5 22 1.5
v -1.5 23 1.5
v -1.5 25 1.5
v -1.5 26 1.5
v -1.5 27 1.5
v -1.5 28 1.5
v -0.5 21 1.5
v -0.5 22 1.5
v -0.5 25 1.5
v -0.5 26 1.5
v -0.5 27 1.5
v -0.5 28 1.5
v 0.5 21 1.5
v 0.5 22 1.5
v 0.5 27 1.5
v 0.5 28 1.5
v 1.5 11 1.5
v 1.5 12 1.5
v 1.5 21 1.5
v 1.5 22 1.5
v 1.5 23 1.5
v 1.5 24 1.5
v 1.5 25 1.5
v 1.5 26 1.5
v 1.5 27 1.5
v 1.5 28 1.5
v 2.5 11 1.5
v 2.5 20 1.5
v 2.5 21 1.5
v 2.5 22 1.5
v 2.5 24 1.5
v 2.5 25 1.5
v 3.5 20 1.5
v 3.5 21 1.5
v -4.5 11 0.5
v -4.5 18 0.5
v -4.5 20 0.5
v -3.5 11 0.5
v -3.5 18 0.5
v -3.5 20 0.5
v -3.5 21 0.5
v -3.5 22 0.5
v -2.5 0 0.5
v -2.5 11 0.5
v -2.5 20 0.5
v -2.5 21 0.5
v -2.5 22 0.5
v -2.5 24 0.5
v -1.5 0 0.5
v -1.5 11 0.5
v -1.5 12 0.5
v -1.5 21 0.5
v -1.5 22 0.5
v -1.5 23 0.5
v -1.5 24 0.5
v -0.5 21 0.5
v -0.5 22 0.5
v -0.5 23 0.5
v 0.5 21 0.5
v 0.5 22 0.5
v 0.5 23 0.5
v 1.5 0 0.5
v 1.5 11 0.5
v 1.5 12 0.5
v 1.5 22 0.5
v 1.5 23 0.5
v 1.5 24 0.5
v 2.5 0 0.5
v 2.5 11 0.5
v 2.5 21 0.5
v 2.5 22 0.5
v 2.5 23 0.5
v 2.5 24 0.5
v 3.5 11 0.5
v 3.5 18 0.5
v 3.5 20 0.5
v 3.5 21 0.5
v 3.5 23 0.5
v 4.5 11 0.5
v 4.5 18 0.5
v 4.5 20 0.5
v -1.5 10 -0.5
v -1.5 11 -0.5
v 1.5 10 -0.5
v 1.5 11 -0.5
v -1.5 22 -1.5
v -1.5 23 -1.5
v 1.5 22 -1.5
v 1.5 23 -1.5
v -2.5 23 1.5
v -2.5 24 1.5
v -1.5 23 1.5
v -1.5 24 1.5
v -3.5 24 0.5
v -3.5 25 0.5
v -2.5 24 0.5
v -2.5 25 0.5
v -4.5 11 -0.5
v -4.5 18 -0.5
v -4.5 20 -0.5
v -3.5 11 -0.5
v -3.5 18 -0.5
v -3.5 20 -0.5
v -3.5 21 -0.5
v -3.5 24 -0.5
v -2.5 0 -0.5
v -2.5 11 -0.5
v -2.5 20 -0.5
v -2.5 21 -0.5
v -2.5 24 -0.5
v -1.5 0 -0.5
v -1.5 10 -0.5
v -1.5 11 -0.5
v -0.5 22 -0.5
v -0.5 23 -0.5
v 0.5 22 -0.5
v 0.5 23 -0.5
v 1.5 0 -0.5
v 1.5 10 -0.5
v 1.5 11 -0.5
v 2.5 0 -0.5
v 2.5 11 -0.5
v 2.5 21 -0.5
v 2.5 23 -0.5
v 3.5 11 -0.5
v 3.5 18 -0.5
v 3.5 20 -0.5
v 3.5 21 -0.5
v 3.5 23 -0.5
v 4.5 11 -0.5
v 4.5 18 -0.5
v 4.5 20 -0.5
v -2.5 11 -1.5
v -2.5 20 -1.5
v -2.5 21 -1.5
v -2.5 27 -1.5
v -1.5 10 -1.5
v -1.5 11 -1.5
v -1.5 19 -1.5
v -1.5 20 -1.5
v -1.5 21 -1.5
v -1.5 27 -1.5
v -1.5 28 -1.5
v -0.5 18 -1.5
v -0.5 19 -1.5
v 0.5 18 -1.5
v 0.5 19 -1.5
v 1.5 10 -1.5
v 1.5 11 -1.5
v 1.5 19 -1.5
v 1.5 20 -1.5
v 1.5 21 -1.5
v 1.5 27 -1.5
v 1.5 28 -1.5
v 2.5 11 -1.5
v 2.5 20 -1.5
v 2.5 21 -1.5
v 2.5 27 -1.5
v 3.5 20 -1.5
v 3.5 21 -1.5
v -2.5 20 -2.5
v -2.5 21 -2.5
v -1.5 19 -2.5
v -1.5 20 -2.5
v -1.5 21 -2.5
v -1.5 27 -2.5
v -0.5 18 -2.5
v -0.5 19 -2.5
v -0.5 25 -2.5
v 0.5 18 -2.5
v 0.5 19 -2.5
v 0.5 25 -2.5
v 1.5 19 -2.5
v 1.5 20 -2.5
v 1.5 21 -2.5
v 1.5 27 -2.5
v 2.5 20 -2.5
v 2.5 21 -2.5
v -0.5 19 -3.5
v -0.5 25 -3.5
v 0.5 19 -3.5
v 0.5 25 -3.5
v -2.5 0 0.5
v -1.5 0 0.5
v 1.5 0 0.5
v 2.5 0 0.5
v -2.5 0 -0.5
v -1.5 0 -0.5
v 1.5 0 -0.5
v 2.5 0 -0.5
v -1.5 10 -0.5
v 1.5 10 -0.5
v -1.5 10 -1.5
v 1.5 10 -1.5
v -2.5 11 1.5
v -1.5 11 1.5
v 1.5 11 1.5
v 2.5 11 1.5
v -4.5 11 0.5
v -3.5 11 0.5
v -2.5 11 0.5
v -1.5 11 0.5
v 1.5 11 0.5
v 2.5 11 0.5
v 3.5 11 0.5
v 4.5 11 0.5
v -4.5 11 -0.5
v -3.5 11 -0.5
v -2.5 11 -0.5
v -1.5 11 -0.5
v 1.5 11 -0.5
v 2.5 11 -0.5
v 3.5 11 -0.5
v 4.5 11 -0.5
v -2.5 11 -1.5
v -1.5 11 -1.5
v 1.5 11 -1.5
v 2.5 11 -1.5
v -1.5 12 1.5
v 1.5 12 1.5
v -1.5 12 0.5
v 1.5 12 0.5
v -0.5 18 -1.5
v 0.5 18 -1.5
v -0.5 18 -2.5
v 0.5 18 -2.5
v -1.5 19 -1.5
v -0.5 19 -1.5
v 0.5 19 -1.5
v 1.5 19 -1.5
v -1.5 19 -2.5
v -0.5 19 -2.5
v 0.5 19 -2.5
v 1.5 19 -2.5
v -0.5 19 -3.5
v 0.5 19 -3.5
v 2.5 20 1.5
v 3.5 20 1.5
v -3.5 20 0.5
v -2.5 20 0.5
v 2.5 20 0.5
v 3.5 20 0.5
v -3.5 20 -0.5
v -2.5 20 -0.5
v 2.5 20 -0.5
v 3.5 20 -0.5
v -2.5 20 -1.5
v -1.5 20 -1.5
v 1.5 20 -1.5
v 2.5 20 -1.5
v 3.5 20 -1.5
v -2.5 20 -2.5
v -1.5 20 -2.5
v 1.5 20 -2.5
v 2.5 20 -2.5
v -3.5 22 1.5
v -2.5 22 1.5
v -3.5 22 0.5
v -2.5 22 0.5
v -2.5 23 2.5
v -1.5 23 2.5
v -2.5 23 1.5
v -1.5 23 1.5
v 1.5 23 1.5
v -1.5 23 0.5
v -0.5 23 0.5
v 0.5 23 0.5
v 1.5 23 0.5
v -0.5 23 -0.5
v 0.5 23 -0.5
v -1.5 23 -1.5
v 1.5 23 -1.5
v -2.5 24 3.5
v -1.5 24 3.5
v -2.5 24 2.5
v -1.5 24 2.5
v -2.5 24 1.5
v -1.5 24 1.5
v 1.5 24 1.5
v 2.5 24 1.5
v -2.5 24 0.5
v -1.5 24 0.5
v 1.5 24 0.5
v 2.5 24 0.5
v -1.5 25 3.5
v -0.5 25 3.5
v 1.5 25 2.5
v 2.5 25 2.5
v -1.5 25 1.5
v -0.5 25 1.5
v 1.5 25 1.5
v 2.5 25 1.5
v -0.5 26 3.5
v 0.5 26 3.5
v 0.5 26 2.5
v 1.5 26 2.5
v -0.5 26 1.5
v 1.5 26 1.5
v -4.5 20 0.5
v -3.5 20 0.5
v 3.5 20 0.5
v 4.5 20 0.5
v -4.5 20 -0.5
v -3.5 20 -0.5
v 3.5 20 -0.5
v 4.5 20 -0.5
v -2.5 21 1.5
v -1.5 21 1.5
v -0.5 21 1.5
v 0.5 21 1.5
v 2.5 21 1.5
v 3.5 21 1.5
v -2.5 21 0.5
v -1.5 21 0.5
v -0.5 21 0.5
v 0.5 21 0.5
v 2.5 21 0.5
v 3.5 21 0.5
v 2.5 21 -0.5
v 3.5 21 -0.5
v -2.5 21 -1.5
v -1.5 21 -1.5
v 1.5 21 -1.5
v 2.5 21 -1.5
v 3.5 21 -1.5
v -2.5 21 -2.5
v -1.5 21 -2.5
v 1.5 21 -2.5
v 2.5 21 -2.5
v -1.5 22 1.5
v -0.5 22 1.5
v 0.5 22 1.5
v 1.5 22 1.5
v 2.5 22 1.5
v -1.5 22 0.5
v -0.5 22 0.5
v 0.5 22 0.5
v 1.5 22 0.5
v 2.5 22 0.5
v -0.5 22 -0.5
v 0.5 22 -0.5
v -1.5 22 -1.5
v 1.5 22 -1.5
v 2.5 23 0.5
v 3.5 23 0.5
v 2.5 23 -0.5
v 3.5 23 -0.5
v -3.5 24 0.5
v -2.5 24 0.5
v -3.5 24 -0.5
v -2.5 24 -0.5
v -2.5 25 3.5
v -1.5 25 3.5
v -2.5 25 2.5
v -1.5 25 2.5
v -3.5 25 1.5
v -2.5 25 1.5
v -3.5 25 0.5
v -2.5 25 0.5
v -0.5 25 -2.5
v 0.5 25 -2.5
v -0.5 25 -3.5
v 0.5 25 -3.5
v -1.5 26 3.5
v -0.5 26 3.5
v -2.5 26 2.5
v -1.5 26 2.5
v -0.5 26 2.5
v -2.5 26 1.5
v -1.5 26 1.5
v -0.5 27 3.5
v 0.5 27 3.5
v -1.5 27 2.5
v -0.5 27 2.5
v 0.5 27 2.5
v 2.5 27 2.5
v -2.5 27 1.5
v -1.5 27 1.5
v -0.5 27 1.5
v 0.5 27 1.5
v 1.5 27 1.5
v -2.5 27 -1.5
v -1.5 27 -1.5
v 1.5 27 -1.5
v 2.5 27 -1.5
v -1.5 27 -2.5
v 1.5 27 -2.5
v -0.5 28 2.5
v 0.5 28 2.5
v -1.5 28 1.5
v -0.5 28 1.5
v 0.5 28 1.5
v 1.5 28 1.5
v -1.5 28 -1.5
v 1.5 28 -1.5

# faces
f 3/1/1 2/1/1 1/1/1
f 4/1/1 2/1/1 3/1/1
f 5/4/1 4/4/1 3/4/1
f 6/4/1 4/4/1 5/4/1
f 9/4/1 8/4/1 7/4/1
f 10/4/1 8/4/1 9/4/1
f 12/2/1 10/2/1 9/2/1
f 13/2/1 10/2/1 12/2/1
f 13/2/1 12/2/1 11/2/1
f 14/2/1 10/2/1 13/2/1
f 15/2/1 13/2/1 11/2/1
f 16/2/1 13/2/1 15/2/1
f 20/3/1 18/3/1 17/3/1
f 21/3/1 18/3/1 20/3/1
f 23/4/1 20/4/1 19/4/1
f 23/4/1 22/4/1 21/4/1
f 23/4/1 21/4/1 20/4/1
f 24/4/1 22/4/1 23/4/1
f 25/4/1 22/4/1 24/4/1
f 27/4/1 23/4/1 19/4/1
f 28/4/1 23/4/1 27/4/1
f 29/4/1 25/4/1 24/4/1
f 30/2/1 26/2/1 25/2/1
f 30/4/1 25/4/1 29/4/1
f 31/2/1 26/2/1 30/2/1
f 35/2/1 33/2/1 32/2/1
f 37/2/1 30/2/1 29/2/1
f 38/2/1 35/2/1 34/2/1
f 39/2/1 33/2/1 35/2/1
f 39/2/1 35/2/1 38/2/1
f 40/2/1 33/2/1 39/2/1
f 41/2/1 37/2/1 36/2/1
f 42/2/1 40/2/1 39/2/1
f 42/2/1 41/2/1 40/2/1
f 43/2/1 41/2/1 42/2/1
f 44/2/1 41/2/1 43/2/1
f 45/2/1 37/2/1 41/2/1
f 45/2/1 41/2/1 44/2/1
f 45/2/1 30/2/1 37/2/1
f 48/4/1 47/4/1 46/4/1
f 49/4/1 47/4/1 48/4/1
f 52/2/1 51/2/1 50/2/1
f 53/2/1 51/2/1 52/2/1
f 58/4/1 55/4/1 54/4/1
f 59/4/1 55/4/1 58/4/1
f 62/1/1 61/1/1 60/1/1
f 63/1/1 61/1/1 62/1/1
f 66/2/1 65/2/1 64/2/1
f 67/2/1 65/2/1 66/2/1
f 69/2/1 68/2/1 67/2/1
f 70/2/1 68/2/1 69/2/1
f 71/2/1 57/2/1 56/2/1
f 72/2/1 57/2/1 71/2/1
f 73/2/1 71/2/1 70/2/1
f 74/2/1 71/2/1 73/2/1
f 77/2/1 76/2/1 75/2/1
f 78/2/1 76/2/1 77/2/1
f 82/1/1 81/1/1 80/1/1
f 83/1/1 81/1/1 82/1/1
f 84/2/1 79/2/1 78/2/1
f 85/2/1 79/2/1 84/2/1
f 88/2/1 87/2/1 86/2/1
f 89/2/1 87/2/1 88/2/1
f 91/2/1 90/2/1 89/2/1
f 92/2/1 90/2/1 91/2/1
f 95/4/1 94/4/1 93/4/1
f 96/4/1 94/4/1 95/4/1
f 99/3/1 98/3/1 97/3/1
f 101/3/1 99/3/1 97/3/1
f 102/3/1 99/3/1 101/3/1
f 103/4/1 101/4/1 100/4/1
f 104/4/1 101/4/1 103/4/1
f 107/2/1 106/2/1 105/2/1
f 108/2/1 106/2/1 107/2/1
f 111/2/1 110/2/1 109/2/1
f 112/2/1 110/2/1 111/2/1
f 115/1/1 114/1/1 113/1/1
f 116/1/1 114/1/1 115/1/1
f 117/4/1 116/4/1 115/4/1
f 118/4/1 116/4/1 117/4/1
f 119/1/2 120/1/2 121/1/2
f 121/1/2 120/1/2 122/1/2
f 121/4/2 122/4/2 123/4/2
f 123/4/2 122/4/2 124/4/2
f 125/2/2 126/2/2 127/2/2
f 127/2/2 126/2/2 128/2/2
f 128/2/2 126/2/2 129/2/2
f 130/3/2 131/3/2 132/3/2
f 130/3/2 132/3/2 134/3/2
f 134/3/2 132/3/2 135/3/2
f 133/4/2 134/4/2 136/4/2
f 136/4/2 134/4/2 137/4/2
f 138/2/2 139/2/2 142/2/2
f 142/2/2 139/2/2 143/2/2
f 140/2/2 141/2/2 145/2/2
f 144/2/2 145/2/2 146/2/2
f 145/2/2 141/2/2 147/2/2
f 146/2/2 145/2/2 147/2/2
f 148/4/2 149/4/2 150/4/2
f 150/4/2 149/4/2 151/4/2
f 152/2/2 153/2/2 154/2/2
f 154/2/2 153/2/2 155/2/2
f 156/2/2 157/2/2 158/2/2
f 158/2/2 157/2/2 159/2/2
f 161/1/2 162/1/2 163/1/2
f 163/1/2 162/1/2 164/1/2
f 159/2/2 160/2/2 165/2/2
f 165/2/2 160/2/2 166/2/2
f 167/2/2 168/2/2 169/2/2
f 169/2/2 168/2/2 170/2/2
f 170/2/2 171/2/2 172/2/2
f 172/2/2 171/2/2 173/2/2
f 174/4/2 175/4/2 176/4/2
f 176/4/2 175/4/2 177/4/2
f 178/2/2 179/2/2 180/2/2
f 180/2/2 179/2/2 181/2/2
f 184/1/2 185/1/2 186/1/2
f 186/1/2 185/1/2 187/1/2
f 182/2/2 183/2/2 189/2/2
f 189/2/2 183/2/2 190/2/2
f 188/2/2 189/2/2 191/2/2
f 191/2/2 189/2/2 192/2/2
f 193/3/2 194/3/2 196/3/2
f 196/3/2 194/3/2 197/3/2
f 195/4/2 196/4/2 199/4/2
f 197/4/2 198/4/2 199/4/2
f 196/4/2 197/4/2 199/4/2
f 199/4/2 198/4/2 200/4/2
f 200/4/2 198/4/2 201/4/2
f 201/4/2 198/4/2 202/4/2
f 202/2/2 203/2/2 207/2/2
f 207/2/2 203/2/2 208/2/2
f 204/2/2 205/2/2 209/2/2
f 209/2/2 205/2/2 210/2/2
f 206/2/2 207/2/2 212/2/2
f 211/2/2 212/2/2 214/2/2
f 213/2/2 214/2/2 216/2/2
f 215/2/2 216/2/2 217/2/2
f 212/2/2 207/2/2 218/2/2
f 217/2/2 216/2/2 218/2/2
f 214/2/2 212/2/2 218/2/2
f 216/2/2 214/2/2 218/2/2
f 219/2/2 220/2/2 223/2/2
f 220/4/2 221/4/2 224/4/2
f 223/2/2 220/2/2 224/2/2
f 221/2/2 222/2/2 225/2/2
f 224/4/2 221/4/2 225/4/2
f 225/2/2 222/2/2 226/2/2
f 224/2/2 225/2/2 227/2/2
f 227/2/2 225/2/2 228/2/2
f 229/1/2 230/1/2 231/1/2
f 231/1/2 230/1/2 232/1/2
f 231/4/2 232/4/2 233/4/2
f 233/4/2 232/4/2 234/4/2
f 237/2/3 236/2/3 235/2/3
f 238/2/3 236/2/3 237/2/3
f 240/2/3 239/2/3 238/2/3
f 241/2/3 239/2/3 240/2/3
f 243/2/3 242/2/3 241/2/3
f 244/2/3 242/2/3 243/2/3
f 249/2/3 246/2/3 245/2/3
f 250/2/3 246/2/3 249/2/3
f 251/2/3 248/2/3 247/2/3
f 252/2/3 248/2/3 251/2/3
f 254/2/3 253/2/3 252/2/3
f 255/2/3 253/2/3 254/2/3
f 258/2/3 256/2/3 255/2/3
f 259/2/3 256/2/3 258/2/3
f 261/2/3 258/2/3 257/2/3
f 262/2/3 261/2/3 260/2/3
f 263/2/3 258/2/3 261/2/3
f 263/2/3 261/2/3 262/2/3
f 268/2/3 265/2/3 264/2/3
f 269/2/3 265/2/3 268/2/3
f 270/2/3 265/2/3 269/2/3
f 273/4/3 267/4/3 266/4/3
f 274/4/3 267/4/3 273/4/3
f 275/4/3 267/4/3 274/4/3
f 279/2/3 272/2/3 271/2/3
f 280/2/3 272/2/3 279/2/3
f 282/4/3 275/4/3 274/4/3
f 282/4/3 276/4/3 275/4/3
f 283/4/3 276/4/3 282/4/3
f 284/1/3 278/1/3 277/1/3
f 286/2/3 281/2/3 280/2/3
f 287/2/3 281/2/3 286/2/3
f 288/4/3 282/4/3 274/4/3
f 293/4/3 288/4/3 274/4/3
f 293/4/3 289/4/3 288/4/3
f 294/4/3 289/4/3 293/4/3
f 295/4/3 289/4/3 294/4/3
f 296/1/3 285/1/3 284/1/3
f 296/1/3 284/1/3 277/1/3
f 297/1/3 285/1/3 296/1/3
f 298/1/3 285/1/3 297/1/3
f 299/1/3 285/1/3 298/1/3
f 300/2/3 291/2/3 290/2/3
f 301/2/3 291/2/3 300/2/3
f 302/4/3 294/4/3 293/4/3
f 302/4/3 293/4/3 292/4/3
f 303/4/3 294/4/3 302/4/3
f 304/2/3 295/2/3 294/2/3
f 304/4/3 294/4/3 303/4/3
f 305/2/3 295/2/3 304/2/3
f 306/2/3 298/2/3 297/2/3
f 307/2/3 298/2/3 306/2/3
f 308/2/3 304/2/3 303/2/3
f 309/2/3 304/2/3 308/2/3
f 313/1/3 311/1/3 310/1/3
f 314/4/3 312/4/3 311/4/3
f 314/1/3 311/1/3 313/1/3
f 315/4/3 312/4/3 314/4/3
f 320/4/3 316/4/3 315/4/3
f 321/2/3 317/2/3 316/2/3
f 321/4/3 316/4/3 320/4/3
f 322/2/3 317/2/3 321/2/3
f 324/3/3 319/3/3 318/3/3
f 325/3/3 319/3/3 324/3/3
f 327/4/3 322/4/3 321/4/3
f 328/2/3 323/2/3 322/2/3
f 328/4/3 322/4/3 327/4/3
f 329/2/3 323/2/3 328/2/3
f 330/2/3 323/2/3 329/2/3
f 334/1/3 332/1/3 331/1/3
f 334/1/3 333/1/3 332/1/3
f 335/1/3 333/1/3 334/1/3
f 336/1/3 333/1/3 335/1/3
f 338/3/3 326/3/3 325/3/3
f 339/3/3 326/3/3 338/3/3
f 343/3/3 338/3/3 337/3/3
f 344/3/3 338/3/3 343/3/3
f 346/2/3 341/2/3 340/2/3
f 346/2/3 342/2/3 341/2/3
f 347/2/3 342/2/3 346/2/3
f 348/2/3 342/2/3 347/2/3
f 352/2/3 346/2/3 345/2/3
f 352/2/3 347/2/3 346/2/3
f 353/2/3 347/2/3 352/2/3
f 354/1/3 350/1/3 349/1/3
f 355/4/3 351/4/3 350/4/3
f 355/1/3 350/1/3 354/1/3
f 356/4/3 351/4/3 355/4/3
f 359/4/3 358/4/3 357/4/3
f 360/4/3 358/4/3 359/4/3
f 363/2/3 362/2/3 361/2/3
f 364/2/3 362/2/3 363/2/3
f 365/2/4 366/2/4 367/2/4
f 367/2/4 366/2/4 368/2/4
f 369/2/4 370/2/4 371/2/4
f 371/2/4 370/2/4 372/2/4
f 373/1/4 374/1/4 376/1/4
f 374/4/4 375/4/4 377/4/4
f 376/1/4 374/1/4 377/1/4
f 377/4/4 375/4/4 378/4/4
f 378/4/4 379/4/4 383/4/4
f 379/2/4 380/2/4 384/2/4
f 383/4/4 379/4/4 384/4/4
f 384/2/4 380/2/4 385/2/4
f 381/3/4 382/3/4 386/3/4
f 386/3/4 382/3/4 387/3/4
f 387/3/4 382/3/4 388/3/4
f 389/1/4 390/1/4 391/1/4
f 391/1/4 390/1/4 392/1/4
f 393/3/4 394/3/4 396/3/4
f 394/3/4 395/3/4 396/3/4
f 396/3/4 395/3/4 397/3/4
f 398/2/4 399/2/4 403/2/4
f 403/2/4 399/2/4 404/2/4
f 400/1/4 401/1/4 405/1/4
f 401/4/4 402/4/4 406/4/4
f 405/1/4 401/1/4 406/1/4
f 406/4/4 402/4/4 407/4/4
f 408/4/4 409/4/4 413/4/4
f 413/4/4 409/4/4 414/4/4
f 414/4/4 409/4/4 415/4/4
f 410/2/4 411/2/4 416/2/4
f 416/2/4 411/2/4 417/2/4
f 412/4/4 413/4/4 419/4/4
f 413/4/4 414/4/4 419/4/4
f 419/4/4 414/4/4 420/4/4
f 412/4/4 419/4/4 421/4/4
f 412/4/4 421/4/4 423/4/4
f 421/4/4 422/4/4 423/4/4
f 423/4/4 422/4/4 424/4/4
f 424/4/4 422/4/4 425/4/4
f 417/2/4 418/2/4 428/2/4
f 428/2/4 418/2/4 429/2/4
f 425/4/4 426/4/4 430/4/4
f 424/4/4 425/4/4 430/4/4
f 430/4/4 426/4/4 431/4/4
f 427/2/4 428/2/4 432/2/4
f 432/2/4 428/2/4 433/2/4
f 431/2/4 432/2/4 434/2/4
f 434/2/4 432/2/4 435/2/4
f 436/2/4 437/2/4 439/2/4
f 439/2/4 437/2/4 440/2/4
f 438/2/4 439/2/4 443/2/4
f 440/2/4 441/2/4 443/2/4
f 439/2/4 440/2/4 443/2/4
f 443/2/4 441/2/4 444/2/4
f 442/2/4 443/2/4 445/2/4
f 445/2/4 443/2/4 446/2/4
f 444/2/4 441/2/4 447/2/4
f 446/2/4 447/2/4 448/2/4
f 448/2/4 447/2/4 449/2/4
f 449/2/4 447/2/4 450/2/4
f 447/2/4 441/2/4 451/2/4
f 450/2/4 447/2/4 451/2/4
f 449/2/4 450/2/4 452/2/4
f 452/2/4 450/2/4 453/2/4
f 454/2/4 455/2/4 456/2/4
f 456/2/4 455/2/4 457/2/4
f 462/3/5 459/3/5 458/3/5
f 463/3/5 459/3/5 462/3/5
f 464/3/5 461/3/5 460/3/5
f 465/3/5 461/3/5 464/3/5
f 468/4/5 467/4/5 466/4/5
f 469/4/5 467/4/5 468/4/5
f 476/4/5 471/4/5 470/4/5
f 477/4/5 471/4/5 476/4/5
f 478/4/5 473/4/5 472/4/5
f 479/4/5 473/4/5 478/4/5
f 482/1/5 475/1/5 474/1/5
f 483/1/5 475/1/5 482/1/5
f 485/3/5 478/3/5 477/3/5
f 486/3/5 478/3/5 485/3/5
f 488/1/5 481/1/5 480/1/5
f 489/1/5 481/1/5 488/1/5
f 490/4/5 485/4/5 484/4/5
f 491/4/5 485/4/5 490/4/5
f 492/4/5 487/4/5 486/4/5
f 493/4/5 487/4/5 492/4/5
f 496/4/5 495/4/5 494/4/5
f 497/4/5 495/4/5 496/4/5
f 500/2/5 499/2/5 498/2/5
f 501/2/5 499/2/5 500/2/5
f 506/2/5 503/2/5 502/2/5
f 507/2/5 503/2/5 506/2/5
f 508/2/5 505/2/5 504/2/5
f 509/2/5 505/2/5 508/2/5
f 510/2/5 508/2/5 507/2/5
f 511/2/5 508/2/5 510/2/5
f 516/2/5 513/2/5 512/2/5
f 517/2/5 513/2/5 516/2/5
f 518/4/5 515/4/5 514/4/5
f 519/4/5 515/4/5 518/4/5
f 520/4/5 517/4/5 516/4/5
f 521/4/5 517/4/5 520/4/5
f 525/2/5 521/2/5 520/2/5
f 526/2/5 521/2/5 525/2/5
f 527/2/5 523/2/5 522/2/5
f 528/2/5 523/2/5 527/2/5
f 529/2/5 525/2/5 524/2/5
f 530/2/5 525/2/5 529/2/5
f 533/2/5 532/2/5 531/2/5
f 534/2/5 532/2/5 533/2/5
f 537/2/5 536/2/5 535/2/5
f 538/2/5 536/2/5 537/2/5
f 540/1/5 539/1/5 538/1/5
f 541/1/5 539/1/5 540/1/5
f 542/1/5 539/1/5 541/1/5
f 543/1/5 539/1/5 542/1/5
f 544/1/5 541/1/5 540/1/5
f 545/1/5 543/1/5 542/1/5
f 546/1/5 544/1/5 540/1/5
f 546/1/5 545/1/5 544/1/5
f 547/1/5 543/1/5 545/1/5
f 547/1/5 545/1/5 546/1/5
f 550/2/5 549/2/5 548/2/5
f 551/2/5 549/2/5 550/2/5
f 556/2/5 553/2/5 552/2/5
f 557/2/5 553/2/5 556/2/5
f 558/2/5 555/2/5 554/2/5
f 559/2/5 555/2/5 558/2/5
f 564/2/5 561/2/5 560/2/5
f 565/2/5 561/2/5 564/2/5
f 566/2/5 563/2/5 562/2/5
f 567/2/5 563/2/5 566/2/5
f 570/2/5 569/2/5 568/2/5
f 572/2/5 570/2/5 568/2/5
f 572/2/5 571/2/5 570/2/5
f 573/2/5 571/2/5 572/2/5
f 574/4/6 575/4/6 578/4/6
f 578/4/6 575/4/6 579/4/6
f 576/4/6 577/4/6 580/4/6
f 580/4/6 577/4/6 581/4/6
f 582/4/6 583/4/6 588/4/6
f 588/4/6 583/4/6 589/4/6
f 584/4/6 585/4/6 590/4/6
f 590/4/6 585/4/6 591/4/6
f 586/2/6 587/2/6 592/2/6
f 592/2/6 587/2/6 593/2/6
f 594/2/6 595/2/6 599/2/6
f 599/2/6 595/2/6 600/2/6
f 596/2/6 597/2/6 601/2/6
f 601/2/6 597/2/6 602/2/6
f 598/2/6 599/2/6 603/2/6
f 603/2/6 599/2/6 604/2/6
f 605/4/6 606/4/6 610/4/6
f 610/4/6 606/4/6 611/4/6
f 607/4/6 608/4/6 612/4/6
f 608/2/6 609/2/6 613/2/6
f 612/4/6 608/4/6 613/4/6
f 613/2/6 609/2/6 614/2/6
f 610/4/6 611/4/6 615/4/6
f 612/4/6 613/4/6 616/4/6
f 610/4/6 615/4/6 617/4/6
f 615/4/6 616/4/6 617/4/6
f 616/4/6 613/4/6 618/4/6
f 617/4/6 616/4/6 618/4/6
f 619/2/6 620/2/6 621/2/6
f 621/2/6 620/2/6 622/2/6
f 623/2/6 624/2/6 625/2/6
f 625/2/6 624/2/6 626/2/6
f 627/2/6 628/2/6 629/2/6
f 629/2/6 628/2/6 630/2/6
f 631/2/6 632/2/6 633/2/6
f 633/2/6 632/2/6 634/2/6
f 635/2/6 636/2/6 637/2/6
f 637/2/6 636/2/6 638/2/6
f 639/2/6 640/2/6 642/2/6
f 642/2/6 640/2/6 643/2/6
f 641/2/6 642/2/6 644/2/6
f 644/2/6 642/2/6 645/2/6
f 646/2/6 647/2/6 649/2/6
f 649/2/6 647/2/6 650/2/6
f 648/2/6 649/2/6 653/2/6
f 653/2/6 649/2/6 654/2/6
f 650/2/6 651/2/6 655/2/6
f 655/2/6 651/2/6 656/2/6
f 652/2/6 653/2/6 657/2/6
f 657/2/6 653/2/6 658/2/6
f 656/2/6 651/2/6 659/2/6
f 659/2/6 651/2/6 660/2/6
f 658/2/6 659/2/6 661/2/6
f 661/2/6 659/2/6 662/2/6
f 663/2/6 664/2/6 666/2/6
f 666/2/6 664/2/6 667/2/6
f 665/2/6 666/2/6 669/2/6
f 667/2/6 668/2/6 669/2/6
f 666/2/6 667/2/6 669/2/6
f 669/2/6 668/2/6 670/2/6
