# MagicaVoxel @ Ephtracy

# material
mtllib MalePerson1.mtl
usemtl palette

# normals
vn -1 0 0
vn 1 0 0
vn 0 0 1
vn 0 0 -1
vn 0 -1 0
vn 0 1 0

# texcoords
vt 0.00195313 0.5
vt 0.00585938 0.5
vt 0.00976563 0.5
vt 0.0136719 0.5
vt 0.236328 0.5

# verts
v -4.5 11 0.5
v -4.5 11 -0.5
v -4.5 18 0.5
v -4.5 18 -0.5
v -4.5 20 0.5
v -4.5 20 -0.5
v -3.5 20 0.5
v -3.5 20 -0.5
v -3.5 21 0.5
v -3.5 21 -0.5
v -2.5 0 0.5
v -2.5 0 -0.5
v -2.5 7 0.5
v -2.5 7 -0.5
v -2.5 12 1.5
v -2.5 12 0.5
v -2.5 12 -0.5
v -2.5 12 -1.5
v -2.5 20 0.5
v -2.5 20 -0.5
v -2.5 21 1.5
v -2.5 21 0.5
v -2.5 21 -0.5
v -2.5 21 -1.5
v -2.5 22 0.5
v -2.5 22 -0.5
v -2.5 23 -0.5
v -2.5 23 -1.5
v -2.5 24 0.5
v -2.5 24 -0.5
v -2.5 25 1.5
v -2.5 25 0.5
v -2.5 27 1.5
v -2.5 27 -1.5
v -1.5 21 1.5
v -1.5 21 0.5
v -1.5 21 -0.5
v -1.5 21 -1.5
v -1.5 22 1.5
v -1.5 22 0.5
v -1.5 22 -0.5
v -1.5 22 -1.5
v -1.5 23 1.5
v -1.5 23 -0.5
v -1.5 23 -1.5
v -1.5 23 -2.5
v -1.5 24 0.5
v -1.5 24 -0.5
v -1.5 25 1.5
v -1.5 25 0.5
v -1.5 26 2.5
v -1.5 26 1.5
v -1.5 27 1.5
v -1.5 27 -1.5
v -1.5 27 -2.5
v -1.5 28 2.5
v -1.5 28 -1.5
v -0.5 22 0.5
v -0.5 22 -0.5
v -0.5 23 0.5
v -0.5 23 -0.5
v 0.5 21 1.5
v 0.5 21 0.5
v 0.5 22 1.5
v 0.5 22 0.5
v 1.5 0 0.5
v 1.5 0 -0.5
v 1.5 7 0.5
v 1.5 7 -0.5
v 1.5 11 0.5
v 1.5 11 -0.5
v 3.5 11 0.5
v 3.5 11 -0.5
v 3.5 18 0.5
v 3.5 18 -0.5
v 3.5 20 0.5
v 3.5 20 -0.5
v -3.5 11 0.5
v -3.5 11 -0.5
v -3.5 18 0.5
v -3.5 18 -0.5
v -3.5 20 0.5
v -3.5 20 -0.5
v -1.5 0 0.5
v -1.5 0 -0.5
v -1.5 7 0.5
v -1.5 7 -0.5
v -1.5 11 0.5
v -1.5 11 -0.5
v -0.5 21 1.5
v -0.5 21 0.5
v -0.5 22 1.5
v -0.5 22 0.5
v 0.5 22 0.5
v 0.5 22 -0.5
v 0.5 23 0.5
v 0.5 23 -0.5
v 1.5 21 1.5
v 1.5 21 0.5
v 1.5 21 -0.5
v 1.5 21 -1.5
v 1.5 22 1.5
v 1.5 22 0.5
v 1.5 22 -0.5
v 1.5 22 -1.5
v 1.5 23 1.5
v 1.5 23 -0.5
v 1.5 23 -1.5
v 1.5 23 -2.5
v 1.5 24 0.5
v 1.5 24 -0.5
v 1.5 25 1.5
v 1.5 25 0.5
v 1.5 26 2.5
v 1.5 26 1.5
v 1.5 27 1.5
v 1.5 27 -1.5
v 1.5 27 -2.5
v 1.5 28 2.5
v 1.5 28 -1.5
v 2.5 0 0.5
v 2.5 0 -0.5
v 2.5 7 0.5
v 2.5 7 -0.5
v 2.5 12 1.5
v 2.5 12 0.5
v 2.5 12 -0.5
v 2.5 12 -1.5
v 2.5 20 0.5
v 2.5 20 -0.5
v 2.5 21 1.5
v 2.5 21 0.5
v 2.5 21 -0.5
v 2.5 21 -1.5
v 2.5 22 0.5
v 2.5 22 -0.5
v 2.5 23 -0.5
v 2.5 23 -1.5
v 2.5 24 0.5
v 2.5 24 -0.5
v 2.5 25 1.5
v 2.5 25 0.5
v 2.5 27 1.5
v 2.5 27 -1.5
v 3.5 20 0.5
v 3.5 20 -0.5
v 3.5 21 0.5
v 3.5 21 -0.5
v 4.5 11 0.5
v 4.5 11 -0.5
v 4.5 18 0.5
v 4.5 18 -0.5
v 4.5 20 0.5
v 4.5 20 -0.5
v -1.5 26 2.5
v -1.5 28 2.5
v 1.5 26 2.5
v 1.5 28 2.5
v -2.5 12 1.5
v -2.5 21 1.5
v -2.5 25 1.5
v -2.5 27 1.5
v -1.5 21 1.5
v -1.5 22 1.5
v -1.5 23 1.5
v -1.5 25 1.5
v -1.5 26 1.5
v -1.5 27 1.5
v -0.5 21 1.5
v -0.5 22 1.5
v 0.5 21 1.5
v 0.5 22 1.5
v 1.5 21 1.5
v 1.5 22 1.5
v 1.5 23 1.5
v 1.5 25 1.5
v 1.5 26 1.5
v 1.5 27 1.5
v 2.5 12 1.5
v 2.5 21 1.5
v 2.5 25 1.5
v 2.5 27 1.5
v -4.5 11 0.5
v -4.5 18 0.5
v -4.5 20 0.5
v -3.5 11 0.5
v -3.5 18 0.5
v -3.5 20 0.5
v -3.5 21 0.5
v -2.5 0 0.5
v -2.5 7 0.5
v -2.5 12 0.5
v -2.5 20 0.5
v -2.5 21 0.5
v -2.5 22 0.5
v -2.5 24 0.5
v -2.5 25 0.5
v -1.5 0 0.5
v -1.5 7 0.5
v -1.5 11 0.5
v -1.5 21 0.5
v -1.5 22 0.5
v -1.5 24 0.5
v -1.5 25 0.5
v -0.5 21 0.5
v -0.5 22 0.5
v -0.5 23 0.5
v 0.5 21 0.5
v 0.5 22 0.5
v 0.5 23 0.5
v 1.5 0 0.5
v 1.5 7 0.5
v 1.5 11 0.5
v 1.5 21 0.5
v 1.5 22 0.5
v 1.5 24 0.5
v 1.5 25 0.5
v 2.5 0 0.5
v 2.5 7 0.5
v 2.5 12 0.5
v 2.5 20 0.5
v 2.5 21 0.5
v 2.5 22 0.5
v 2.5 24 0.5
v 2.5 25 0.5
v 3.5 11 0.5
v 3.5 18 0.5
v 3.5 20 0.5
v 3.5 21 0.5
v 4.5 11 0.5
v 4.5 18 0.5
v 4.5 20 0.5
v -2.5 23 -0.5
v -2.5 24 -0.5
v -1.5 23 -0.5
v -1.5 24 -0.5
v 1.5 23 -0.5
v 1.5 24 -0.5
v 2.5 23 -0.5
v 2.5 24 -0.5
v -4.5 11 -0.5
v -4.5 18 -0.5
v -4.5 20 -0.5
v -3.5 11 -0.5
v -3.5 18 -0.5
v -3.5 20 -0.5
v -3.5 21 -0.5
v -2.5 0 -0.5
v -2.5 7 -0.5
v -2.5 12 -0.5
v -2.5 20 -0.5
v -2.5 21 -0.5
v -2.5 22 -0.5
v -1.5 0 -0.5
v -1.5 7 -0.5
v -1.5 11 -0.5
v -1.5 21 -0.5
v -1.5 22 -0.5
v -0.5 22 -0.5
v -0.5 23 -0.5
v 0.5 22 -0.5
v 0.5 23 -0.5
v 1.5 0 -0.5
v 1.5 7 -0.5
v 1.5 11 -0.5
v 1.5 21 -0.5
v 1.5 22 -0.5
v 2.5 0 -0.5
v 2.5 7 -0.5
v 2.5 12 -0.5
v 2.5 20 -0.5
v 2.5 21 -0.5
v 2.5 22 -0.5
v 3.5 11 -0.5
v 3.5 18 -0.5
v 3.5 20 -0.5
v 3.5 21 -0.5
v 4.5 11 -0.5
v 4.5 18 -0.5
v 4.5 20 -0.5
v -2.5 12 -1.5
v -2.5 21 -1.5
v -2.5 23 -1.5
v -2.5 27 -1.5
v -1.5 21 -1.5
v -1.5 22 -1.5
v -1.5 23 -1.5
v -1.5 27 -1.5
v -1.5 28 -1.5
v 1.5 21 -1.5
v 1.5 22 -1.5
v 1.5 23 -1.5
v 1.5 27 -1.5
v 1.5 28 -1.5
v 2.5 12 -1.5
v 2.5 21 -1.5
v 2.5 23 -1.5
v 2.5 27 -1.5
v -1.5 23 -2.5
v -1.5 27 -2.5
v 1.5 23 -2.5
v 1.5 27 -2.5
v -2.5 0 0.5
v -1.5 0 0.5
v 1.5 0 0.5
v 2.5 0 0.5
v -2.5 0 -0.5
v -1.5 0 -0.5
v 1.5 0 -0.5
v 2.5 0 -0.5
v -4.5 11 0.5
v -3.5 11 0.5
v -1.5 11 0.5
v 1.5 11 0.5
v 3.5 11 0.5
v 4.5 11 0.5
v -4.5 11 -0.5
v -3.5 11 -0.5
v -1.5 11 -0.5
v 1.5 11 -0.5
v 3.5 11 -0.5
v 4.5 11 -0.5
v -2.5 12 1.5
v 2.5 12 1.5
v -2.5 12 0.5
v 2.5 12 0.5
v -2.5 12 -0.5
v 2.5 12 -0.5
v -2.5 12 -1.5
v 2.5 12 -1.5
v -3.5 20 0.5
v -2.5 20 0.5
v 2.5 20 0.5
v 3.5 20 0.5
v -3.5 20 -0.5
v -2.5 20 -0.5
v 2.5 20 -0.5
v 3.5 20 -0.5
v -1.5 23 1.5
v 1.5 23 1.5
v -0.5 23 0.5
v 0.5 23 0.5
v -2.5 23 -0.5
v -1.5 23 -0.5
v -0.5 23 -0.5
v 0.5 23 -0.5
v 1.5 23 -0.5
v 2.5 23 -0.5
v -2.5 23 -1.5
v -1.5 23 -1.5
v 1.5 23 -1.5
v 2.5 23 -1.5
v -1.5 23 -2.5
v 1.5 23 -2.5
v -2.5 24 0.5
v -1.5 24 0.5
v 1.5 24 0.5
v 2.5 24 0.5
v -2.5 24 -0.5
v -1.5 24 -0.5
v 1.5 24 -0.5
v 2.5 24 -0.5
v -2.5 25 1.5
v -1.5 25 1.5
v 1.5 25 1.5
v 2.5 25 1.5
v -2.5 25 0.5
v -1.5 25 0.5
v 1.5 25 0.5
v 2.5 25 0.5
v -1.5 26 2.5
v 1.5 26 2.5
v -1.5 26 1.5
v 1.5 26 1.5
v -4.5 20 0.5
v -3.5 20 0.5
v 3.5 20 0.5
v 4.5 20 0.5
v -4.5 20 -0.5
v -3.5 20 -0.5
v 3.5 20 -0.5
v 4.5 20 -0.5
v -2.5 21 1.5
v -1.5 21 1.5
v -0.5 21 1.5
v 0.5 21 1.5
v 1.5 21 1.5
v 2.5 21 1.5
v -3.5 21 0.5
v -2.5 21 0.5
v -1.5 21 0.5
v -0.5 21 0.5
v 0.5 21 0.5
v 1.5 21 0.5
v 2.5 21 0.5
v 3.5 21 0.5
v -3.5 21 -0.5
v -2.5 21 -0.5
v -1.5 21 -0.5
v 1.5 21 -0.5
v 2.5 21 -0.5
v 3.5 21 -0.5
v -2.5 21 -1.5
v -1.5 21 -1.5
v 1.5 21 -1.5
v 2.5 21 -1.5
v -1.5 22 1.5
v -0.5 22 1.5
v 0.5 22 1.5
v 1.5 22 1.5
v -2.5 22 0.5
v -1.5 22 0.5
v -0.5 22 0.5
v 0.5 22 0.5
v 1.5 22 0.5
v 2.5 22 0.5
v -2.5 22 -0.5
v -1.5 22 -0.5
v -0.5 22 -0.5
v 0.5 22 -0.5
v 1.5 22 -0.5
v 2.5 22 -0.5
v -1.5 22 -1.5
v 1.5 22 -1.5
v -2.5 27 1.5
v -1.5 27 1.5
v 1.5 27 1.5
v 2.5 27 1.5
v -2.5 27 -1.5
v -1.5 27 -1.5
v 1.5 27 -1.5
v 2.5 27 -1.5
v -1.5 27 -2.5
v 1.5 27 -2.5
v -1.5 28 2.5
v 1.5 28 2.5
v -1.5 28 -1.5
v 1.5 28 -1.5

# faces
f 3/1/1 2/1/1 1/1/1
f 4/1/1 2/1/1 3/1/1
f 5/4/1 4/4/1 3/4/1
f 6/4/1 4/4/1 5/4/1
f 9/4/1 8/4/1 7/4/1
f 10/4/1 8/4/1 9/4/1
f 13/1/1 12/1/1 11/1/1
f 14/1/1 12/1/1 13/1/1
f 16/3/1 14/3/1 13/3/1
f 17/3/1 14/3/1 16/3/1
f 19/4/1 17/4/1 16/4/1
f 19/4/1 18/4/1 17/4/1
f 19/4/1 16/4/1 15/4/1
f 20/4/1 18/4/1 19/4/1
f 21/4/1 19/4/1 15/4/1
f 22/4/1 19/4/1 21/4/1
f 23/4/1 18/4/1 20/4/1
f 24/4/1 18/4/1 23/4/1
f 25/4/1 23/4/1 22/4/1
f 26/4/1 23/4/1 25/4/1
f 30/2/1 28/2/1 27/2/1
f 32/2/1 30/2/1 29/2/1
f 33/2/1 32/2/1 31/2/1
f 34/2/1 28/2/1 30/2/1
f 34/2/1 32/2/1 33/2/1
f 34/2/1 30/2/1 32/2/1
f 39/4/1 36/4/1 35/4/1
f 40/4/1 36/4/1 39/4/1
f 41/4/1 38/4/1 37/4/1
f 42/4/1 38/4/1 41/4/1
f 47/1/1 44/1/1 43/1/1
f 48/1/1 44/1/1 47/1/1
f 49/1/1 47/1/1 43/1/1
f 50/1/1 47/1/1 49/1/1
f 53/2/1 52/2/1 51/2/1
f 54/2/1 46/2/1 45/2/1
f 55/2/1 46/2/1 54/2/1
f 56/2/1 53/2/1 51/2/1
f 56/2/1 54/2/1 53/2/1
f 57/2/1 54/2/1 56/2/1
f 60/1/1 59/1/1 58/1/1
f 61/1/1 59/1/1 60/1/1
f 64/4/1 63/4/1 62/4/1
f 65/4/1 63/4/1 64/4/1
f 68/1/1 67/1/1 66/1/1
f 69/1/1 67/1/1 68/1/1
f 70/3/1 69/3/1 68/3/1
f 71/3/1 69/3/1 70/3/1
f 74/1/1 73/1/1 72/1/1
f 75/1/1 73/1/1 74/1/1
f 76/4/1 75/4/1 74/4/1
f 77/4/1 75/4/1 76/4/1
f 78/1/2 79/1/2 80/1/2
f 80/1/2 79/1/2 81/1/2
f 80/4/2 81/4/2 82/4/2
f 82/4/2 81/4/2 83/4/2
f 84/1/2 85/1/2 86/1/2
f 86/1/2 85/1/2 87/1/2
f 86/3/2 87/3/2 88/3/2
f 88/3/2 87/3/2 89/3/2
f 90/4/2 91/4/2 92/4/2
f 92/4/2 91/4/2 93/4/2
f 94/1/2 95/1/2 96/1/2
f 96/1/2 95/1/2 97/1/2
f 98/4/2 99/4/2 102/4/2
f 102/4/2 99/4/2 103/4/2
f 100/4/2 101/4/2 104/4/2
f 104/4/2 101/4/2 105/4/2
f 106/1/2 107/1/2 110/1/2
f 110/1/2 107/1/2 111/1/2
f 106/1/2 110/1/2 112/1/2
f 112/1/2 110/1/2 113/1/2
f 114/2/2 115/2/2 116/2/2
f 108/2/2 109/2/2 117/2/2
f 117/2/2 109/2/2 118/2/2
f 114/2/2 116/2/2 119/2/2
f 116/2/2 117/2/2 119/2/2
f 119/2/2 117/2/2 120/2/2
f 121/1/2 122/1/2 123/1/2
f 123/1/2 122/1/2 124/1/2
f 123/3/2 124/3/2 126/3/2
f 126/3/2 124/3/2 127/3/2
f 126/4/2 127/4/2 129/4/2
f 127/4/2 128/4/2 129/4/2
f 125/4/2 126/4/2 129/4/2
f 129/4/2 128/4/2 130/4/2
f 125/4/2 129/4/2 131/4/2
f 131/4/2 129/4/2 132/4/2
f 130/4/2 128/4/2 133/4/2
f 133/4/2 128/4/2 134/4/2
f 132/4/2 133/4/2 135/4/2
f 135/4/2 133/4/2 136/4/2
f 137/2/2 138/2/2 140/2/2
f 139/2/2 140/2/2 142/2/2
f 141/2/2 142/2/2 143/2/2
f 140/2/2 138/2/2 144/2/2
f 143/2/2 142/2/2 144/2/2
f 142/2/2 140/2/2 144/2/2
f 145/4/2 146/4/2 147/4/2
f 147/4/2 146/4/2 148/4/2
f 149/1/2 150/1/2 151/1/2
f 151/1/2 150/1/2 152/1/2
f 151/4/2 152/4/2 153/4/2
f 153/4/2 152/4/2 154/4/2
f 157/2/3 156/2/3 155/2/3
f 158/2/3 156/2/3 157/2/3
f 163/4/3 160/4/3 159/4/3
f 166/2/3 162/2/3 161/2/3
f 167/2/3 162/2/3 166/2/3
f 168/2/3 162/2/3 167/2/3
f 169/4/3 164/4/3 163/4/3
f 169/4/3 163/4/3 159/4/3
f 170/4/3 164/4/3 169/4/3
f 171/4/3 169/4/3 159/4/3
f 173/4/3 171/4/3 159/4/3
f 173/4/3 172/4/3 171/4/3
f 174/4/3 172/4/3 173/4/3
f 175/1/3 167/1/3 166/1/3
f 175/1/3 166/1/3 165/1/3
f 176/1/3 167/1/3 175/1/3
f 177/1/3 167/1/3 176/1/3
f 179/4/3 173/4/3 159/4/3
f 180/4/3 173/4/3 179/4/3
f 181/2/3 178/2/3 177/2/3
f 181/2/3 177/2/3 176/2/3
f 182/2/3 178/2/3 181/2/3
f 186/1/3 184/1/3 183/1/3
f 187/4/3 185/4/3 184/4/3
f 187/1/3 184/1/3 186/1/3
f 188/4/3 185/4/3 187/4/3
f 193/4/3 189/4/3 188/4/3
f 194/4/3 189/4/3 193/4/3
f 198/1/3 191/1/3 190/1/3
f 199/3/3 192/3/3 191/3/3
f 199/1/3 191/1/3 198/1/3
f 200/3/3 192/3/3 199/3/3
f 201/4/3 195/4/3 194/4/3
f 202/4/3 195/4/3 201/4/3
f 203/2/3 197/2/3 196/2/3
f 204/2/3 197/2/3 203/2/3
f 208/1/3 206/1/3 205/1/3
f 208/1/3 207/1/3 206/1/3
f 209/1/3 207/1/3 208/1/3
f 210/1/3 207/1/3 209/1/3
f 213/3/3 192/3/3 200/3/3
f 218/1/3 212/1/3 211/1/3
f 219/3/3 213/3/3 212/3/3
f 219/1/3 212/1/3 218/1/3
f 220/3/3 192/3/3 213/3/3
f 220/3/3 213/3/3 219/3/3
f 222/4/3 215/4/3 214/4/3
f 223/4/3 215/4/3 222/4/3
f 224/2/3 217/2/3 216/2/3
f 225/2/3 217/2/3 224/2/3
f 228/4/3 222/4/3 221/4/3
f 229/4/3 222/4/3 228/4/3
f 230/1/3 227/1/3 226/1/3
f 231/4/3 228/4/3 227/4/3
f 231/1/3 227/1/3 230/1/3
f 232/4/3 228/4/3 231/4/3
f 235/2/3 234/2/3 233/2/3
f 236/2/3 234/2/3 235/2/3
f 239/2/3 238/2/3 237/2/3
f 240/2/3 238/2/3 239/2/3
f 241/1/4 242/1/4 244/1/4
f 242/4/4 243/4/4 245/4/4
f 244/1/4 242/1/4 245/1/4
f 245/4/4 243/4/4 246/4/4
f 246/4/4 247/4/4 251/4/4
f 251/4/4 247/4/4 252/4/4
f 248/1/4 249/1/4 254/1/4
f 249/3/4 250/3/4 255/3/4
f 254/1/4 249/1/4 255/1/4
f 255/3/4 250/3/4 256/3/4
f 252/4/4 253/4/4 257/4/4
f 257/4/4 253/4/4 258/4/4
f 259/1/4 260/1/4 261/1/4
f 261/1/4 260/1/4 262/1/4
f 256/3/4 250/3/4 265/3/4
f 263/1/4 264/1/4 268/1/4
f 264/3/4 265/3/4 269/3/4
f 268/1/4 264/1/4 269/1/4
f 265/3/4 250/3/4 270/3/4
f 269/3/4 265/3/4 270/3/4
f 266/4/4 267/4/4 272/4/4
f 272/4/4 267/4/4 273/4/4
f 271/4/4 272/4/4 276/4/4
f 276/4/4 272/4/4 277/4/4
f 274/1/4 275/1/4 278/1/4
f 275/4/4 276/4/4 279/4/4
f 278/1/4 275/1/4 279/1/4
f 279/4/4 276/4/4 280/4/4
f 281/4/4 282/4/4 285/4/4
f 283/2/4 284/2/4 287/2/4
f 287/2/4 284/2/4 288/2/4
f 285/4/4 286/4/4 290/4/4
f 281/4/4 285/4/4 290/4/4
f 290/4/4 286/4/4 291/4/4
f 288/2/4 289/2/4 293/2/4
f 293/2/4 289/2/4 294/2/4
f 281/4/4 290/4/4 295/4/4
f 295/4/4 290/4/4 296/4/4
f 292/2/4 293/2/4 297/2/4
f 297/2/4 293/2/4 298/2/4
f 299/2/4 300/2/4 301/2/4
f 301/2/4 300/2/4 302/2/4
f 307/1/5 304/1/5 303/1/5
f 308/1/5 304/1/5 307/1/5
f 309/1/5 306/1/5 305/1/5
f 310/1/5 306/1/5 309/1/5
f 317/1/5 312/1/5 311/1/5
f 318/1/5 312/1/5 317/1/5
f 319/3/5 314/3/5 313/3/5
f 320/3/5 314/3/5 319/3/5
f 321/1/5 316/1/5 315/1/5
f 322/1/5 316/1/5 321/1/5
f 325/4/5 324/4/5 323/4/5
f 326/4/5 324/4/5 325/4/5
f 329/4/5 328/4/5 327/4/5
f 330/4/5 328/4/5 329/4/5
f 335/4/5 332/4/5 331/4/5
f 336/4/5 332/4/5 335/4/5
f 337/4/5 334/4/5 333/4/5
f 338/4/5 334/4/5 337/4/5
f 341/1/5 340/1/5 339/1/5
f 342/1/5 340/1/5 341/1/5
f 344/1/5 341/1/5 339/1/5
f 345/1/5 341/1/5 344/1/5
f 346/1/5 340/1/5 342/1/5
f 347/1/5 340/1/5 346/1/5
f 349/2/5 344/2/5 343/2/5
f 350/1/5 345/1/5 344/1/5
f 350/2/5 344/2/5 349/2/5
f 350/1/5 346/1/5 345/1/5
f 350/1/5 347/1/5 346/1/5
f 351/2/5 348/2/5 347/2/5
f 351/1/5 347/1/5 350/1/5
f 352/2/5 348/2/5 351/2/5
f 353/2/5 351/2/5 350/2/5
f 354/2/5 351/2/5 353/2/5
f 359/2/5 356/2/5 355/2/5
f 360/2/5 356/2/5 359/2/5
f 361/2/5 358/2/5 357/2/5
f 362/2/5 358/2/5 361/2/5
f 367/2/5 364/2/5 363/2/5
f 368/2/5 364/2/5 367/2/5
f 369/2/5 366/2/5 365/2/5
f 370/2/5 366/2/5 369/2/5
f 373/2/5 372/2/5 371/2/5
f 374/2/5 372/2/5 373/2/5
f 375/4/6 376/4/6 379/4/6
f 379/4/6 376/4/6 380/4/6
f 377/4/6 378/4/6 381/4/6
f 381/4/6 378/4/6 382/4/6
f 383/4/6 384/4/6 390/4/6
f 390/4/6 384/4/6 391/4/6
f 385/4/6 386/4/6 392/4/6
f 392/4/6 386/4/6 393/4/6
f 387/4/6 388/4/6 394/4/6
f 394/4/6 388/4/6 395/4/6
f 389/4/6 390/4/6 397/4/6
f 397/4/6 390/4/6 398/4/6
f 395/4/6 396/4/6 401/4/6
f 401/4/6 396/4/6 402/4/6
f 398/4/6 399/4/6 403/4/6
f 403/4/6 399/4/6 404/4/6
f 400/4/6 401/4/6 405/4/6
f 405/4/6 401/4/6 406/4/6
f 407/4/6 408/4/6 412/4/6
f 412/4/6 408/4/6 413/4/6
f 409/4/6 410/4/6 414/4/6
f 414/4/6 410/4/6 415/4/6
f 412/4/6 413/4/6 417/4/6
f 411/4/6 412/4/6 417/4/6
f 417/4/6 413/4/6 418/4/6
f 418/4/6 413/4/6 419/4/6
f 415/4/6 416/4/6 420/4/6
f 414/4/6 415/4/6 420/4/6
f 420/4/6 416/4/6 421/4/6
f 421/4/6 416/4/6 422/4/6
f 418/4/6 419/4/6 423/4/6
f 420/4/6 421/4/6 423/4/6
f 419/4/6 420/4/6 423/4/6
f 423/4/6 421/4/6 424/4/6
f 425/2/6 426/2/6 429/2/6
f 429/2/6 426/2/6 430/2/6
f 427/2/6 428/2/6 431/2/6
f 431/2/6 428/2/6 432/2/6
f 430/2/6 431/2/6 433/2/6
f 433/2/6 431/2/6 434/2/6
f 435/2/6 436/2/6 437/2/6
f 437/2/6 436/2/6 438/2/6
